<?xml version="1.0" encoding="UTF-8"?> <svg xmlns="http://www.w3.org/2000/svg" width="78" height="97" viewBox="0 0 78 97" fill="none"> <path d="M1.57928 80.6363L9.28335 84.192L4.11602 90.651C3.87801 90.9486 3.75806 91.3235 3.77913 91.704C3.80019 92.0845 3.96079 92.4438 4.23019 92.7133L7.32721 95.8103C7.59812 96.0812 7.95983 96.2421 8.34244 96.2618C8.72505 96.2816 9.1014 96.1588 9.39875 95.9172L18.5601 88.4736L20.901 89.554C20.8017 89.8292 20.783 90.127 20.8473 90.4124C20.9116 90.6978 21.0561 90.9588 21.2638 91.1648L24.3608 94.2618C24.5821 94.4832 24.8653 94.6322 25.1731 94.6894C25.4808 94.7465 25.7987 94.7091 26.0847 94.5819L38.6089 89.0157C39.2658 88.7218 39.8459 88.28 40.3039 87.7247C40.7618 87.1695 41.0852 86.516 41.2488 85.8151L45.4831 67.466L54.4455 54.0224L61.9841 48.9967C63.205 48.1835 64.1695 47.0398 64.7647 45.699L66.2703 42.3112L75.1352 62.8114L77.9778 61.5821L67.9805 38.4633L70.229 33.404C70.3909 33.0399 70.4062 32.6273 70.2716 32.2522C70.137 31.8771 69.863 31.5684 69.5066 31.3901L66.4096 29.8416C66.1189 29.6963 65.7898 29.6461 65.4689 29.6981C65.1481 29.7502 64.8518 29.9019 64.622 30.1317L64.4514 30.3023L53.2017 4.28741C53.0827 4.0123 52.8865 3.77763 52.6367 3.61188C52.387 3.44613 52.0945 3.35641 51.7948 3.35361C51.7899 3.35352 51.7851 3.35352 51.7804 3.35352C51.4831 3.35353 51.1921 3.43913 50.9421 3.60009C50.6921 3.76105 50.4937 3.99056 50.3707 4.26122L42.6281 21.2948C42.5014 21.5736 42.4602 21.8837 42.5097 22.186C42.5592 22.4882 42.6972 22.769 42.9063 22.9928C43.1154 23.2166 43.3862 23.3733 43.6844 23.4432C43.9825 23.5131 44.2948 23.4931 44.5815 23.3855L56.2018 19.0279L62.0958 32.6579L54.8164 39.9374C54.3059 40.4467 53.6843 40.8308 53.0004 41.0595L51.7804 41.4662V33.7322C51.7804 33.0411 51.6038 32.3616 51.2673 31.758C50.9307 31.1544 50.4455 30.6469 49.8577 30.2836C49.2698 29.9203 48.5989 29.7133 47.9085 29.6822C47.2181 29.6512 46.5313 29.7971 45.9132 30.1062L40.2483 32.9387C39.9911 33.0673 39.7748 33.265 39.6236 33.5096C39.4724 33.7542 39.3924 34.0361 39.3924 34.3236V42.0662C39.3924 42.1452 39.3954 42.2236 39.3984 42.3019L32.8101 43.4C31.6469 43.5953 30.5434 44.0524 29.5828 44.7368L20.9887 50.8753C20.4783 51.2413 20.0471 51.7066 19.7208 52.2433C19.3945 52.78 19.18 53.3771 19.09 53.9987L17.8435 62.7231L12.4215 65.4341L9.07117 63.8878C8.88485 63.8018 8.6833 63.7537 8.47824 63.7463C8.27317 63.7389 8.06868 63.7723 7.87664 63.8446C7.6846 63.9169 7.50884 64.0267 7.35958 64.1675C7.21033 64.3083 7.09054 64.4774 7.00719 64.6649L0.813158 78.6014C0.6479 78.9733 0.635628 79.3952 0.778995 79.776C0.922362 80.1568 1.20985 80.4658 1.57928 80.6363ZM46.9946 19.1731L51.7451 8.72177L54.971 16.1818L46.9946 19.1731ZM8.5296 92.6329L7.40016 91.5035L12.1799 85.5289L15.4279 87.028L8.5296 92.6329ZM28.7898 59.8088L24.0307 65.7576L23.9675 65.4414L26.4006 59.3586C26.4788 59.1642 26.5955 58.9875 26.7438 58.8393C26.892 58.691 27.0686 58.5743 27.2631 58.496L29.9919 57.4046L28.7898 59.8088ZM25.245 74.7636L20.6925 77.4952L11.359 73.4951L10.4309 67.9264L25.245 74.7636ZM27.1914 81.4607L31.6498 77.8382L31.65 81.5305L25.0723 86.2288L27.1914 81.4607ZM38.2312 85.1186C38.1766 85.3523 38.0688 85.5701 37.9162 85.7552C37.7635 85.9403 37.5701 86.0876 37.3511 86.1856L25.7987 91.3199L24.7464 90.2675L33.4503 84.0504C33.851 83.7635 34.1775 83.3853 34.403 82.9471C34.6285 82.5089 34.7463 82.0233 34.7469 81.5305V74.5848C34.7469 74.2921 34.6639 74.0054 34.5076 73.7579C34.3514 73.5105 34.1281 73.3124 33.8639 73.1866C33.5996 73.0608 33.305 73.0125 33.0144 73.0472C32.7238 73.082 32.449 73.1984 32.2218 73.383L29.9675 75.2147L29.9679 75.2137C30.1331 74.8419 30.1454 74.42 30.002 74.0392C29.8587 73.6584 29.5712 73.3493 29.2018 73.1788L25.14 71.3042L24.824 69.7238L30.5642 62.5485L42.2419 67.7386L38.2312 85.1186ZM45.5864 45.1632C44.7653 45.1623 43.9781 44.8357 43.3975 44.2551C42.8169 43.6745 42.4903 42.8873 42.4894 42.0662V38.9692H48.6834V42.0662C48.6825 42.8873 48.3559 43.6745 47.7753 44.2551C47.1947 44.8357 46.4075 45.1623 45.5864 45.1632ZM42.4894 35.2807L47.2984 32.8762C47.4443 32.8032 47.6065 32.7688 47.7694 32.7761C47.9324 32.7834 48.0908 32.8323 48.2295 32.9181C48.3683 33.0038 48.4829 33.1237 48.5623 33.2661C48.6417 33.4086 48.6834 33.5691 48.6834 33.7322V35.8722H42.4894V35.2807ZM22.156 54.4366C22.186 54.2294 22.2575 54.0304 22.3662 53.8515C22.4749 53.6726 22.6186 53.5175 22.7886 53.3955L31.3829 47.2569C31.9593 46.8463 32.6214 46.5721 33.3193 46.4548L40.3005 45.2913C41.0018 46.4357 42.054 47.3231 43.3004 47.8211L42.3195 49.783L45.0894 51.168L46.5841 48.1787C47.5253 48.0236 48.4181 47.6537 49.1933 47.0977C49.9685 46.5418 50.6051 45.8147 51.0539 44.973L53.9797 43.9977C55.1196 43.6163 56.1555 42.976 57.0064 42.1271L66.0228 33.1108L66.798 33.4984L61.9346 44.4413C61.5775 45.2457 60.9988 45.932 60.2662 46.4197L52.47 51.6173C52.2999 51.7307 52.1539 51.8767 52.0405 52.0468L43.4736 64.897L32.2111 59.8914L34.5833 55.1467C34.7238 54.8659 34.7755 54.549 34.7317 54.238C34.6878 53.9271 34.5505 53.6368 34.3379 53.4058C34.1252 53.1747 33.8474 53.0137 33.5412 52.9442C33.235 52.8747 32.9149 52.8999 32.6233 53.0165L26.1129 55.6205C25.5294 55.8552 24.9993 56.2054 24.5546 56.6502C24.1099 57.0949 23.7597 57.625 23.5251 58.2085L21.546 63.1562L20.9526 62.8594L22.156 54.4366ZM19.2618 65.4766L20.9889 66.3401L21.6605 69.6983L16.0226 67.0962L19.2618 65.4766ZM7.74259 70.6356L8.44322 74.8394C8.48592 75.0955 8.59233 75.3368 8.75266 75.541C8.91299 75.7452 9.1221 75.9058 9.36076 76.0081L20.2003 80.6536C20.4256 80.7502 20.6706 80.7919 20.9152 80.7753C21.1597 80.7587 21.3969 80.6843 21.607 80.5582L25.1477 78.4338L21.5817 86.4572L4.26327 78.4641L7.74259 70.6356Z" fill="black"></path> <path d="M41.3283 51.7663L38.0078 58.4072L40.7778 59.7922L44.0983 53.1513L41.3283 51.7663Z" fill="#FFAA00"></path> <path d="M51.5892 0L59.3759 17.7363L40.7744 25.0904L51.5892 0Z" fill="#FFAA00"></path> </svg> 