<?xml version="1.0" encoding="UTF-8"?> <svg xmlns="http://www.w3.org/2000/svg" width="70" height="71" viewBox="0 0 70 71" fill="none"> <path d="M17.5101 70.0461C17.1311 70.0461 16.7578 69.8979 16.4785 69.6186L0.427807 53.568C0.0102959 53.1505 -0.1151 52.5235 0.111468 51.9777C0.33661 51.432 0.869542 51.0771 1.45947 51.0771H17.5116C17.8991 51.0771 18.2696 51.231 18.5432 51.5046C18.8168 51.7782 18.9707 52.1487 18.9707 52.5363L18.9693 68.587C18.9693 69.1769 18.613 69.7098 18.0687 69.935C17.8877 70.0105 17.6982 70.0461 17.5101 70.0461ZM4.98195 53.9954L16.051 65.0645L16.0524 53.9954H4.98195Z" fill="black"></path> <path d="M51.0722 70.0392H17.5118C17.1242 70.0392 16.7537 69.8853 16.4801 69.6117L0.429439 53.5611C0.155848 53.2875 0.00195312 52.917 0.00195312 52.5294V1.45915C0.00195312 0.65334 0.654581 0 1.4611 0H51.0722C51.8787 0 52.5314 0.65334 52.5314 1.45915V20.7345C52.5314 21.1213 52.3775 21.4925 52.1039 21.7661L35.0999 38.7701L39.2822 42.9509L50.0406 32.1932C50.4595 31.7743 51.085 31.651 51.6308 31.8769C52.1766 32.1027 52.5314 32.635 52.5314 33.2249V68.5801C52.5314 69.3866 51.8787 70.0392 51.0722 70.0392ZM18.1159 67.1209H49.6131V36.7481L40.3138 46.0459C39.7439 46.6159 38.8205 46.6159 38.2505 46.0459L32.0049 39.8017C31.7313 39.5282 31.5775 39.1577 31.5775 38.7701C31.5775 38.3825 31.7313 38.012 32.0049 37.7384L49.6131 20.1303V2.9183H2.92025V51.9252L18.1159 67.1209Z" fill="black"></path> <path d="M39.2819 46.4726C38.9085 46.4726 38.5352 46.3301 38.2502 46.0451L32.0046 39.801C31.731 39.5274 31.5771 39.1569 31.5771 38.7693C31.5771 38.3817 31.731 38.0112 32.0046 37.7376L56.9855 12.7561C57.5326 12.2089 58.5016 12.2089 59.0488 12.7561L65.2943 19.0017C65.8643 19.5716 65.8643 20.495 65.2943 21.065L40.3135 46.0451C40.0285 46.3301 39.6552 46.4726 39.2819 46.4726ZM35.0996 38.7693L39.2819 42.9501L62.1994 20.0333L58.0171 15.8511L35.0996 38.7693Z" fill="black"></path> <path d="M29.1829 50.3287C28.8024 50.3287 28.4305 50.1805 28.1512 49.9012C27.7437 49.4937 27.614 48.8838 27.8206 48.3452L31.7236 38.1981C32.0142 37.4457 32.8564 37.0738 33.6102 37.3602C34.3611 37.6495 34.7373 38.4945 34.4481 39.2468L31.7236 46.3289L38.8056 43.6043C39.5579 43.3179 40.4029 43.6898 40.6922 44.4422C40.9815 45.1946 40.6067 46.0396 39.8543 46.3289L29.7072 50.2318C29.5363 50.2973 29.3596 50.3287 29.1829 50.3287Z" fill="black"></path> <path d="M64.259 21.496C63.8856 21.496 63.5123 21.3535 63.2273 21.0685C62.6573 20.4985 62.6573 19.5744 63.2273 19.0051L66.6757 15.5575C67.2172 15.0146 67.2172 14.1318 66.6757 13.5889L64.4627 11.3767C63.9369 10.8516 63.0235 10.8501 62.4949 11.3767L59.0465 14.8243C58.4765 15.3943 57.5531 15.3943 56.9831 14.8243C56.4132 14.2544 56.4132 13.3303 56.9831 12.761L60.4315 9.31334C62.0603 7.6839 64.9002 7.68533 66.526 9.31334L68.739 11.5256C70.419 13.2063 70.419 15.9401 68.739 17.6208L65.2906 21.0685C65.0056 21.3535 64.6323 21.496 64.259 21.496Z" fill="black"></path> <path d="M45.233 13.14H7.29509C6.48857 13.14 5.83594 12.4866 5.83594 11.6808C5.83594 10.875 6.48857 10.2217 7.29509 10.2217H45.233C46.0395 10.2217 46.6922 10.875 46.6922 11.6808C46.6922 12.4866 46.0395 13.14 45.233 13.14Z" fill="#FFAA00"></path> <path d="M45.235 21.8939H7.29704C6.49052 21.8939 5.83789 21.2405 5.83789 20.4347C5.83789 19.6289 6.49052 18.9756 7.29704 18.9756H45.235C46.0415 18.9756 46.6941 19.6289 46.6941 20.4347C46.6941 21.2405 46.0415 21.8939 45.235 21.8939Z" fill="#FFAA00"></path> <path d="M30.642 30.6488H7.29704C6.49052 30.6488 5.83789 29.9954 5.83789 29.1896C5.83789 28.3838 6.49052 27.7305 7.29704 27.7305H30.642C31.4485 27.7305 32.1012 28.3838 32.1012 29.1896C32.1012 29.9954 31.4485 30.6488 30.642 30.6488Z" fill="#FFAA00"></path> <path d="M26.1164 39.4037H7.29704C6.49052 39.4037 5.83789 38.751 5.83789 37.9445C5.83789 37.138 6.49052 36.4854 7.29704 36.4854H26.1164C26.9229 36.4854 27.5755 37.138 27.5755 37.9445C27.5755 38.751 26.9229 39.4037 26.1164 39.4037Z" fill="#FFAA00"></path> </svg> 