<?xml version="1.0" encoding="UTF-8"?> <svg xmlns="http://www.w3.org/2000/svg" width="346" height="347" viewBox="0 0 346 347" fill="none"> <path d="M5.75037 294.315H51.7906V340.355C51.7906 342.68 53.1948 344.781 55.3415 345.673C56.0551 345.966 56.8032 346.11 57.5456 346.11C59.042 346.11 60.5152 345.523 61.6144 344.424L119.809 286.229L123.734 290.977C125.156 292.698 127.452 293.446 129.604 292.882L150.95 287.391L169.567 299.178C170.505 299.771 171.576 300.07 172.646 300.07C173.717 300.07 174.787 299.771 175.725 299.178L194.337 287.391L215.677 292.887C217.835 293.44 220.125 292.698 221.547 290.983L225.472 286.235L283.667 344.43C284.777 345.523 286.251 346.11 287.747 346.11C288.489 346.11 289.237 345.966 289.951 345.673C292.098 344.781 293.502 342.68 293.502 340.355V294.315H339.542C341.867 294.315 343.968 292.91 344.86 290.764C345.752 288.612 345.257 286.137 343.611 284.491L294.745 235.625C294.756 235.544 294.791 235.47 294.797 235.389L296.201 213.393L313.184 199.351C314.905 197.929 315.647 195.639 315.089 193.481L309.599 172.135L321.385 153.518C322.576 151.636 322.576 149.236 321.385 147.36L309.599 128.748L315.095 107.409C315.653 105.25 314.911 102.96 313.19 101.538L296.207 87.4962L294.803 65.5062C294.659 63.279 293.249 61.3396 291.177 60.5224L270.689 52.4193L262.586 31.9314C261.769 29.8596 259.829 28.4496 257.602 28.3057L235.606 26.9015L221.564 9.9184C220.143 8.19764 217.858 7.461 215.694 8.01348L194.343 13.4923L175.725 1.70597C173.843 0.514677 171.449 0.514677 169.567 1.70597L150.95 13.4923L129.61 7.99622C127.429 7.43222 125.156 8.18038 123.74 9.90113L109.698 26.8842L87.7077 28.2885C85.4806 28.4323 83.5411 29.8423 82.7239 31.9141L74.6208 52.402L54.1329 60.5051C52.0611 61.3223 50.6511 63.2618 50.5072 65.489L49.103 87.4847L32.1199 101.527C30.3992 102.948 29.6568 105.239 30.215 107.397L35.7053 128.743L23.919 147.36C22.7277 149.242 22.7277 151.642 23.919 153.518L35.7053 172.13L30.2092 193.469C29.651 195.627 30.3934 197.918 32.1142 199.339L49.0973 213.382L50.5015 235.372C50.5072 235.458 50.5418 235.533 50.5533 235.619L1.68731 284.485C0.0413743 286.131 -0.453558 288.606 0.438471 290.758C1.32475 292.911 3.42533 294.315 5.75037 294.315ZM287.747 282.805C284.57 282.805 281.992 285.383 281.992 288.56V326.462L232.844 277.314L235.595 273.988L257.585 272.584C259.812 272.44 261.751 271.03 262.569 268.958L270.672 248.47L285.462 242.617L325.649 282.805H287.747ZM42.2603 192.808L47.4628 172.596C47.8599 171.053 47.6009 169.425 46.7492 168.078L35.5844 150.439L46.755 132.8C47.6067 131.459 47.8599 129.824 47.4686 128.288L42.2718 108.07L58.3513 94.7706C59.5714 93.7577 60.3253 92.2844 60.4289 90.7018L61.7526 69.8686L81.1643 62.1913C82.6433 61.6043 83.8116 60.4361 84.3986 58.957L92.0758 39.5453L112.909 38.2159C114.492 38.1123 115.965 37.3641 116.978 36.1383L130.278 20.0588L150.489 25.2613C152.032 25.6584 153.66 25.3994 155.007 24.5477L172.646 13.3772L190.285 24.5477C191.626 25.3994 193.267 25.6584 194.797 25.2613L215.015 20.0645L228.315 36.1441C229.328 37.3641 230.801 38.118 232.383 38.2216L253.217 39.5453L260.894 58.957C261.481 60.4361 262.649 61.6043 264.128 62.1913L283.54 69.8686L284.869 90.7018C284.973 92.2844 285.721 93.7577 286.947 94.7706L303.026 108.07L297.824 128.282C297.427 129.824 297.686 131.453 298.538 132.8L309.708 150.439L298.538 168.078C297.686 169.419 297.433 171.054 297.824 172.59L303.021 192.808L286.941 206.107C285.721 207.12 284.967 208.594 284.864 210.176L283.54 231.009L264.128 238.687C262.649 239.274 261.481 240.442 260.894 241.921L253.217 261.333L232.383 262.662C230.801 262.766 229.328 263.514 228.315 264.74L215.015 280.819L194.803 275.617C193.255 275.208 191.632 275.479 190.285 276.33L172.646 287.501L155.007 276.33C154.075 275.737 153.004 275.438 151.928 275.438C151.45 275.438 150.967 275.496 150.495 275.622L130.278 280.819L116.978 264.74C115.965 263.52 114.492 262.766 112.909 262.662L92.0758 261.333L84.3986 241.921C83.8116 240.442 82.6433 239.274 81.1643 238.687L61.7526 231.009L60.4232 210.176C60.3196 208.594 59.5714 207.12 58.3456 206.107L42.2603 192.808ZM59.8246 242.623L74.6093 248.47L82.7124 268.958C83.5296 271.03 85.4691 272.44 87.6963 272.584L109.692 273.988L112.443 277.314L63.3007 326.462V288.56C63.3007 285.383 60.7224 282.805 57.5456 282.805H19.643L59.8246 242.623Z" fill="#004990"></path> <path d="M263.45 186.937L274.126 191.236C275.611 187.553 276.9 183.743 277.97 179.922L266.88 176.831C265.931 180.244 264.774 183.645 263.45 186.937Z" fill="#004990"></path> <path d="M255.291 78.8454C252.695 75.847 249.904 72.9638 246.998 70.2646L239.171 78.7015C241.772 81.1186 244.27 83.7026 246.601 86.3787L255.291 78.8454Z" fill="#004990"></path> <path d="M153.464 258.105C157.366 258.796 161.348 259.279 165.308 259.538L166.073 248.057C162.528 247.821 158.966 247.389 155.467 246.768L153.464 258.105Z" fill="#004990"></path> <path d="M87.5627 102.102L77.5547 96.416C75.5865 99.8805 73.7967 103.472 72.2256 107.097L82.7918 111.667C84.196 108.421 85.8017 105.204 87.5627 102.102Z" fill="#004990"></path> <path d="M250.226 210.054L259.347 217.075C261.764 213.927 264.038 210.618 266.098 207.24L256.268 201.249C254.427 204.276 252.395 207.24 250.226 210.054Z" fill="#004990"></path> <path d="M269.12 134.072L280.474 132.167C279.818 128.248 278.932 124.328 277.85 120.519L266.777 123.667C267.738 127.068 268.533 130.573 269.12 134.072Z" fill="#004990"></path> <path d="M75.7363 163.963C75.2529 160.47 74.9536 156.89 74.85 153.322L63.3457 153.656C63.4608 157.633 63.7946 161.633 64.3298 165.54L75.7363 163.963Z" fill="#004990"></path> <path d="M271.558 103.76C269.86 100.175 267.95 96.6468 265.878 93.2686L256.071 99.2941C257.924 102.315 259.639 105.475 261.159 108.686L271.558 103.76Z" fill="#004990"></path> <path d="M182.081 247.82L183.175 259.278C187.122 258.898 191.093 258.3 194.978 257.494L192.642 246.226C189.165 246.951 185.615 247.486 182.081 247.82Z" fill="#004990"></path> <path d="M270.483 150.438C270.483 154.012 270.287 157.597 269.907 161.108L281.348 162.351C281.774 158.432 281.993 154.42 281.993 150.323L278.574 150.139L270.483 150.438Z" fill="#004990"></path> <path d="M231.264 228.77L238.17 237.984C241.341 235.601 244.414 233.023 247.309 230.313L239.447 221.91C236.858 224.333 234.107 226.647 231.264 228.77Z" fill="#004990"></path> <path d="M232.944 59.2039C229.635 57.0112 226.165 54.9797 222.637 53.1611L217.371 63.3936C220.525 65.0165 223.621 66.8351 226.585 68.7918L232.944 59.2039Z" fill="#004990"></path> <path d="M77.675 126.832L66.5044 124.069C65.5491 127.914 64.8009 131.862 64.2715 135.798L75.678 137.329C76.1499 133.801 76.8232 130.273 77.675 126.832Z" fill="#004990"></path> <path d="M80.8916 209.939C83.0555 213.271 85.4208 216.511 87.9242 219.573L96.8388 212.287C94.6001 209.542 92.4822 206.641 90.5428 203.66L80.8916 209.939Z" fill="#004990"></path> <path d="M149.838 55.2736L147.162 44.0801C143.3 45.0009 139.45 46.1461 135.721 47.4871L139.605 58.3238C142.938 57.121 146.385 56.0966 149.838 55.2736Z" fill="#004990"></path> <path d="M176.355 52.6724L176.775 41.1681C172.81 41.0184 168.787 41.0875 164.856 41.3637L165.662 52.845C169.19 52.5976 172.804 52.54 176.355 52.6724Z" fill="#004990"></path> <path d="M125.121 248.943C128.695 250.669 132.407 252.218 136.148 253.541L139.986 242.687C136.643 241.502 133.328 240.12 130.128 238.578L125.121 248.943Z" fill="#004990"></path> <path d="M103.772 80.9574L95.6634 72.791C92.8435 75.588 90.1501 78.5633 87.6582 81.6365L96.6015 88.8878C98.8287 86.1369 101.24 83.4666 103.772 80.9574Z" fill="#004990"></path> <path d="M206.095 46.3067C202.308 45.0923 198.418 44.0737 194.539 43.291L192.254 54.5709C195.724 55.273 199.2 56.1823 202.584 57.27L206.095 46.3067Z" fill="#004990"></path> <path d="M100.337 232.459C103.312 235.083 106.46 237.575 109.7 239.86L116.33 230.45C113.43 228.407 110.61 226.174 107.945 223.832L100.337 232.459Z" fill="#004990"></path> <path d="M125.044 64.9428L119.433 54.8945C115.969 56.8282 112.579 58.9691 109.345 61.2711L116.015 70.6518C118.91 68.5915 121.948 66.6693 125.044 64.9428Z" fill="#004990"></path> <path d="M207.985 241.697L212.146 252.43C215.847 250.991 219.507 249.339 223.029 247.509L217.717 237.3C214.569 238.934 211.294 240.413 207.985 241.697Z" fill="#004990"></path> <path d="M79.2265 179.582L68.2344 183.001C69.4142 186.787 70.8184 190.551 72.4068 194.194L82.9557 189.584C81.5343 186.327 80.2797 182.966 79.2265 179.582Z" fill="#004990"></path> <path d="M92.3429 126.629C91.6695 128.735 92.2623 131.037 93.8679 132.557L129.025 165.821L120.732 212.742C120.353 214.894 121.222 217.069 122.977 218.37C124.732 219.671 127.069 219.861 129.014 218.871L172.643 196.61L216.266 218.871C217.095 219.291 217.987 219.498 218.884 219.498C220.093 219.498 221.296 219.118 222.309 218.37C224.064 217.069 224.933 214.894 224.553 212.742L216.26 165.821L251.418 132.557C253.023 131.037 253.616 128.73 252.943 126.629C252.269 124.523 250.451 122.986 248.264 122.675L199.536 115.804L177.776 73.0095C175.808 69.1479 169.483 69.1479 167.515 73.0095L145.755 115.804L97.0275 122.675C94.8348 122.986 93.0162 124.523 92.3429 126.629ZM150.331 126.79C152.189 126.531 153.807 125.375 154.658 123.7L172.643 88.3236L190.627 123.7C191.479 125.375 193.096 126.531 194.955 126.79L234.82 132.413L206.091 159.594C204.687 160.923 204.042 162.869 204.382 164.773L211.202 203.367L175.256 185.025C174.438 184.605 173.541 184.392 172.643 184.392C171.745 184.392 170.847 184.605 170.024 185.02L134.084 203.367L140.904 164.773C141.243 162.869 140.599 160.923 139.195 159.594L110.465 132.413L150.331 126.79Z" fill="#FFAA00"></path> <path d="M178.401 323.09H166.891V334.6H178.401V323.09Z" fill="#004990"></path> <path d="M201.42 323.09H189.91V334.6H201.42V323.09Z" fill="#004990"></path> <path d="M155.38 323.09H143.87V334.6H155.38V323.09Z" fill="#004990"></path> </svg> 