<?xml version="1.0" encoding="UTF-8"?> <svg xmlns="http://www.w3.org/2000/svg" width="69" height="62" viewBox="0 0 69 62" fill="none"> <path d="M52.8728 25.411L57.5681 25.2069C58.3846 25.0027 59.2012 24.1861 59.2012 23.1654V17.4495H8.57397C7.55325 17.4495 6.73669 16.6329 6.73669 15.8163C6.73669 14.7956 7.55325 13.979 8.57397 13.979H17.9645L24.497 10.9169H5.71598C4.49112 10.9169 3.47041 11.9376 3.47041 13.1625V56.4406C3.47041 57.6654 4.49112 58.6861 5.71598 58.6861H56.9556C58.1805 58.6861 59.2012 57.6654 59.2012 56.4406V46.4376C59.2012 45.2128 58.1805 44.1921 56.9556 44.1921C54.7101 44.1921 52.4645 44.1921 50.0148 44.1921C46.9527 44.1921 44.503 41.7424 44.503 38.4761V30.9228C44.503 25.8193 48.7899 25.411 52.8728 25.411ZM25.926 13.979H48.3817L44.0947 5.40508L25.926 13.979ZM52.2604 13.979H59.2012V13.1625C59.2012 11.9376 58.1805 10.9169 56.9556 10.9169H50.6272L52.2604 13.979ZM48.9941 7.4465H56.9556C60.0178 7.4465 62.4675 10.1003 62.4675 13.1625C62.4675 16.4288 62.4675 19.8992 62.4675 23.1654C62.4675 23.982 62.4675 24.5944 62.0592 25.411H63.284C66.3462 25.411 69 27.8607 69 30.9228V38.4761C69 41.5382 66.3462 44.1921 63.284 44.1921H62.0592C62.4675 44.8045 62.4675 45.6211 62.4675 46.4376V56.4406C62.4675 59.5027 60.0178 61.9524 56.9556 61.9524H5.71598C2.65385 61.9524 0 59.5027 0 56.4406V13.1625C0 10.1003 2.65385 7.4465 5.71598 7.4465H31.642L44.2988 1.52638C45.1154 1.1181 46.1361 1.52638 46.5444 2.34295L48.9941 7.4465ZM63.284 28.8814C58.7929 28.8814 54.5059 28.8814 50.0148 28.8814C48.7899 28.8814 47.9734 29.698 47.9734 30.9228V38.4761C47.9734 39.7009 48.7899 40.7216 50.0148 40.7216C54.5059 40.7216 58.7929 40.7216 63.284 40.7216C64.5089 40.7216 65.5296 39.7009 65.5296 38.4761V30.9228C65.5296 29.698 64.5089 28.8814 63.284 28.8814Z" fill="black"></path> <path d="M54.0972 37.4552C55.5629 37.4552 56.7511 36.267 56.7511 34.8013C56.7511 33.3356 55.5629 32.1475 54.0972 32.1475C52.6315 32.1475 51.4434 33.3356 51.4434 34.8013C51.4434 36.267 52.6315 37.4552 54.0972 37.4552Z" fill="black"></path> <path d="M45.7716 0.683594L17.7617 14.0054H25.9597L44.0637 5.46577L48.1627 14.0054H52.2617L45.7716 0.683594Z" fill="#FFAA00"></path> </svg> 