<?xml version="1.0" encoding="UTF-8"?> <svg xmlns="http://www.w3.org/2000/svg" width="70" height="93" viewBox="0 0 70 93" fill="none"> <path d="M21.5832 62.5771C20.7884 62.6211 20.0228 62.7091 19.2644 62.6871C14.6197 62.5697 10.5728 59.1886 9.63945 54.6193C9.46445 53.7538 9.39153 52.8517 9.40611 51.9642C9.43528 49.8226 8.57486 48.2677 6.65716 47.2775C0.787363 44.2411 -0.612637 36.2613 3.84986 31.2886C4.82695 30.1958 5.3957 28.9783 5.22799 27.4967C5.16236 26.9393 4.98007 26.3745 4.7759 25.8465C2.90195 21.0718 4.76861 15.6517 9.18736 13.092C10.3978 12.3879 11.7103 11.9845 13.103 11.7938C15.0353 11.5224 16.3551 10.4369 16.9749 8.574C18.3311 4.45941 21.1238 1.98772 25.3676 1.29095C27.8832 0.872894 30.253 1.44498 32.3822 2.86785C33.8988 3.87999 35.9769 3.90199 37.5009 2.86785C41.4749 0.161458 47.0967 0.777546 50.4217 4.27605C51.5884 5.50822 52.3978 6.93843 52.9228 8.55933C53.5353 10.4663 54.8842 11.5738 56.8457 11.7938C61.2353 12.2925 65.0051 15.901 65.6905 20.2943C65.9895 22.238 65.8072 24.1229 65.0561 25.9345C64.2249 27.9514 64.604 29.7044 66.0478 31.3033C69.7228 35.3665 69.5186 41.7107 65.5957 45.5466C64.8592 46.2654 64.028 46.8521 63.1165 47.3362C61.3009 48.3117 60.4259 49.8226 60.4988 51.9055C60.6811 57.0983 57.2686 61.4622 52.2228 62.4964C51.0707 62.7311 49.9113 62.7531 48.7447 62.5697C48.6134 62.5477 48.4894 62.5404 48.3072 62.5184C48.3072 63.3545 48.3072 64.1613 48.3072 64.9607C48.3072 73.1826 48.3072 81.4118 48.3144 89.6336C48.3144 90.3817 48.0665 90.9831 47.3447 91.2765C46.6301 91.5699 46.0249 91.3352 45.4999 90.7998C42.0801 87.3453 38.6603 83.8908 35.2332 80.4436C35.1457 80.3556 35.0874 80.2529 34.9269 80.0476C34.5697 80.451 34.2707 80.803 33.9499 81.1331C30.7415 84.3675 27.5332 87.602 24.3249 90.8364C23.7999 91.3645 23.1363 91.5259 22.5311 91.2692C21.9113 91.0125 21.5832 90.4551 21.5832 89.685C21.5832 80.7517 21.5832 71.8184 21.5832 62.8851C21.5832 62.7898 21.5832 62.6724 21.5832 62.5771ZM12.5051 51.5168C12.3957 53.3357 12.6874 54.6999 13.4019 55.9761C14.8603 58.5798 17.8499 60.01 20.7811 59.504C21.4228 59.3939 22.0717 59.2326 22.7207 59.2106C25.3749 59.1372 27.5332 60.1641 29.1738 62.2764C30.5592 64.0659 32.353 65.1001 34.6061 65.1954C37.1509 65.3128 39.1415 64.242 40.7238 62.2544C42.7436 59.724 45.3686 58.7485 48.5478 59.3939C49.5467 59.5993 50.5384 59.658 51.5519 59.482C55.0155 58.8952 57.604 55.6094 57.429 52.1329C57.2613 48.7444 58.6905 46.1847 61.6801 44.6078C65.9092 42.3782 66.9082 36.8554 63.6853 33.3129C61.804 31.2446 61.1332 28.8316 61.7676 26.0958C61.9499 25.3184 62.2999 24.5776 62.5113 23.8002C63.6269 19.6416 60.6957 15.3436 56.452 14.8889C53.4478 14.5662 50.8738 12.4245 49.9915 9.50546C48.5478 4.76745 43.2467 2.81651 39.1197 5.50822C38.303 6.05097 37.4061 6.41769 36.4436 6.60105C34.3363 7.00444 32.4186 6.54237 30.603 5.42021C28.2405 3.95334 25.7832 3.88733 23.3332 5.20018C21.5832 6.13898 20.5478 7.6572 19.9134 9.52747C18.8707 12.6006 16.7124 14.4708 13.5113 14.8669C8.82278 15.4463 5.88424 20.3604 7.67799 24.7536C8.99049 27.9514 8.42903 30.8265 6.14674 33.4082C4.49153 35.2785 3.93736 37.4788 4.5207 39.9138C5.0457 42.1141 6.41653 43.6324 8.37799 44.7032C11.1926 46.2434 12.4832 48.7004 12.5051 51.5168ZM45.2009 86.1131C45.2009 78.2286 45.2009 70.4469 45.2009 62.6211C44.3624 62.9365 43.6988 63.4352 43.1957 64.1246C40.6436 67.6305 36.0863 69.156 31.952 67.8652C29.7645 67.1831 28.0363 65.8702 26.6509 64.0513C26.1478 63.3912 25.5061 62.9071 24.6894 62.6137C24.6894 70.4395 24.6894 78.2213 24.6894 86.0104C24.7332 86.0471 24.7842 86.0911 24.828 86.1278C24.8863 86.0104 24.9301 85.8637 25.0176 85.7757C27.9124 82.8493 30.8144 79.9302 33.7165 77.0111C34.4967 76.2264 35.3717 76.219 36.1447 76.9965C37.902 78.7567 39.652 80.517 41.4092 82.2772C42.6488 83.5387 43.8884 84.7929 45.2009 86.1131Z" fill="black"></path> <path d="M30.2162 25.5164C29.9683 24.9663 29.7277 24.4529 29.5016 23.9321C28.9037 22.5679 28.5902 21.1597 28.7214 19.6562C28.9475 17.0525 31.0693 15.4096 33.0162 15.1235C35.3277 14.7862 37.2016 15.5563 38.5068 17.5512C40.1693 20.0743 41.81 22.612 43.487 25.1277C43.8298 25.6337 44.3037 26.0518 44.7193 26.5138C44.9745 26.7926 45.2516 27.0566 45.4777 27.35C45.6162 27.526 45.7548 27.5773 45.9662 27.5773C47.0381 27.57 48.1027 27.57 49.1745 27.5773C51.5079 27.5847 53.1631 29.2496 53.1631 31.5966C53.1704 35.6818 53.1704 39.7597 53.1631 43.845C53.1631 46.0967 51.4787 47.7762 49.2402 47.7836C48.1245 47.7909 47.0016 47.7762 45.886 47.7982C45.7037 47.7982 45.485 47.8936 45.3537 48.0183C44.1579 49.1698 42.736 49.7785 41.0808 49.7785C35.787 49.7859 30.486 49.7859 25.1923 49.7785C21.8964 49.7712 19.2568 47.0795 19.2568 43.7643C19.2568 39.7597 19.2568 35.7478 19.2568 31.7433C19.2568 28.2741 21.8673 25.6337 25.3089 25.6191C26.8183 25.6117 28.3204 25.5824 29.8298 25.5604C29.9391 25.5457 30.0558 25.531 30.2162 25.5164ZM33.1402 46.6614C35.8381 46.6541 38.536 46.6687 41.2339 46.6467C42.7579 46.6321 44.0412 45.3265 44.0412 43.7937C44.0558 39.7231 44.0631 35.6525 44.0339 31.5819C44.0266 30.4524 43.487 29.5283 42.6412 28.7875C42.2985 28.4868 41.9412 28.1788 41.6568 27.8267C41.1756 27.2179 40.7235 26.5725 40.3006 25.9198C38.8714 23.7415 37.4423 21.5558 36.035 19.3628C35.5683 18.6367 34.9485 18.2187 34.0735 18.1453C32.8995 18.0426 31.7256 19.0254 31.7912 20.2136C31.8204 20.7124 31.8641 21.2184 31.9954 21.6952C32.4329 23.3161 33.286 24.7389 34.1173 26.1765C34.8027 27.3646 34.1245 28.5968 32.761 28.6188C30.2454 28.6628 27.7298 28.6775 25.2214 28.7362C23.5006 28.7728 22.3631 29.9903 22.3631 31.7286C22.3631 35.7038 22.3631 39.6717 22.3631 43.647C22.3631 45.4439 23.5589 46.6614 25.3527 46.6687C27.9412 46.6687 30.537 46.6614 33.1402 46.6614ZM47.0891 30.6724C47.0891 35.3591 47.0891 39.9944 47.0891 44.6811C47.7527 44.6811 48.4308 44.6811 49.1089 44.6811C49.8235 44.6811 50.086 44.4097 50.086 43.6763C50.086 41.9527 50.086 40.2291 50.086 38.5056C50.086 36.1952 50.086 33.8849 50.086 31.5746C50.086 31.0318 49.8235 30.6944 49.335 30.6798C48.5766 30.6504 47.8256 30.6724 47.0891 30.6724Z" fill="#FFAA00"></path> </svg> 