<?xml version="1.0" encoding="UTF-8"?> <svg xmlns="http://www.w3.org/2000/svg" width="330" height="401" viewBox="0 0 330 401" fill="none"> <path d="M0 290.427C0 229.44 49.4399 180 110.427 180H220.854V290.427C220.854 351.414 171.414 400.854 110.427 400.854V400.854C49.4399 400.854 0 351.414 0 290.427V290.427Z" fill="#004990"></path> <path fill-rule="evenodd" clip-rule="evenodd" d="M34.6281 265.964L65.0808 235.511C66.9495 233.643 69.9793 233.643 71.848 235.511L102.301 265.964C104.169 267.833 104.169 270.862 102.301 272.731C100.432 274.6 97.4022 274.6 95.5335 272.731L73.2496 250.447L73.2496 353.003L63.6792 353.003L63.6792 250.447L41.3954 272.731C39.5266 274.6 36.4968 274.6 34.6281 272.731C32.7594 270.862 32.7594 267.833 34.6281 265.964Z" fill="white"></path> <path fill-rule="evenodd" clip-rule="evenodd" d="M191.272 262.013L160.82 231.561C158.951 229.692 155.921 229.692 154.052 231.561C152.184 233.429 152.184 236.459 154.052 238.328L176.336 260.612L134.147 260.612V260.621C129.056 260.713 121.851 261.624 115.709 266.292C108.938 271.438 104.457 280.351 104.315 294.583C104.052 321.054 104.205 344.587 104.315 353.065L113.885 352.941C113.776 344.531 113.623 321.072 113.885 294.678C114.006 282.476 117.735 276.773 121.5 273.911C125.505 270.867 130.635 270.183 135.09 270.183V270.182L176.336 270.182L154.052 292.466C152.184 294.335 152.184 297.365 154.052 299.233C155.921 301.102 158.951 301.102 160.82 299.233L191.272 268.781C193.141 266.912 193.141 263.882 191.272 262.013Z" fill="white"></path> <path d="M314.513 62.7536C314.513 84.709 296.714 102.507 274.759 102.507L235.005 102.507L235.005 62.7536C235.005 40.7981 252.804 22.9998 274.759 22.9998V22.9998C296.714 22.9998 314.513 40.7982 314.513 62.7536V62.7536Z" fill="#004990"></path> <path d="M182 182.014L182 153.671C182 124.601 205.566 101.034 234.637 101.034V101.034C263.708 101.034 287.274 124.601 287.274 153.671L287.274 182.014L182 182.014Z" fill="#004990"></path> <path d="M276.272 79.9524L278.025 70.5485L274.765 64.8541L271.505 70.5485L273.258 79.9524C273.27 80.0139 273.277 80.075 273.277 80.1354C273.277 80.6212 272.92 81.0504 272.413 81.1413C271.842 81.2415 271.295 80.8726 271.191 80.3179L269.894 73.3607L267.353 77.8009C267.07 78.2942 266.431 78.4709 265.924 78.1948C265.419 77.9187 265.235 77.2963 265.518 76.803L268.061 72.3628L261.302 74.9446C260.762 75.1511 260.154 74.8916 259.941 74.3644C259.729 73.8396 259.995 73.2451 260.536 73.0397L269.672 69.5506L272.826 64.0414H266.287L258.783 70.0541C258.224 70.5039 257.394 70.4248 256.934 69.8796C256.474 69.3323 256.554 68.5265 257.113 68.0775L262.152 64.0414H257.668C256.941 64.0414 256.354 63.4679 256.354 62.7608C256.354 62.0541 256.941 61.4806 257.667 61.4806H262.152L257.113 57.4434C256.554 56.995 256.474 56.1886 256.934 55.6423C257.394 55.0961 258.224 55.0184 258.783 55.4664L266.287 61.4802H272.835L269.672 55.957L260.536 52.4679C259.996 52.2614 259.729 51.6669 259.942 51.142C260.154 50.6157 260.762 50.3565 261.303 50.563L268.061 53.1437L265.518 48.7035C265.235 48.2106 265.419 47.5878 265.924 47.3117C266.431 47.0371 267.07 47.2138 267.353 47.7081L269.894 52.1477L271.191 45.19C271.295 44.6342 271.842 44.265 272.413 44.3666C272.92 44.455 273.277 44.8856 273.277 45.3715C273.277 45.4315 273.269 45.493 273.258 45.5555L271.505 54.9595L274.765 60.6538L278.025 54.9595L276.272 45.5555C276.171 44.9997 276.548 44.4667 277.119 44.3655C277.69 44.2654 278.235 44.6342 278.339 45.1886L279.636 52.1473L282.169 47.7243C282.453 47.2311 283.092 47.0544 283.597 47.3294C283.941 47.5167 284.137 47.8635 284.137 48.2224C284.137 48.392 284.092 48.5632 284.003 48.7211L281.471 53.143L288.227 50.5634C288.767 50.3569 289.379 50.6164 289.588 51.1413C289.638 51.265 289.661 51.3901 289.661 51.5153C289.661 51.9231 289.409 52.3089 288.996 52.4672L279.86 55.9559L276.696 61.4806H283.25L290.754 55.4667C291.315 55.0184 292.141 55.0961 292.603 55.6427C293.063 56.1886 292.983 56.9954 292.424 57.4437L287.385 61.4806H291.848C292.575 61.4806 293.162 62.0541 293.162 62.7608C293.162 63.4683 292.575 64.0414 291.848 64.0414H287.385L292.424 68.0775C292.74 68.3311 292.903 68.6981 292.903 69.068C292.903 69.3533 292.804 69.6415 292.603 69.8796C292.141 70.4244 291.316 70.5036 290.754 70.0541L283.25 64.0414H276.704L279.86 69.552L288.996 73.0397C289.409 73.1969 289.662 73.5837 289.662 73.9916C289.662 74.1167 289.638 74.243 289.589 74.3644C289.379 74.8919 288.768 75.1511 288.227 74.9446L281.472 72.3639L284.003 76.7872C284.093 76.944 284.137 77.1152 284.137 77.2838C284.137 77.6423 283.942 77.9916 283.597 78.179C283.092 78.4539 282.453 78.2758 282.17 77.784L279.636 73.361L278.339 80.3183C278.235 80.873 277.69 81.2422 277.12 81.1417C276.548 81.0398 276.171 80.5057 276.272 79.9524Z" fill="white"></path> <path fill-rule="evenodd" clip-rule="evenodd" d="M209.238 138.565C209.238 145.658 214.997 151.417 222.089 151.417C222.89 151.417 243.976 151.417 254.801 151.417C256.971 151.417 259.051 150.556 260.585 149.022C262.118 147.488 262.979 145.408 262.979 143.239C262.979 141.069 262.118 138.99 260.585 137.456C259.051 135.922 256.971 135.061 254.801 135.061H254.705C254.2 132.06 251.787 129.704 248.759 129.286C247.685 123.274 242.427 118.705 236.109 118.705C231.026 118.705 226.627 121.663 224.544 125.949C223.75 125.795 222.929 125.714 222.089 125.714C214.997 125.714 209.238 131.473 209.238 138.565ZM260.643 143.239C260.643 141.689 260.027 140.203 258.933 139.108C257.837 138.013 256.351 137.397 254.801 137.397H253.633C252.988 137.397 252.465 136.874 252.465 136.229C252.465 133.649 250.371 131.556 247.792 131.556C247.777 131.556 247.761 131.556 247.747 131.556C247.142 131.563 246.632 131.106 246.571 130.503C246.044 125.193 241.557 121.041 236.109 121.041C231.653 121.041 227.842 123.818 226.312 127.734C226.093 128.292 225.488 128.594 224.91 128.434C224.012 128.184 223.066 128.051 222.089 128.051C216.287 128.051 211.575 132.763 211.575 138.565C211.575 144.368 216.287 149.08 222.089 149.08C222.89 149.08 243.976 149.08 254.801 149.08C256.351 149.08 257.837 148.464 258.933 147.37C260.027 146.274 260.643 144.788 260.643 143.239Z" fill="white"></path> <path d="M226.906 156.285L221.017 165.855" stroke="white" stroke-width="3" stroke-linecap="round"></path> <path d="M235.223 156.285L229.333 165.855" stroke="white" stroke-width="3" stroke-linecap="round"></path> <path d="M243.54 156.285L237.651 165.855" stroke="white" stroke-width="3" stroke-linecap="round"></path> <path d="M68 79L154.869 79V97.4045C154.869 145.381 115.977 184.274 68 184.274V184.274L68 79Z" fill="#004990"></path> <path d="M135 80.98L135 50.4285C135 22.5776 157.578 9.05658e-05 185.428 8.93484e-05V8.93484e-05C213.279 8.8131e-05 235.857 22.5777 235.857 50.4285L235.857 80.98L135 80.98Z" fill="#004990"></path> <path d="M174.41 42.6993C174.41 48.9877 179.508 54.0855 185.796 54.0855C192.085 54.0855 197.183 48.9877 197.183 42.6993C197.183 36.4108 192.085 31.313 185.796 31.313C179.508 31.313 174.41 36.4108 174.41 42.6993Z" fill="white"></path> <path fill-rule="evenodd" clip-rule="evenodd" d="M170.14 41.2759L165.87 41.2759C165.085 41.2759 164.447 41.9135 164.447 42.6992C164.447 43.4848 165.085 44.1224 165.87 44.1224L170.14 44.1224C170.926 44.1224 171.563 43.4848 171.563 42.6992C171.563 41.9135 170.926 41.2759 170.14 41.2759Z" fill="white"></path> <path fill-rule="evenodd" clip-rule="evenodd" d="M175.733 30.6226L172.714 27.6023C172.158 27.0473 171.257 27.0473 170.7 27.6023C170.145 28.1588 170.145 29.0598 170.7 29.6163L173.721 32.6351C174.276 33.1902 175.178 33.1902 175.733 32.6351C176.288 32.08 176.288 31.1776 175.733 30.6226Z" fill="white"></path> <path fill-rule="evenodd" clip-rule="evenodd" d="M187.22 27.0432L187.22 22.7734C187.22 21.9877 186.582 21.3501 185.796 21.3501C185.011 21.3501 184.373 21.9877 184.373 22.7734L184.373 27.0432C184.373 27.8289 185.011 28.4665 185.796 28.4665C186.582 28.4665 187.22 27.8289 187.22 27.0432Z" fill="white"></path> <path fill-rule="evenodd" clip-rule="evenodd" d="M197.873 32.6351L200.893 29.6163C201.448 29.0598 201.448 28.1588 200.893 27.6023C200.337 27.0473 199.436 27.0473 198.879 27.6023L195.861 30.6226C195.305 31.1776 195.305 32.08 195.861 32.6351C196.416 33.1902 197.318 33.1902 197.873 32.6351Z" fill="white"></path> <path fill-rule="evenodd" clip-rule="evenodd" d="M205.722 41.2759L201.452 41.2759C200.667 41.2759 200.029 41.9135 200.029 42.6992C200.029 43.4848 200.667 44.1224 201.452 44.1224L205.722 44.1224C206.508 44.1224 207.146 43.4848 207.146 42.6992C207.146 41.9135 206.508 41.2759 205.722 41.2759Z" fill="white"></path> <path fill-rule="evenodd" clip-rule="evenodd" d="M200.893 55.7813L197.873 52.7625C197.318 52.2074 196.416 52.2074 195.861 52.7625C195.305 53.3176 195.305 54.2199 195.861 54.775L198.879 57.7952C199.436 58.3503 200.337 58.3503 200.893 57.7952C201.448 57.2387 201.448 56.3378 200.893 55.7813Z" fill="white"></path> <path fill-rule="evenodd" clip-rule="evenodd" d="M187.22 62.6253L187.22 58.3554C187.22 57.5698 186.582 56.9321 185.796 56.9321C185.011 56.9321 184.373 57.5698 184.373 58.3554L184.373 62.6253C184.373 63.4109 185.011 64.0485 185.796 64.0485C186.582 64.0485 187.22 63.4109 187.22 62.6253Z" fill="white"></path> <path fill-rule="evenodd" clip-rule="evenodd" d="M172.714 57.7952L175.733 54.775C176.288 54.2199 176.288 53.3176 175.733 52.7625C175.178 52.2074 174.276 52.2074 173.721 52.7625L170.7 55.7813C170.145 56.3378 170.145 57.2387 170.7 57.7952C171.257 58.3503 172.158 58.3503 172.714 57.7952Z" fill="white"></path> <path d="M221 180H286.52C310.508 180 329.955 199.446 329.955 223.435V223.435C329.955 247.423 310.508 266.869 286.52 266.869H221V180Z" fill="#012B54"></path> <path d="M276.373 204.795L286.944 222.572C292.018 231.152 285.675 241.839 275.474 241.839C265.326 241.839 258.931 231.152 264.005 222.572L274.576 204.795C274.999 204.127 275.95 204.127 276.373 204.795Z" fill="white"></path> </svg> 