<?xml version="1.0" encoding="UTF-8"?> <svg xmlns="http://www.w3.org/2000/svg" width="489" height="361" viewBox="0 0 489 361" fill="none"> <path d="M67 191.427C67 130.44 116.44 81 177.427 81H287.854V191.427C287.854 252.414 238.414 301.854 177.427 301.854V301.854C116.44 301.854 67 252.414 67 191.427V191.427Z" fill="#004990"></path> <path d="M416.513 120.754C416.513 142.709 398.714 160.507 376.759 160.507L337.005 160.507L337.005 120.754C337.005 98.7981 354.804 80.9998 376.759 80.9998V80.9998C398.714 80.9998 416.513 98.7982 416.513 120.754V120.754Z" fill="#004990"></path> <path d="M284 240.014L284 211.671C284 182.601 307.566 159.034 336.637 159.034V159.034C365.708 159.034 389.274 182.601 389.274 211.671L389.274 240.014L284 240.014Z" fill="#004990"></path> <path d="M378.273 137.952L380.026 128.548L376.765 122.854L373.506 128.548L375.259 137.952C375.27 138.014 375.277 138.075 375.277 138.135C375.277 138.621 374.921 139.05 374.414 139.141C373.843 139.241 373.295 138.873 373.192 138.318L371.895 131.361L369.354 135.801C369.071 136.294 368.432 136.471 367.924 136.195C367.419 135.919 367.235 135.296 367.518 134.803L370.061 130.363L363.303 132.945C362.763 133.151 362.154 132.892 361.942 132.364C361.729 131.84 361.996 131.245 362.536 131.04L371.672 127.551L374.826 122.041H368.288L360.784 128.054C360.225 128.504 359.395 128.425 358.934 127.88C358.474 127.332 358.555 126.527 359.114 126.077L364.152 122.041H359.668C358.941 122.041 358.354 121.468 358.354 120.761C358.354 120.054 358.941 119.481 359.668 119.481H364.152L359.114 115.443C358.555 114.995 358.474 114.189 358.934 113.642C359.395 113.096 360.225 113.018 360.784 113.466L368.288 119.48H374.836L371.673 113.957L362.537 110.468C361.996 110.261 361.73 109.667 361.942 109.142C362.155 108.616 362.763 108.357 363.303 108.563L370.062 111.144L367.518 106.703C367.235 106.211 367.419 105.588 367.924 105.312C368.432 105.037 369.071 105.214 369.354 105.708L371.894 110.148L373.192 103.19C373.295 102.634 373.843 102.265 374.414 102.367C374.921 102.455 375.277 102.886 375.277 103.372C375.277 103.432 375.27 103.493 375.259 103.556L373.506 112.96L376.765 118.654L380.026 112.96L378.273 103.556C378.172 103 378.549 102.467 379.12 102.366C379.691 102.265 380.235 102.634 380.339 103.189L381.636 110.147L384.17 105.724C384.453 105.231 385.092 105.054 385.597 105.329C385.942 105.517 386.137 105.863 386.137 106.222C386.137 106.392 386.093 106.563 386.003 106.721L383.472 111.143L390.228 108.563C390.768 108.357 391.379 108.616 391.589 109.141C391.639 109.265 391.662 109.39 391.662 109.515C391.662 109.923 391.409 110.309 390.996 110.467L381.86 113.956L378.697 119.481H385.25L392.755 113.467C393.316 113.018 394.142 113.096 394.603 113.643C395.064 114.189 394.983 114.995 394.425 115.444L389.386 119.481H393.849C394.576 119.481 395.163 120.054 395.163 120.761C395.163 121.468 394.575 122.041 393.849 122.041H389.386L394.425 126.077C394.74 126.331 394.903 126.698 394.903 127.068C394.903 127.353 394.804 127.641 394.604 127.88C394.142 128.424 393.316 128.504 392.755 128.054L385.25 122.041H378.705L381.861 127.552L390.997 131.04C391.41 131.197 391.662 131.584 391.662 131.992C391.662 132.117 391.639 132.243 391.589 132.364C391.379 132.892 390.768 133.151 390.228 132.945L383.472 130.364L386.003 134.787C386.093 134.944 386.138 135.115 386.138 135.284C386.138 135.642 385.942 135.992 385.597 136.179C385.093 136.454 384.453 136.276 384.17 135.784L381.637 131.361L380.34 138.318C380.236 138.873 379.691 139.242 379.12 139.142C378.549 139.04 378.172 138.506 378.273 137.952Z" fill="white"></path> <path fill-rule="evenodd" clip-rule="evenodd" d="M311.239 196.565C311.239 203.658 316.997 209.417 324.09 209.417C324.89 209.417 345.977 209.417 356.802 209.417C358.971 209.417 361.051 208.556 362.585 207.022C364.119 205.488 364.98 203.408 364.98 201.239C364.98 199.069 364.119 196.99 362.585 195.456C361.051 193.922 358.971 193.061 356.802 193.061H356.705C356.2 190.06 353.788 187.704 350.76 187.286C349.686 181.274 344.427 176.705 338.109 176.705C333.026 176.705 328.628 179.663 326.545 183.949C325.75 183.795 324.93 183.714 324.09 183.714C316.997 183.714 311.239 189.473 311.239 196.565ZM362.643 201.239C362.643 199.689 362.028 198.203 360.933 197.108C359.837 196.013 358.351 195.397 356.802 195.397H355.634C354.989 195.397 354.465 194.874 354.465 194.229C354.465 191.649 352.372 189.556 349.792 189.556C349.777 189.556 349.762 189.556 349.748 189.556C349.143 189.563 348.632 189.106 348.571 188.503C348.044 183.193 343.557 179.041 338.109 179.041C333.654 179.041 329.843 181.818 328.312 185.734C328.094 186.292 327.488 186.594 326.91 186.434C326.013 186.184 325.067 186.051 324.09 186.051C318.287 186.051 313.575 190.763 313.575 196.565C313.575 202.368 318.287 207.08 324.09 207.08C324.89 207.08 345.977 207.08 356.802 207.08C358.351 207.08 359.837 206.464 360.933 205.37C362.028 204.274 362.643 202.788 362.643 201.239Z" fill="white"></path> <path d="M328.907 214.285L323.018 223.855" stroke="white" stroke-width="3" stroke-linecap="round"></path> <path d="M337.224 214.285L331.334 223.855" stroke="white" stroke-width="3" stroke-linecap="round"></path> <path d="M345.54 214.285L339.651 223.855" stroke="white" stroke-width="3" stroke-linecap="round"></path> <path d="M0 255H86.8694V273.405C86.8694 321.381 47.9766 360.274 0 360.274V360.274L0 255Z" fill="#004990"></path> <path d="M287 80.98L287 50.4285C287 22.5776 309.578 9.05658e-05 337.428 8.93484e-05V8.93484e-05C365.279 8.8131e-05 387.857 22.5777 387.857 50.4285L387.857 80.98L287 80.98Z" fill="#004990"></path> <path d="M326.41 42.6993C326.41 48.9877 331.508 54.0855 337.796 54.0855C344.085 54.0855 349.183 48.9877 349.183 42.6993C349.183 36.4108 344.085 31.313 337.796 31.313C331.508 31.313 326.41 36.4108 326.41 42.6993Z" fill="white"></path> <path fill-rule="evenodd" clip-rule="evenodd" d="M322.14 41.2759L317.87 41.2759C317.085 41.2759 316.447 41.9135 316.447 42.6992C316.447 43.4848 317.085 44.1224 317.87 44.1224L322.14 44.1224C322.926 44.1224 323.563 43.4848 323.563 42.6992C323.563 41.9135 322.926 41.2759 322.14 41.2759Z" fill="white"></path> <path fill-rule="evenodd" clip-rule="evenodd" d="M327.733 30.6226L324.714 27.6023C324.157 27.0473 323.256 27.0473 322.7 27.6023C322.145 28.1588 322.145 29.0598 322.7 29.6163L325.72 32.6351C326.275 33.1902 327.178 33.1902 327.733 32.6351C328.288 32.08 328.288 31.1776 327.733 30.6226Z" fill="white"></path> <path fill-rule="evenodd" clip-rule="evenodd" d="M339.22 27.0432L339.22 22.7734C339.22 21.9877 338.582 21.3501 337.796 21.3501C337.011 21.3501 336.373 21.9877 336.373 22.7734L336.373 27.0432C336.373 27.8289 337.011 28.4665 337.796 28.4665C338.582 28.4665 339.22 27.8289 339.22 27.0432Z" fill="white"></path> <path fill-rule="evenodd" clip-rule="evenodd" d="M349.873 32.6351L352.893 29.6163C353.448 29.0598 353.448 28.1588 352.893 27.6023C352.336 27.0473 351.435 27.0473 350.879 27.6023L347.86 30.6226C347.305 31.1776 347.305 32.08 347.86 32.6351C348.415 33.1902 349.317 33.1902 349.873 32.6351Z" fill="white"></path> <path fill-rule="evenodd" clip-rule="evenodd" d="M357.722 41.2759L353.452 41.2759C352.667 41.2759 352.029 41.9135 352.029 42.6992C352.029 43.4848 352.667 44.1224 353.452 44.1224L357.722 44.1224C358.508 44.1224 359.146 43.4848 359.146 42.6992C359.146 41.9135 358.508 41.2759 357.722 41.2759Z" fill="white"></path> <path fill-rule="evenodd" clip-rule="evenodd" d="M352.893 55.7813L349.873 52.7625C349.317 52.2074 348.415 52.2074 347.86 52.7625C347.305 53.3176 347.305 54.2199 347.86 54.775L350.879 57.7952C351.435 58.3503 352.336 58.3503 352.893 57.7952C353.448 57.2387 353.448 56.3378 352.893 55.7813Z" fill="white"></path> <path fill-rule="evenodd" clip-rule="evenodd" d="M339.22 62.6253L339.22 58.3554C339.22 57.5698 338.582 56.9321 337.796 56.9321C337.011 56.9321 336.373 57.5698 336.373 58.3554L336.373 62.6253C336.373 63.4109 337.011 64.0485 337.796 64.0485C338.582 64.0485 339.22 63.4109 339.22 62.6253Z" fill="white"></path> <path fill-rule="evenodd" clip-rule="evenodd" d="M324.714 57.7952L327.733 54.775C328.288 54.2199 328.288 53.3176 327.733 52.7625C327.178 52.2074 326.275 52.2074 325.72 52.7625L322.7 55.7813C322.145 56.3378 322.145 57.2387 322.7 57.7952C323.256 58.3503 324.157 58.3503 324.714 57.7952Z" fill="white"></path> <path d="M386 193H445.565C469.554 193 489 212.446 489 236.435V236.435C489 260.423 469.554 279.869 445.565 279.869H386V193Z" fill="#012B54"></path> <path d="M438.346 217.795L448.34 235.572C453.136 244.152 447.14 254.839 437.497 254.839C427.903 254.839 421.857 244.152 426.654 235.572L436.647 217.795C437.047 217.127 437.947 217.127 438.346 217.795Z" fill="white"></path> <path d="M204.5 168.034C204.5 156.615 195.209 147.362 183.75 147.362H183.724H183.698H183.673H183.647H183.621H183.595H183.57H183.544H183.518H183.492H183.466H183.44H183.415H183.389H183.363H183.337H183.311H183.285H183.259H183.233H183.208H183.182H183.156H183.13H183.104H183.078H183.052H183.026H183H182.974H182.948H182.922H182.896H182.87H182.844H182.818H182.792H182.766H182.74H182.714H182.688H182.662H182.636H182.61H182.584H182.558H182.532H182.506H182.48H182.454H182.428H182.401H182.375H182.349H182.323H182.297H182.271H182.245H182.219H182.193H182.166H182.14H182.114H182.088H182.062H182.036H182.009H181.983H181.957H181.931H181.905H181.879H181.852H181.826H181.8H181.774H181.747H181.721H181.695H181.669H181.643H181.616H181.59H181.564H181.538H181.511H181.485H181.459H181.432H181.406H181.38H181.354H181.327H181.301H181.275H181.248H181.222H181.196H181.169H181.143H181.117H181.09H181.064H181.038H181.011H180.985H180.959H180.932H180.906H180.879H180.853H180.827H180.8H180.774H180.748H180.721H180.695H180.668H180.642H180.616H180.589H180.563H180.536H180.51H180.483H180.457H180.431H180.404H180.378H180.351H180.325H180.298H180.272H180.245H180.219H180.192H180.166H180.14H180.113H180.087H180.06H180.034H180.007H179.981H179.954H179.928H179.901H179.875H179.848H179.822H179.795H179.769H179.742H179.715H179.689H179.662H179.636H179.609H179.583H179.556H179.53H179.503H179.477H179.45H179.424H179.397H179.37H179.344H179.317H179.291H179.264H179.238H179.211H179.184H179.158H179.131H179.105H179.078H179.052H179.025H178.998H178.972H178.945H178.919H178.892H178.865H178.839H178.812H178.786H178.759H178.732H178.706H178.679H178.652H178.626H178.599H178.573H178.546H178.519H178.493H178.466H178.439H178.413H178.386H178.36H178.333H178.306H178.28H178.253H178.226H178.2H178.173H178.146H178.12H178.093H178.067H178.04H178.013H177.987H177.96H177.933H177.907H177.88H177.853H177.827H177.8H177.773H177.747H177.72H177.693H177.667H177.64H177.613H177.587H177.56H177.533H177.507H177.48H177.453H177.427H177.4H177.373H177.347H177.32H177.293H177.267H177.24H177.213H177.187H177.16H177.133H177.107H177.08H177.053H177.027H177H176.973H176.947H176.92H176.893H176.867H176.84H176.813H176.787H176.76H176.733H176.707H176.68H176.653H176.627H176.6H176.573H176.547H176.52H176.493H176.467H176.44H176.413H176.387H176.36H176.333H176.307H176.28H176.253H176.227H176.2H176.173H176.147H176.12H176.093H176.067H176.04H176.013H175.987H175.96H175.933H175.907H175.88H175.854H175.827H175.8H175.774H175.747H175.72H175.694H175.667H175.64H175.614H175.587H175.561H175.534H175.507H175.481H175.454H175.427H175.401H175.374H175.348H175.321H175.294H175.268H175.241H175.214H175.188H175.161H175.135H175.108H175.081H175.055H175.028H175.002H174.975H174.948H174.922H174.895H174.869H174.842H174.816H174.789H174.762H174.736H174.709H174.683H174.656H174.63H174.603H174.576H174.55H174.523H174.497H174.47H174.444H174.417H174.391H174.364H174.338H174.311H174.285H174.258H174.231H174.205H174.178H174.152H174.125H174.099H174.072H174.046H174.019H173.993H173.966H173.94H173.913H173.887H173.86H173.834H173.808H173.781H173.755H173.728H173.702H173.675H173.649H173.622H173.596H173.569H173.543H173.517H173.49H173.464H173.437H173.411H173.384H173.358H173.332H173.305H173.279H173.252H173.226H173.2H173.173H173.147H173.121H173.094H173.068H173.041H173.015H172.989H172.962H172.936H172.91H172.883H172.857H172.831H172.804H172.778H172.752H172.725H172.699H172.673H172.646H172.62H172.594H172.568H172.541H172.515H172.489H172.462H172.436H172.41H172.384H172.357H172.331H172.305H172.279H172.253H172.226H172.2H172.174H172.148H172.121H172.095H172.069H172.043H172.017H171.991H171.964H171.938H171.912H171.886H171.86H171.834H171.807H171.781H171.755H171.729H171.703H171.677H171.651H171.625H171.599H171.572H171.546H171.52H171.494H171.468H171.442H171.416H171.39H171.364H171.338H171.312H171.286H171.26H171.234H171.208H171.182H171.156H171.13H171.104H171.078H171.052H171.026H171H170.974H170.948H170.922H170.896H170.87H170.844H170.818H170.792H170.767H170.741H170.715H170.689H170.663H170.637H170.611H170.585H170.56H170.534H170.508H170.482H170.456H170.43H170.405H170.379H170.353H170.327H170.302H170.276H170.25C158.791 147.362 149.5 156.615 149.5 168.034V172.517C149.5 175.272 151.739 177.5 154.5 177.5H199.5C202.261 177.5 204.5 175.272 204.5 172.517V168.034ZM155 172.017V172.015V172.007V172V171.992V171.985V171.977V171.97V171.962V171.954V171.947V171.939V171.932V171.924V171.917V171.909V171.901V171.894V171.886V171.879V171.871V171.863V171.856V171.848V171.84V171.833V171.825V171.817V171.81V171.802V171.794V171.787V171.779V171.771V171.763V171.756V171.748V171.74V171.732V171.725V171.717V171.709V171.701V171.693V171.686V171.678V171.67V171.662V171.654V171.646V171.639V171.631V171.623V171.615V171.607V171.599V171.591V171.583V171.575V171.567V171.56V171.552V171.544V171.536V171.528V171.52V171.512V171.504V171.496V171.488V171.48V171.472V171.464V171.456V171.448V171.44V171.431V171.423V171.415V171.407V171.399V171.391V171.383V171.375V171.367V171.359V171.35V171.342V171.334V171.326V171.318V171.31V171.302V171.293V171.285V171.277V171.269V171.26V171.252V171.244V171.236V171.228V171.219V171.211V171.203V171.194V171.186V171.178V171.17V171.161V171.153V171.145V171.136V171.128V171.12V171.111V171.103V171.095V171.086V171.078V171.069V171.061V171.053V171.044V171.036V171.027V171.019V171.011V171.002V170.994V170.985V170.977V170.968V170.96V170.951V170.943V170.934V170.926V170.917V170.909V170.9V170.892V170.883V170.875V170.866V170.858V170.849V170.84V170.832V170.823V170.815V170.806V170.797V170.789V170.78V170.772V170.763V170.754V170.746V170.737V170.728V170.72V170.711V170.702V170.694V170.685V170.676V170.668V170.659V170.65V170.641V170.633V170.624V170.615V170.606V170.598V170.589V170.58V170.571V170.562V170.554V170.545V170.536V170.527V170.518V170.51V170.501V170.492V170.483V170.474V170.465V170.456V170.448V170.439V170.43V170.421V170.412V170.403V170.394V170.385V170.376V170.367V170.358V170.349V170.341V170.332V170.323V170.314V170.305V170.296V170.287V170.278V170.269V170.26V170.251V170.242V170.233V170.223V170.214V170.205V170.196V170.187V170.178V170.169V170.16V170.151V170.142V170.133V170.124V170.115V170.105V170.096V170.087V170.078V170.069V170.06V170.051V170.041V170.032V170.023V170.014V170.005V169.995V169.986V169.977V169.968V169.959V169.949V169.94V169.931V169.922V169.912V169.903V169.894V169.885V169.875V169.866V169.857V169.848V169.838V169.829V169.82V169.81V169.801V169.792V169.782V169.773V169.764V169.754V169.745V169.736V169.726V169.717V169.707V169.698V169.689V169.679V169.67V169.66V169.651V169.642V169.632V169.623V169.613V169.604V169.594V169.585V169.575V169.566V169.557V169.547V169.538V169.528V169.519V169.509V169.5V169.49V169.481V169.471V169.461V169.452V169.442V169.433V169.423V169.414V169.404V169.395V169.385V169.375V169.366V169.356V169.347V169.337V169.327V169.318V169.308V169.299V169.289V169.279V169.27V169.26V169.25V169.241V169.231V169.221V169.212V169.202V169.192V169.183V169.173V169.163V169.154V169.144V169.134V169.124V169.115V169.105V169.095V169.085V169.076V169.066V169.056V169.046V169.037V169.027V169.017V169.007V168.998V168.988V168.978V168.968V168.958V168.949V168.939V168.929V168.919V168.909V168.899V168.89V168.88V168.87V168.86V168.85V168.84V168.83V168.82V168.811V168.801V168.791V168.781V168.771V168.761V168.751V168.741V168.731V168.721V168.711V168.701V168.691V168.682V168.672V168.662V168.652V168.642V168.632V168.622V168.612V168.602V168.592V168.582V168.572V168.562V168.552V168.542V168.532V168.522V168.512V168.501V168.491V168.481V168.471V168.461V168.451V168.441V168.431V168.421V168.411V168.401V168.391V168.381V168.371V168.36V168.35V168.34V168.33V168.32V168.31V168.3V168.29V168.279V168.269V168.259V168.249V168.239V168.229V168.218V168.208V168.198V168.188V168.178V168.167V168.157V168.147V168.137V168.127V168.116V168.106V168.096V168.086V168.075V168.065V168.055V168.045V168.034C155 159.647 161.826 152.845 170.25 152.845H170.276H170.302H170.327H170.353H170.379H170.405H170.43H170.456H170.482H170.508H170.534H170.56H170.585H170.611H170.637H170.663H170.689H170.715H170.741H170.767H170.792H170.818H170.844H170.87H170.896H170.922H170.948H170.974H171H171.026H171.052H171.078H171.104H171.13H171.156H171.182H171.208H171.234H171.26H171.286H171.312H171.338H171.364H171.39H171.416H171.442H171.468H171.494H171.52H171.546H171.572H171.599H171.625H171.651H171.677H171.703H171.729H171.755H171.781H171.807H171.834H171.86H171.886H171.912H171.938H171.964H171.991H172.017H172.043H172.069H172.095H172.121H172.148H172.174H172.2H172.226H172.253H172.279H172.305H172.331H172.357H172.384H172.41H172.436H172.462H172.489H172.515H172.541H172.568H172.594H172.62H172.646H172.673H172.699H172.725H172.752H172.778H172.804H172.831H172.857H172.883H172.91H172.936H172.962H172.989H173.015H173.041H173.068H173.094H173.121H173.147H173.173H173.2H173.226H173.252H173.279H173.305H173.332H173.358H173.384H173.411H173.437H173.464H173.49H173.517H173.543H173.569H173.596H173.622H173.649H173.675H173.702H173.728H173.755H173.781H173.808H173.834H173.86H173.887H173.913H173.94H173.966H173.993H174.019H174.046H174.072H174.099H174.125H174.152H174.178H174.205H174.231H174.258H174.285H174.311H174.338H174.364H174.391H174.417H174.444H174.47H174.497H174.523H174.55H174.576H174.603H174.63H174.656H174.683H174.709H174.736H174.762H174.789H174.816H174.842H174.869H174.895H174.922H174.948H174.975H175.002H175.028H175.055H175.081H175.108H175.135H175.161H175.188H175.214H175.241H175.268H175.294H175.321H175.348H175.374H175.401H175.427H175.454H175.481H175.507H175.534H175.561H175.587H175.614H175.64H175.667H175.694H175.72H175.747H175.774H175.8H175.827H175.854H175.88H175.907H175.933H175.96H175.987H176.013H176.04H176.067H176.093H176.12H176.147H176.173H176.2H176.227H176.253H176.28H176.307H176.333H176.36H176.387H176.413H176.44H176.467H176.493H176.52H176.547H176.573H176.6H176.627H176.653H176.68H176.707H176.733H176.76H176.787H176.813H176.84H176.867H176.893H176.92H176.947H176.973H177H177.027H177.053H177.08H177.107H177.133H177.16H177.187H177.213H177.24H177.267H177.293H177.32H177.347H177.373H177.4H177.427H177.453H177.48H177.507H177.533H177.56H177.587H177.613H177.64H177.667H177.693H177.72H177.747H177.773H177.8H177.827H177.853H177.88H177.907H177.933H177.96H177.987H178.013H178.04H178.067H178.093H178.12H178.146H178.173H178.2H178.226H178.253H178.28H178.306H178.333H178.36H178.386H178.413H178.439H178.466H178.493H178.519H178.546H178.573H178.599H178.626H178.652H178.679H178.706H178.732H178.759H178.786H178.812H178.839H178.865H178.892H178.919H178.945H178.972H178.998H179.025H179.052H179.078H179.105H179.131H179.158H179.184H179.211H179.238H179.264H179.291H179.317H179.344H179.37H179.397H179.424H179.45H179.477H179.503H179.53H179.556H179.583H179.609H179.636H179.662H179.689H179.715H179.742H179.769H179.795H179.822H179.848H179.875H179.901H179.928H179.954H179.981H180.007H180.034H180.06H180.087H180.113H180.14H180.166H180.192H180.219H180.245H180.272H180.298H180.325H180.351H180.378H180.404H180.431H180.457H180.483H180.51H180.536H180.563H180.589H180.616H180.642H180.668H180.695H180.721H180.748H180.774H180.8H180.827H180.853H180.879H180.906H180.932H180.959H180.985H181.011H181.038H181.064H181.09H181.117H181.143H181.169H181.196H181.222H181.248H181.275H181.301H181.327H181.354H181.38H181.406H181.432H181.459H181.485H181.511H181.538H181.564H181.59H181.616H181.643H181.669H181.695H181.721H181.747H181.774H181.8H181.826H181.852H181.879H181.905H181.931H181.957H181.983H182.009H182.036H182.062H182.088H182.114H182.14H182.166H182.193H182.219H182.245H182.271H182.297H182.323H182.349H182.375H182.401H182.428H182.454H182.48H182.506H182.532H182.558H182.584H182.61H182.636H182.662H182.688H182.714H182.74H182.766H182.792H182.818H182.844H182.87H182.896H182.922H182.948H182.974H183H183.026H183.052H183.078H183.104H183.13H183.156H183.182H183.208H183.233H183.259H183.285H183.311H183.337H183.363H183.389H183.415H183.44H183.466H183.492H183.518H183.544H183.57H183.595H183.621H183.647H183.673H183.698H183.724H183.75C192.174 152.845 199 159.647 199 168.034V172.017H155ZM177 111.5C168.034 111.5 160.75 118.753 160.75 127.69C160.75 136.626 168.034 143.879 177 143.879C185.966 143.879 193.25 136.626 193.25 127.69C193.25 118.753 185.966 111.5 177 111.5ZM177 116.983C182.936 116.983 187.75 121.781 187.75 127.69C187.75 133.598 182.936 138.397 177 138.397C171.064 138.397 166.25 133.598 166.25 127.69C166.25 121.781 171.064 116.983 177 116.983Z" fill="white" stroke="white"></path> <path d="M175.5 240.034C175.5 228.606 166.033 219.362 154.375 219.362H154.349H154.323H154.296H154.27H154.244H154.217H154.191H154.165H154.139H154.112H154.086H154.06H154.033H154.007H153.981H153.954H153.928H153.902H153.875H153.849H153.822H153.796H153.77H153.743H153.717H153.69H153.664H153.638H153.611H153.585H153.558H153.532H153.505H153.479H153.452H153.426H153.399H153.373H153.347H153.32H153.293H153.267H153.24H153.214H153.187H153.161H153.134H153.108H153.081H153.055H153.028H153.002H152.975H152.948H152.922H152.895H152.869H152.842H152.815H152.789H152.762H152.735H152.709H152.682H152.656H152.629H152.602H152.576H152.549H152.522H152.496H152.469H152.442H152.415H152.389H152.362H152.335H152.309H152.282H152.255H152.229H152.202H152.175H152.148H152.122H152.095H152.068H152.041H152.014H151.988H151.961H151.934H151.907H151.881H151.854H151.827H151.8H151.773H151.747H151.72H151.693H151.666H151.639H151.612H151.586H151.559H151.532H151.505H151.478H151.451H151.424H151.398H151.371H151.344H151.317H151.29H151.263H151.236H151.209H151.182H151.156H151.129H151.102H151.075H151.048H151.021H150.994H150.967H150.94H150.913H150.886H150.859H150.832H150.805H150.779H150.752H150.725H150.698H150.671H150.644H150.617H150.59H150.563H150.536H150.509H150.482H150.455H150.428H150.401H150.374H150.347H150.32H150.293H150.266H150.239H150.212H150.185H150.158H150.131H150.104H150.077H150.05H150.022H149.995H149.968H149.941H149.914H149.887H149.86H149.833H149.806H149.779H149.752H149.725H149.698H149.671H149.644H149.617H149.59H149.562H149.535H149.508H149.481H149.454H149.427H149.4H149.373H149.346H149.319H149.291H149.264H149.237H149.21H149.183H149.156H149.129H149.102H149.075H149.047H149.02H148.993H148.966H148.939H148.912H148.885H148.858H148.83H148.803H148.776H148.749H148.722H148.695H148.668H148.641H148.613H148.586H148.559H148.532H148.505H148.478H148.451H148.423H148.396H148.369H148.342H148.315H148.288H148.26H148.233H148.206H148.179H148.152H148.125H148.098H148.07H148.043H148.016H147.989H147.962H147.935H147.907H147.88H147.853H147.826H147.799H147.772H147.744H147.717H147.69H147.663H147.636H147.609H147.581H147.554H147.527H147.5H147.473H147.446H147.419H147.391H147.364H147.337H147.31H147.283H147.256H147.228H147.201H147.174H147.147H147.12H147.093H147.065H147.038H147.011H146.984H146.957H146.93H146.902H146.875H146.848H146.821H146.794H146.767H146.74H146.712H146.685H146.658H146.631H146.604H146.577H146.549H146.522H146.495H146.468H146.441H146.414H146.387H146.359H146.332H146.305H146.278H146.251H146.224H146.197H146.17H146.142H146.115H146.088H146.061H146.034H146.007H145.98H145.953H145.925H145.898H145.871H145.844H145.817H145.79H145.763H145.736H145.709H145.681H145.654H145.627H145.6H145.573H145.546H145.519H145.492H145.465H145.438H145.411H145.383H145.356H145.329H145.302H145.275H145.248H145.221H145.194H145.167H145.14H145.113H145.086H145.059H145.032H145.005H144.978H144.95H144.923H144.896H144.869H144.842H144.815H144.788H144.761H144.734H144.707H144.68H144.653H144.626H144.599H144.572H144.545H144.518H144.491H144.464H144.437H144.41H144.383H144.356H144.329H144.302H144.275H144.248H144.221H144.195H144.168H144.141H144.114H144.087H144.06H144.033H144.006H143.979H143.952H143.925H143.898H143.871H143.844H143.818H143.791H143.764H143.737H143.71H143.683H143.656H143.629H143.602H143.576H143.549H143.522H143.495H143.468H143.441H143.414H143.388H143.361H143.334H143.307H143.28H143.253H143.227H143.2H143.173H143.146H143.119H143.093H143.066H143.039H143.012H142.986H142.959H142.932H142.905H142.878H142.852H142.825H142.798H142.772H142.745H142.718H142.691H142.665H142.638H142.611H142.585H142.558H142.531H142.504H142.478H142.451H142.424H142.398H142.371H142.344H142.318H142.291H142.265H142.238H142.211H142.185H142.158H142.131H142.105H142.078H142.052H142.025H141.998H141.972H141.945H141.919H141.892H141.866H141.839H141.813H141.786H141.76H141.733H141.707H141.68H141.653H141.627H141.601H141.574H141.548H141.521H141.495H141.468H141.442H141.415H141.389H141.362H141.336H141.31H141.283H141.257H141.23H141.204H141.178H141.151H141.125H141.098H141.072H141.046H141.019H140.993H140.967H140.94H140.914H140.888H140.861H140.835H140.809H140.783H140.756H140.73H140.704H140.677H140.651H140.625C128.967 219.362 119.5 228.606 119.5 240.034V244.517C119.5 247.281 121.785 249.5 124.583 249.5H170.417C173.215 249.5 175.5 247.281 175.5 244.517V240.034ZM125.083 244.017V244.015V244.007V244V243.992V243.985V243.977V243.97V243.962V243.954V243.947V243.939V243.932V243.924V243.917V243.909V243.901V243.894V243.886V243.879V243.871V243.863V243.856V243.848V243.84V243.833V243.825V243.817V243.81V243.802V243.794V243.787V243.779V243.771V243.763V243.756V243.748V243.74V243.732V243.725V243.717V243.709V243.701V243.693V243.686V243.678V243.67V243.662V243.654V243.646V243.639V243.631V243.623V243.615V243.607V243.599V243.591V243.583V243.575V243.567V243.56V243.552V243.544V243.536V243.528V243.52V243.512V243.504V243.496V243.488V243.48V243.472V243.464V243.456V243.448V243.44V243.431V243.423V243.415V243.407V243.399V243.391V243.383V243.375V243.367V243.359V243.35V243.342V243.334V243.326V243.318V243.31V243.302V243.293V243.285V243.277V243.269V243.26V243.252V243.244V243.236V243.228V243.219V243.211V243.203V243.194V243.186V243.178V243.17V243.161V243.153V243.145V243.136V243.128V243.12V243.111V243.103V243.095V243.086V243.078V243.069V243.061V243.053V243.044V243.036V243.027V243.019V243.011V243.002V242.994V242.985V242.977V242.968V242.96V242.951V242.943V242.934V242.926V242.917V242.909V242.9V242.892V242.883V242.875V242.866V242.858V242.849V242.84V242.832V242.823V242.815V242.806V242.797V242.789V242.78V242.772V242.763V242.754V242.746V242.737V242.728V242.72V242.711V242.702V242.694V242.685V242.676V242.668V242.659V242.65V242.641V242.633V242.624V242.615V242.606V242.598V242.589V242.58V242.571V242.562V242.554V242.545V242.536V242.527V242.518V242.51V242.501V242.492V242.483V242.474V242.465V242.456V242.448V242.439V242.43V242.421V242.412V242.403V242.394V242.385V242.376V242.367V242.358V242.349V242.341V242.332V242.323V242.314V242.305V242.296V242.287V242.278V242.269V242.26V242.251V242.242V242.233V242.223V242.214V242.205V242.196V242.187V242.178V242.169V242.16V242.151V242.142V242.133V242.124V242.115V242.105V242.096V242.087V242.078V242.069V242.06V242.051V242.041V242.032V242.023V242.014V242.005V241.995V241.986V241.977V241.968V241.959V241.949V241.94V241.931V241.922V241.912V241.903V241.894V241.885V241.875V241.866V241.857V241.848V241.838V241.829V241.82V241.81V241.801V241.792V241.782V241.773V241.764V241.754V241.745V241.736V241.726V241.717V241.707V241.698V241.689V241.679V241.67V241.66V241.651V241.642V241.632V241.623V241.613V241.604V241.594V241.585V241.575V241.566V241.557V241.547V241.538V241.528V241.519V241.509V241.5V241.49V241.481V241.471V241.461V241.452V241.442V241.433V241.423V241.414V241.404V241.395V241.385V241.375V241.366V241.356V241.347V241.337V241.327V241.318V241.308V241.299V241.289V241.279V241.27V241.26V241.25V241.241V241.231V241.221V241.212V241.202V241.192V241.183V241.173V241.163V241.154V241.144V241.134V241.124V241.115V241.105V241.095V241.085V241.076V241.066V241.056V241.046V241.037V241.027V241.017V241.007V240.998V240.988V240.978V240.968V240.958V240.949V240.939V240.929V240.919V240.909V240.899V240.89V240.88V240.87V240.86V240.85V240.84V240.83V240.82V240.811V240.801V240.791V240.781V240.771V240.761V240.751V240.741V240.731V240.721V240.711V240.701V240.691V240.682V240.672V240.662V240.652V240.642V240.632V240.622V240.612V240.602V240.592V240.582V240.572V240.562V240.552V240.542V240.532V240.522V240.512V240.501V240.491V240.481V240.471V240.461V240.451V240.441V240.431V240.421V240.411V240.401V240.391V240.381V240.371V240.36V240.35V240.34V240.33V240.32V240.31V240.3V240.29V240.279V240.269V240.259V240.249V240.239V240.229V240.218V240.208V240.198V240.188V240.178V240.167V240.157V240.147V240.137V240.127V240.116V240.106V240.096V240.086V240.075V240.065V240.055V240.045V240.034C125.083 231.656 132.031 224.845 140.625 224.845H140.651H140.677H140.704H140.73H140.756H140.783H140.809H140.835H140.861H140.888H140.914H140.94H140.967H140.993H141.019H141.046H141.072H141.098H141.125H141.151H141.178H141.204H141.23H141.257H141.283H141.31H141.336H141.362H141.389H141.415H141.442H141.468H141.495H141.521H141.548H141.574H141.601H141.627H141.653H141.68H141.707H141.733H141.76H141.786H141.813H141.839H141.866H141.892H141.919H141.945H141.972H141.998H142.025H142.052H142.078H142.105H142.131H142.158H142.185H142.211H142.238H142.265H142.291H142.318H142.344H142.371H142.398H142.424H142.451H142.478H142.504H142.531H142.558H142.585H142.611H142.638H142.665H142.691H142.718H142.745H142.772H142.798H142.825H142.852H142.878H142.905H142.932H142.959H142.986H143.012H143.039H143.066H143.093H143.119H143.146H143.173H143.2H143.227H143.253H143.28H143.307H143.334H143.361H143.388H143.414H143.441H143.468H143.495H143.522H143.549H143.576H143.602H143.629H143.656H143.683H143.71H143.737H143.764H143.791H143.818H143.844H143.871H143.898H143.925H143.952H143.979H144.006H144.033H144.06H144.087H144.114H144.141H144.168H144.195H144.221H144.248H144.275H144.302H144.329H144.356H144.383H144.41H144.437H144.464H144.491H144.518H144.545H144.572H144.599H144.626H144.653H144.68H144.707H144.734H144.761H144.788H144.815H144.842H144.869H144.896H144.923H144.95H144.978H145.005H145.032H145.059H145.086H145.113H145.14H145.167H145.194H145.221H145.248H145.275H145.302H145.329H145.356H145.383H145.411H145.438H145.465H145.492H145.519H145.546H145.573H145.6H145.627H145.654H145.681H145.709H145.736H145.763H145.79H145.817H145.844H145.871H145.898H145.925H145.953H145.98H146.007H146.034H146.061H146.088H146.115H146.142H146.17H146.197H146.224H146.251H146.278H146.305H146.332H146.359H146.387H146.414H146.441H146.468H146.495H146.522H146.549H146.577H146.604H146.631H146.658H146.685H146.712H146.74H146.767H146.794H146.821H146.848H146.875H146.902H146.93H146.957H146.984H147.011H147.038H147.065H147.093H147.12H147.147H147.174H147.201H147.228H147.256H147.283H147.31H147.337H147.364H147.391H147.419H147.446H147.473H147.5H147.527H147.554H147.581H147.609H147.636H147.663H147.69H147.717H147.744H147.772H147.799H147.826H147.853H147.88H147.907H147.935H147.962H147.989H148.016H148.043H148.07H148.098H148.125H148.152H148.179H148.206H148.233H148.26H148.288H148.315H148.342H148.369H148.396H148.423H148.451H148.478H148.505H148.532H148.559H148.586H148.613H148.641H148.668H148.695H148.722H148.749H148.776H148.803H148.83H148.858H148.885H148.912H148.939H148.966H148.993H149.02H149.047H149.075H149.102H149.129H149.156H149.183H149.21H149.237H149.264H149.291H149.319H149.346H149.373H149.4H149.427H149.454H149.481H149.508H149.535H149.562H149.59H149.617H149.644H149.671H149.698H149.725H149.752H149.779H149.806H149.833H149.86H149.887H149.914H149.941H149.968H149.995H150.022H150.05H150.077H150.104H150.131H150.158H150.185H150.212H150.239H150.266H150.293H150.32H150.347H150.374H150.401H150.428H150.455H150.482H150.509H150.536H150.563H150.59H150.617H150.644H150.671H150.698H150.725H150.752H150.779H150.805H150.832H150.859H150.886H150.913H150.94H150.967H150.994H151.021H151.048H151.075H151.102H151.129H151.156H151.182H151.209H151.236H151.263H151.29H151.317H151.344H151.371H151.398H151.424H151.451H151.478H151.505H151.532H151.559H151.586H151.612H151.639H151.666H151.693H151.72H151.747H151.773H151.8H151.827H151.854H151.881H151.907H151.934H151.961H151.988H152.014H152.041H152.068H152.095H152.122H152.148H152.175H152.202H152.229H152.255H152.282H152.309H152.335H152.362H152.389H152.415H152.442H152.469H152.496H152.522H152.549H152.576H152.602H152.629H152.656H152.682H152.709H152.735H152.762H152.789H152.815H152.842H152.869H152.895H152.922H152.948H152.975H153.002H153.028H153.055H153.081H153.108H153.134H153.161H153.187H153.214H153.24H153.267H153.293H153.32H153.347H153.373H153.399H153.426H153.452H153.479H153.505H153.532H153.558H153.585H153.611H153.638H153.664H153.69H153.717H153.743H153.77H153.796H153.822H153.849H153.875H153.902H153.928H153.954H153.981H154.007H154.033H154.06H154.086H154.112H154.139H154.165H154.191H154.217H154.244H154.27H154.296H154.323H154.349H154.375C162.969 224.845 169.917 231.656 169.917 240.034V244.017H125.083ZM147.5 183.5C138.382 183.5 130.958 190.745 130.958 199.69C130.958 208.635 138.382 215.879 147.5 215.879C156.618 215.879 164.042 208.635 164.042 199.69C164.042 190.745 156.618 183.5 147.5 183.5ZM147.5 188.983C153.559 188.983 158.458 193.79 158.458 199.69C158.458 205.589 153.559 210.397 147.5 210.397C141.441 210.397 136.542 205.589 136.542 199.69C136.542 193.79 141.441 188.983 147.5 188.983Z" fill="white" stroke="white"></path> <path d="M234.5 240.034C234.5 228.606 225.033 219.362 213.375 219.362H213.349H213.323H213.296H213.27H213.244H213.217H213.191H213.165H213.139H213.112H213.086H213.06H213.033H213.007H212.981H212.954H212.928H212.902H212.875H212.849H212.822H212.796H212.77H212.743H212.717H212.69H212.664H212.638H212.611H212.585H212.558H212.532H212.505H212.479H212.452H212.426H212.399H212.373H212.347H212.32H212.293H212.267H212.24H212.214H212.187H212.161H212.134H212.108H212.081H212.055H212.028H212.002H211.975H211.948H211.922H211.895H211.869H211.842H211.815H211.789H211.762H211.735H211.709H211.682H211.656H211.629H211.602H211.576H211.549H211.522H211.496H211.469H211.442H211.415H211.389H211.362H211.335H211.309H211.282H211.255H211.229H211.202H211.175H211.148H211.122H211.095H211.068H211.041H211.014H210.988H210.961H210.934H210.907H210.881H210.854H210.827H210.8H210.773H210.747H210.72H210.693H210.666H210.639H210.612H210.586H210.559H210.532H210.505H210.478H210.451H210.424H210.398H210.371H210.344H210.317H210.29H210.263H210.236H210.209H210.182H210.156H210.129H210.102H210.075H210.048H210.021H209.994H209.967H209.94H209.913H209.886H209.859H209.832H209.805H209.779H209.752H209.725H209.698H209.671H209.644H209.617H209.59H209.563H209.536H209.509H209.482H209.455H209.428H209.401H209.374H209.347H209.32H209.293H209.266H209.239H209.212H209.185H209.158H209.131H209.104H209.077H209.05H209.022H208.995H208.968H208.941H208.914H208.887H208.86H208.833H208.806H208.779H208.752H208.725H208.698H208.671H208.644H208.617H208.59H208.562H208.535H208.508H208.481H208.454H208.427H208.4H208.373H208.346H208.319H208.291H208.264H208.237H208.21H208.183H208.156H208.129H208.102H208.075H208.047H208.02H207.993H207.966H207.939H207.912H207.885H207.858H207.83H207.803H207.776H207.749H207.722H207.695H207.668H207.641H207.613H207.586H207.559H207.532H207.505H207.478H207.451H207.423H207.396H207.369H207.342H207.315H207.288H207.26H207.233H207.206H207.179H207.152H207.125H207.098H207.07H207.043H207.016H206.989H206.962H206.935H206.907H206.88H206.853H206.826H206.799H206.772H206.744H206.717H206.69H206.663H206.636H206.609H206.581H206.554H206.527H206.5H206.473H206.446H206.419H206.391H206.364H206.337H206.31H206.283H206.256H206.228H206.201H206.174H206.147H206.12H206.093H206.065H206.038H206.011H205.984H205.957H205.93H205.902H205.875H205.848H205.821H205.794H205.767H205.74H205.712H205.685H205.658H205.631H205.604H205.577H205.549H205.522H205.495H205.468H205.441H205.414H205.387H205.359H205.332H205.305H205.278H205.251H205.224H205.197H205.17H205.142H205.115H205.088H205.061H205.034H205.007H204.98H204.953H204.925H204.898H204.871H204.844H204.817H204.79H204.763H204.736H204.709H204.681H204.654H204.627H204.6H204.573H204.546H204.519H204.492H204.465H204.438H204.411H204.383H204.356H204.329H204.302H204.275H204.248H204.221H204.194H204.167H204.14H204.113H204.086H204.059H204.032H204.005H203.978H203.95H203.923H203.896H203.869H203.842H203.815H203.788H203.761H203.734H203.707H203.68H203.653H203.626H203.599H203.572H203.545H203.518H203.491H203.464H203.437H203.41H203.383H203.356H203.329H203.302H203.275H203.248H203.221H203.195H203.168H203.141H203.114H203.087H203.06H203.033H203.006H202.979H202.952H202.925H202.898H202.871H202.844H202.818H202.791H202.764H202.737H202.71H202.683H202.656H202.629H202.602H202.576H202.549H202.522H202.495H202.468H202.441H202.414H202.388H202.361H202.334H202.307H202.28H202.253H202.227H202.2H202.173H202.146H202.119H202.093H202.066H202.039H202.012H201.986H201.959H201.932H201.905H201.878H201.852H201.825H201.798H201.772H201.745H201.718H201.691H201.665H201.638H201.611H201.585H201.558H201.531H201.504H201.478H201.451H201.424H201.398H201.371H201.344H201.318H201.291H201.265H201.238H201.211H201.185H201.158H201.131H201.105H201.078H201.052H201.025H200.998H200.972H200.945H200.919H200.892H200.866H200.839H200.813H200.786H200.76H200.733H200.707H200.68H200.653H200.627H200.601H200.574H200.548H200.521H200.495H200.468H200.442H200.415H200.389H200.362H200.336H200.31H200.283H200.257H200.23H200.204H200.178H200.151H200.125H200.098H200.072H200.046H200.019H199.993H199.967H199.94H199.914H199.888H199.861H199.835H199.809H199.783H199.756H199.73H199.704H199.677H199.651H199.625C187.967 219.362 178.5 228.606 178.5 240.034V244.517C178.5 247.281 180.785 249.5 183.583 249.5H229.417C232.215 249.5 234.5 247.281 234.5 244.517V240.034ZM184.083 244.017V244.015V244.007V244V243.992V243.985V243.977V243.97V243.962V243.954V243.947V243.939V243.932V243.924V243.917V243.909V243.901V243.894V243.886V243.879V243.871V243.863V243.856V243.848V243.84V243.833V243.825V243.817V243.81V243.802V243.794V243.787V243.779V243.771V243.763V243.756V243.748V243.74V243.732V243.725V243.717V243.709V243.701V243.693V243.686V243.678V243.67V243.662V243.654V243.646V243.639V243.631V243.623V243.615V243.607V243.599V243.591V243.583V243.575V243.567V243.56V243.552V243.544V243.536V243.528V243.52V243.512V243.504V243.496V243.488V243.48V243.472V243.464V243.456V243.448V243.44V243.431V243.423V243.415V243.407V243.399V243.391V243.383V243.375V243.367V243.359V243.35V243.342V243.334V243.326V243.318V243.31V243.302V243.293V243.285V243.277V243.269V243.26V243.252V243.244V243.236V243.228V243.219V243.211V243.203V243.194V243.186V243.178V243.17V243.161V243.153V243.145V243.136V243.128V243.12V243.111V243.103V243.095V243.086V243.078V243.069V243.061V243.053V243.044V243.036V243.027V243.019V243.011V243.002V242.994V242.985V242.977V242.968V242.96V242.951V242.943V242.934V242.926V242.917V242.909V242.9V242.892V242.883V242.875V242.866V242.858V242.849V242.84V242.832V242.823V242.815V242.806V242.797V242.789V242.78V242.772V242.763V242.754V242.746V242.737V242.728V242.72V242.711V242.702V242.694V242.685V242.676V242.668V242.659V242.65V242.641V242.633V242.624V242.615V242.606V242.598V242.589V242.58V242.571V242.562V242.554V242.545V242.536V242.527V242.518V242.51V242.501V242.492V242.483V242.474V242.465V242.456V242.448V242.439V242.43V242.421V242.412V242.403V242.394V242.385V242.376V242.367V242.358V242.349V242.341V242.332V242.323V242.314V242.305V242.296V242.287V242.278V242.269V242.26V242.251V242.242V242.233V242.223V242.214V242.205V242.196V242.187V242.178V242.169V242.16V242.151V242.142V242.133V242.124V242.115V242.105V242.096V242.087V242.078V242.069V242.06V242.051V242.041V242.032V242.023V242.014V242.005V241.995V241.986V241.977V241.968V241.959V241.949V241.94V241.931V241.922V241.912V241.903V241.894V241.885V241.875V241.866V241.857V241.848V241.838V241.829V241.82V241.81V241.801V241.792V241.782V241.773V241.764V241.754V241.745V241.736V241.726V241.717V241.707V241.698V241.689V241.679V241.67V241.66V241.651V241.642V241.632V241.623V241.613V241.604V241.594V241.585V241.575V241.566V241.557V241.547V241.538V241.528V241.519V241.509V241.5V241.49V241.481V241.471V241.461V241.452V241.442V241.433V241.423V241.414V241.404V241.395V241.385V241.375V241.366V241.356V241.347V241.337V241.327V241.318V241.308V241.299V241.289V241.279V241.27V241.26V241.25V241.241V241.231V241.221V241.212V241.202V241.192V241.183V241.173V241.163V241.154V241.144V241.134V241.124V241.115V241.105V241.095V241.085V241.076V241.066V241.056V241.046V241.037V241.027V241.017V241.007V240.998V240.988V240.978V240.968V240.958V240.949V240.939V240.929V240.919V240.909V240.899V240.89V240.88V240.87V240.86V240.85V240.84V240.83V240.82V240.811V240.801V240.791V240.781V240.771V240.761V240.751V240.741V240.731V240.721V240.711V240.701V240.691V240.682V240.672V240.662V240.652V240.642V240.632V240.622V240.612V240.602V240.592V240.582V240.572V240.562V240.552V240.542V240.532V240.522V240.512V240.501V240.491V240.481V240.471V240.461V240.451V240.441V240.431V240.421V240.411V240.401V240.391V240.381V240.371V240.36V240.35V240.34V240.33V240.32V240.31V240.3V240.29V240.279V240.269V240.259V240.249V240.239V240.229V240.218V240.208V240.198V240.188V240.178V240.167V240.157V240.147V240.137V240.127V240.116V240.106V240.096V240.086V240.075V240.065V240.055V240.045V240.034C184.083 231.656 191.031 224.845 199.625 224.845H199.651H199.677H199.704H199.73H199.756H199.783H199.809H199.835H199.861H199.888H199.914H199.94H199.967H199.993H200.019H200.046H200.072H200.098H200.125H200.151H200.178H200.204H200.23H200.257H200.283H200.31H200.336H200.362H200.389H200.415H200.442H200.468H200.495H200.521H200.548H200.574H200.601H200.627H200.653H200.68H200.707H200.733H200.76H200.786H200.813H200.839H200.866H200.892H200.919H200.945H200.972H200.998H201.025H201.052H201.078H201.105H201.131H201.158H201.185H201.211H201.238H201.265H201.291H201.318H201.344H201.371H201.398H201.424H201.451H201.478H201.504H201.531H201.558H201.585H201.611H201.638H201.665H201.691H201.718H201.745H201.772H201.798H201.825H201.852H201.878H201.905H201.932H201.959H201.986H202.012H202.039H202.066H202.093H202.119H202.146H202.173H202.2H202.227H202.253H202.28H202.307H202.334H202.361H202.388H202.414H202.441H202.468H202.495H202.522H202.549H202.576H202.602H202.629H202.656H202.683H202.71H202.737H202.764H202.791H202.818H202.844H202.871H202.898H202.925H202.952H202.979H203.006H203.033H203.06H203.087H203.114H203.141H203.168H203.195H203.221H203.248H203.275H203.302H203.329H203.356H203.383H203.41H203.437H203.464H203.491H203.518H203.545H203.572H203.599H203.626H203.653H203.68H203.707H203.734H203.761H203.788H203.815H203.842H203.869H203.896H203.923H203.95H203.978H204.005H204.032H204.059H204.086H204.113H204.14H204.167H204.194H204.221H204.248H204.275H204.302H204.329H204.356H204.383H204.411H204.438H204.465H204.492H204.519H204.546H204.573H204.6H204.627H204.654H204.681H204.709H204.736H204.763H204.79H204.817H204.844H204.871H204.898H204.925H204.953H204.98H205.007H205.034H205.061H205.088H205.115H205.142H205.17H205.197H205.224H205.251H205.278H205.305H205.332H205.359H205.387H205.414H205.441H205.468H205.495H205.522H205.549H205.577H205.604H205.631H205.658H205.685H205.712H205.74H205.767H205.794H205.821H205.848H205.875H205.902H205.93H205.957H205.984H206.011H206.038H206.065H206.093H206.12H206.147H206.174H206.201H206.228H206.256H206.283H206.31H206.337H206.364H206.391H206.419H206.446H206.473H206.5H206.527H206.554H206.581H206.609H206.636H206.663H206.69H206.717H206.744H206.772H206.799H206.826H206.853H206.88H206.907H206.935H206.962H206.989H207.016H207.043H207.07H207.098H207.125H207.152H207.179H207.206H207.233H207.26H207.288H207.315H207.342H207.369H207.396H207.423H207.451H207.478H207.505H207.532H207.559H207.586H207.613H207.641H207.668H207.695H207.722H207.749H207.776H207.803H207.83H207.858H207.885H207.912H207.939H207.966H207.993H208.02H208.047H208.075H208.102H208.129H208.156H208.183H208.21H208.237H208.264H208.291H208.319H208.346H208.373H208.4H208.427H208.454H208.481H208.508H208.535H208.562H208.59H208.617H208.644H208.671H208.698H208.725H208.752H208.779H208.806H208.833H208.86H208.887H208.914H208.941H208.968H208.995H209.022H209.05H209.077H209.104H209.131H209.158H209.185H209.212H209.239H209.266H209.293H209.32H209.347H209.374H209.401H209.428H209.455H209.482H209.509H209.536H209.563H209.59H209.617H209.644H209.671H209.698H209.725H209.752H209.779H209.805H209.832H209.859H209.886H209.913H209.94H209.967H209.994H210.021H210.048H210.075H210.102H210.129H210.156H210.182H210.209H210.236H210.263H210.29H210.317H210.344H210.371H210.398H210.424H210.451H210.478H210.505H210.532H210.559H210.586H210.612H210.639H210.666H210.693H210.72H210.747H210.773H210.8H210.827H210.854H210.881H210.907H210.934H210.961H210.988H211.014H211.041H211.068H211.095H211.122H211.148H211.175H211.202H211.229H211.255H211.282H211.309H211.335H211.362H211.389H211.415H211.442H211.469H211.496H211.522H211.549H211.576H211.602H211.629H211.656H211.682H211.709H211.735H211.762H211.789H211.815H211.842H211.869H211.895H211.922H211.948H211.975H212.002H212.028H212.055H212.081H212.108H212.134H212.161H212.187H212.214H212.24H212.267H212.293H212.32H212.347H212.373H212.399H212.426H212.452H212.479H212.505H212.532H212.558H212.585H212.611H212.638H212.664H212.69H212.717H212.743H212.77H212.796H212.822H212.849H212.875H212.902H212.928H212.954H212.981H213.007H213.033H213.06H213.086H213.112H213.139H213.165H213.191H213.217H213.244H213.27H213.296H213.323H213.349H213.375C221.969 224.845 228.917 231.656 228.917 240.034V244.017H184.083ZM206.5 183.5C197.382 183.5 189.958 190.745 189.958 199.69C189.958 208.635 197.382 215.879 206.5 215.879C215.618 215.879 223.042 208.635 223.042 199.69C223.042 190.745 215.618 183.5 206.5 183.5ZM206.5 188.983C212.559 188.983 217.458 193.79 217.458 199.69C217.458 205.589 212.559 210.397 206.5 210.397C200.441 210.397 195.542 205.589 195.542 199.69C195.542 193.79 200.441 188.983 206.5 188.983Z" fill="white" stroke="white"></path> </svg> 