<?xml version="1.0" encoding="UTF-8"?> <svg xmlns="http://www.w3.org/2000/svg" width="637" height="300" viewBox="0 0 637 300" fill="none"> <path d="M442 166L442 284L417 284C351.83 284 299 231.17 299 166L442 166Z" fill="#004990"></path> <path d="M439 166H528C560.585 166 587 192.415 587 225C587 257.585 560.585 284 528 284H439V166Z" fill="#012B54"></path> <path d="M494 166L452.5 166C414.669 166 384 135.332 384 97.5C384 59.6685 414.668 29 452.5 29L494 29L494 166Z" fill="#004990"></path> <path d="M494 118L494 79.5C494 40.0117 526.012 8.00001 565.5 8.00001C604.988 8.00001 637 40.0117 637 79.5L637 118L494 118Z" fill="#004990"></path> <path d="M514.216 199.68L528.575 223.828C535.468 235.483 526.852 250 512.995 250C499.21 250 490.523 235.483 497.415 223.828L511.775 199.68C512.349 198.773 513.641 198.773 514.216 199.68Z" fill="white"></path> <path d="M442 112.467C450.542 112.467 457.467 105.542 457.467 96.9999C457.467 88.4579 450.542 81.5332 442 81.5332C433.458 81.5332 426.533 88.4579 426.533 96.9999C426.533 105.542 433.458 112.467 442 112.467Z" fill="white"></path> <path fill-rule="evenodd" clip-rule="evenodd" d="M440.066 118.266V124.066C440.066 125.134 440.933 126 442 126C443.067 126 443.933 125.134 443.933 124.066V118.266C443.933 117.199 443.067 116.333 442 116.333C440.933 116.333 440.066 117.199 440.066 118.266Z" fill="white"></path> <path fill-rule="evenodd" clip-rule="evenodd" d="M425.596 110.67L421.493 114.771C420.739 115.527 420.739 116.75 421.493 117.506C422.249 118.26 423.473 118.26 424.229 117.506L428.33 113.404C429.083 112.65 429.083 111.424 428.33 110.67C427.576 109.916 426.35 109.916 425.596 110.67Z" fill="white"></path> <path fill-rule="evenodd" clip-rule="evenodd" d="M420.733 95.0664H414.933C413.866 95.0664 413 95.9325 413 96.9997C413 98.0669 413.866 98.9331 414.933 98.9331H420.733C421.801 98.9331 422.667 98.0669 422.667 96.9997C422.667 95.9325 421.801 95.0664 420.733 95.0664Z" fill="white"></path> <path fill-rule="evenodd" clip-rule="evenodd" d="M428.33 80.5958L424.229 76.4932C423.473 75.7392 422.249 75.7392 421.493 76.4932C420.739 77.2492 420.739 78.473 421.493 79.2289L425.596 83.3295C426.35 84.0835 427.576 84.0835 428.33 83.3295C429.083 82.5755 429.083 81.3498 428.33 80.5958Z" fill="white"></path> <path fill-rule="evenodd" clip-rule="evenodd" d="M440.066 69.9333V75.7333C440.066 76.8005 440.933 77.6667 442 77.6667C443.067 77.6667 443.933 76.8005 443.933 75.7333V69.9333C443.933 68.8661 443.067 68 442 68C440.933 68 440.066 68.8661 440.066 69.9333Z" fill="white"></path> <path fill-rule="evenodd" clip-rule="evenodd" d="M459.771 76.4932L455.67 80.5958C454.916 81.3498 454.916 82.5755 455.67 83.3295C456.424 84.0835 457.65 84.0835 458.404 83.3295L462.506 79.2289C463.26 78.473 463.26 77.2492 462.506 76.4932C461.75 75.7392 460.527 75.7392 459.771 76.4932Z" fill="white"></path> <path fill-rule="evenodd" clip-rule="evenodd" d="M469.066 95.0664H463.266C462.199 95.0664 461.333 95.9325 461.333 96.9997C461.333 98.0669 462.199 98.9331 463.266 98.9331H469.066C470.134 98.9331 471 98.0669 471 96.9997C471 95.9325 470.134 95.0664 469.066 95.0664Z" fill="white"></path> <path fill-rule="evenodd" clip-rule="evenodd" d="M462.506 114.771L458.404 110.67C457.65 109.916 456.424 109.916 455.67 110.67C454.916 111.424 454.916 112.65 455.67 113.404L459.771 117.506C460.527 118.26 461.75 118.26 462.506 117.506C463.26 116.75 463.26 115.527 462.506 114.771Z" fill="white"></path> <path d="M300 0H384V95C337.608 95 300 57.3919 300 11V0Z" fill="#004990"></path> <path fill-rule="evenodd" clip-rule="evenodd" d="M531 58.9783C531 68.6127 538.822 76.4348 548.457 76.4348C549.544 76.4348 578.187 76.4348 592.891 76.4348C595.838 76.4348 598.663 75.2652 600.747 73.1815C602.83 71.0979 604 68.2731 604 65.3261C604 62.3791 602.83 59.5543 600.747 57.4706C598.663 55.387 595.838 54.2174 592.891 54.2174H592.76C592.074 50.1421 588.797 46.9412 584.684 46.3731C583.225 38.2066 576.082 32 567.5 32C560.595 32 554.62 36.0182 551.791 41.8407C550.712 41.6312 549.598 41.5217 548.457 41.5217C538.822 41.5217 531 49.3438 531 58.9783ZM600.826 65.3261C600.826 63.2218 599.99 61.2032 598.503 59.7146C597.014 58.2276 594.996 57.3913 592.891 57.3913H591.304C590.428 57.3913 589.717 56.6803 589.717 55.8043C589.717 52.3003 586.874 49.4565 583.37 49.4565C583.349 49.4565 583.328 49.4565 583.309 49.4565C582.487 49.466 581.794 48.8455 581.711 48.0267C580.995 40.814 574.9 35.1739 567.5 35.1739C561.447 35.1739 556.271 38.9461 554.192 44.2656C553.895 45.0226 553.073 45.4336 552.287 45.2162C551.069 44.8766 549.783 44.6957 548.457 44.6957C540.574 44.6957 534.174 51.0958 534.174 58.9783C534.174 66.8607 540.574 73.2609 548.457 73.2609C549.544 73.2609 578.187 73.2609 592.891 73.2609C594.996 73.2609 597.014 72.4246 598.503 70.9376C599.99 69.449 600.826 67.4304 600.826 65.3261Z" fill="white"></path> <path d="M555 83.0479L547 96.0479" stroke="white" stroke-width="3" stroke-linecap="round"></path> <path d="M566.297 83.0479L558.297 96.0479" stroke="white" stroke-width="3" stroke-linecap="round"></path> <path d="M577.594 83.0479L569.594 96.0479" stroke="white" stroke-width="3" stroke-linecap="round"></path> <path d="M0 150C0 67.1573 67.1573 0 150 0H300V150C300 232.843 232.843 300 150 300C67.1573 300 0 232.843 0 150Z" fill="#004990"></path> <path fill-rule="evenodd" clip-rule="evenodd" d="M47.0376 116.77L88.4033 75.4038C90.9418 72.8654 95.0573 72.8654 97.5957 75.4038L138.961 116.77C141.5 119.308 141.5 123.424 138.961 125.962C136.423 128.5 132.307 128.5 129.769 125.962L99.4995 95.6924L99.4995 235L86.4995 235L86.4995 95.6924L56.23 125.962C53.6916 128.5 49.576 128.5 47.0376 125.962C44.4992 123.424 44.4992 119.308 47.0376 116.77Z" fill="white"></path> <path fill-rule="evenodd" clip-rule="evenodd" d="M259.817 111.404L218.451 70.0386C215.913 67.5002 211.797 67.5002 209.259 70.0386C206.721 72.577 206.721 76.6925 209.259 79.231L239.529 109.501L182.221 109.501V109.512C175.304 109.637 165.517 110.875 157.174 117.216C147.977 124.206 141.889 136.314 141.697 155.645C141.34 191.603 141.548 223.569 141.698 235.085L154.696 234.916C154.548 223.493 154.34 191.627 154.697 155.774C154.861 139.2 159.926 131.453 165.04 127.566C170.481 123.431 177.45 122.501 183.5 122.501V122.501L239.529 122.501L209.259 152.77C206.721 155.308 206.721 159.424 209.259 161.962C211.797 164.501 215.913 164.501 218.451 161.962L259.817 120.597C262.356 118.058 262.356 113.943 259.817 111.404Z" fill="white"></path> </svg> 