<?xml version="1.0" encoding="UTF-8"?> <svg xmlns="http://www.w3.org/2000/svg" width="489" height="361" viewBox="0 0 489 361" fill="none"> <path d="M67 191.427C67 130.44 116.44 81 177.427 81H287.854V191.427C287.854 252.414 238.414 301.854 177.427 301.854V301.854C116.44 301.854 67 252.414 67 191.427V191.427Z" fill="#004990"></path> <path d="M416.513 120.754C416.513 142.709 398.714 160.507 376.759 160.507L337.005 160.507L337.005 120.754C337.005 98.7981 354.804 80.9998 376.759 80.9998V80.9998C398.714 80.9998 416.513 98.7982 416.513 120.754V120.754Z" fill="#004990"></path> <path d="M284 240.015L284 211.672C284 182.601 307.566 159.035 336.637 159.035V159.035C365.708 159.035 389.274 182.601 389.274 211.672L389.274 240.015L284 240.015Z" fill="#004990"></path> <path d="M378.272 137.952L380.025 128.548L376.765 122.854L373.505 128.548L375.258 137.952C375.27 138.014 375.277 138.075 375.277 138.135C375.277 138.621 374.92 139.05 374.413 139.141C373.842 139.241 373.295 138.873 373.191 138.318L371.894 131.361L369.353 135.801C369.07 136.294 368.431 136.471 367.924 136.195C367.419 135.919 367.235 135.296 367.518 134.803L370.061 130.363L363.302 132.945C362.762 133.151 362.154 132.892 361.941 132.364C361.729 131.84 361.995 131.245 362.536 131.04L371.672 127.551L374.826 122.041H368.287L360.783 128.054C360.224 128.504 359.394 128.425 358.934 127.88C358.474 127.332 358.554 126.527 359.113 126.077L364.152 122.041H359.668C358.941 122.041 358.354 121.468 358.354 120.761C358.354 120.054 358.941 119.481 359.667 119.481H364.152L359.113 115.443C358.554 114.995 358.474 114.189 358.934 113.642C359.394 113.096 360.224 113.018 360.783 113.466L368.287 119.48H374.835L371.672 113.957L362.536 110.468C361.996 110.261 361.729 109.667 361.942 109.142C362.154 108.616 362.762 108.357 363.303 108.563L370.061 111.144L367.518 106.703C367.235 106.211 367.419 105.588 367.924 105.312C368.431 105.037 369.07 105.214 369.353 105.708L371.894 110.148L373.191 103.19C373.295 102.634 373.842 102.265 374.413 102.367C374.92 102.455 375.277 102.886 375.277 103.372C375.277 103.432 375.269 103.493 375.258 103.556L373.505 112.96L376.765 118.654L380.025 112.96L378.272 103.556C378.171 103 378.548 102.467 379.119 102.366C379.69 102.265 380.235 102.634 380.339 103.189L381.636 110.147L384.169 105.724C384.453 105.231 385.092 105.054 385.597 105.329C385.941 105.517 386.137 105.863 386.137 106.222C386.137 106.392 386.092 106.563 386.003 106.721L383.471 111.143L390.227 108.563C390.767 108.357 391.379 108.616 391.588 109.141C391.638 109.265 391.661 109.39 391.661 109.515C391.661 109.923 391.409 110.309 390.996 110.467L381.86 113.956L378.696 119.481H385.25L392.754 113.467C393.315 113.018 394.141 113.096 394.603 113.643C395.063 114.189 394.983 114.995 394.424 115.444L389.385 119.481H393.848C394.575 119.481 395.162 120.054 395.162 120.761C395.162 121.468 394.575 122.041 393.848 122.041H389.385L394.424 126.077C394.74 126.331 394.903 126.698 394.903 127.068C394.903 127.353 394.804 127.641 394.603 127.88C394.141 128.424 393.316 128.504 392.754 128.054L385.25 122.041H378.704L381.86 127.552L390.996 131.04C391.409 131.197 391.662 131.584 391.662 131.992C391.662 132.117 391.638 132.243 391.589 132.364C391.379 132.892 390.768 133.151 390.227 132.945L383.472 130.364L386.003 134.787C386.093 134.944 386.137 135.115 386.137 135.284C386.137 135.642 385.942 135.992 385.597 136.179C385.092 136.454 384.453 136.276 384.17 135.784L381.636 131.361L380.339 138.318C380.235 138.873 379.69 139.242 379.12 139.142C378.548 139.04 378.171 138.506 378.272 137.952Z" fill="white"></path> <path fill-rule="evenodd" clip-rule="evenodd" d="M311.238 196.565C311.238 203.658 316.997 209.417 324.089 209.417C324.89 209.417 345.976 209.417 356.801 209.417C358.971 209.417 361.051 208.556 362.585 207.022C364.118 205.488 364.979 203.408 364.979 201.239C364.979 199.069 364.118 196.99 362.585 195.456C361.051 193.922 358.971 193.061 356.801 193.061H356.705C356.2 190.06 353.787 187.704 350.759 187.286C349.685 181.274 344.427 176.705 338.109 176.705C333.026 176.705 328.627 179.663 326.544 183.949C325.75 183.795 324.929 183.714 324.089 183.714C316.997 183.714 311.238 189.473 311.238 196.565ZM362.643 201.239C362.643 199.689 362.027 198.203 360.933 197.108C359.837 196.013 358.351 195.397 356.801 195.397H355.633C354.988 195.397 354.465 194.874 354.465 194.229C354.465 191.649 352.371 189.556 349.792 189.556C349.777 189.556 349.761 189.556 349.747 189.556C349.142 189.563 348.632 189.106 348.571 188.503C348.044 183.193 343.557 179.041 338.109 179.041C333.653 179.041 329.842 181.818 328.312 185.734C328.093 186.292 327.488 186.594 326.91 186.434C326.012 186.184 325.066 186.051 324.089 186.051C318.287 186.051 313.575 190.763 313.575 196.565C313.575 202.368 318.287 207.08 324.089 207.08C324.89 207.08 345.976 207.08 356.801 207.08C358.351 207.08 359.837 206.464 360.933 205.37C362.027 204.274 362.643 202.788 362.643 201.239Z" fill="white"></path> <path d="M328.906 214.285L323.017 223.855" stroke="white" stroke-width="3" stroke-linecap="round"></path> <path d="M337.223 214.285L331.333 223.855" stroke="white" stroke-width="3" stroke-linecap="round"></path> <path d="M345.54 214.285L339.651 223.855" stroke="white" stroke-width="3" stroke-linecap="round"></path> <path d="M0 255H86.8694V273.405C86.8694 321.381 47.9766 360.274 0 360.274V360.274L0 255Z" fill="#004990"></path> <path d="M287 80.98L287 50.4285C287 22.5776 309.578 9.05658e-05 337.428 8.93484e-05V8.93484e-05C365.279 8.8131e-05 387.857 22.5777 387.857 50.4285L387.857 80.98L287 80.98Z" fill="#004990"></path> <path d="M326.41 42.6993C326.41 48.9877 331.508 54.0855 337.796 54.0855C344.085 54.0855 349.183 48.9877 349.183 42.6993C349.183 36.4108 344.085 31.313 337.796 31.313C331.508 31.313 326.41 36.4108 326.41 42.6993Z" fill="white"></path> <path fill-rule="evenodd" clip-rule="evenodd" d="M322.14 41.2759L317.87 41.2759C317.085 41.2759 316.447 41.9135 316.447 42.6992C316.447 43.4848 317.085 44.1224 317.87 44.1224L322.14 44.1224C322.926 44.1224 323.563 43.4848 323.563 42.6992C323.563 41.9135 322.926 41.2759 322.14 41.2759Z" fill="white"></path> <path fill-rule="evenodd" clip-rule="evenodd" d="M327.733 30.6226L324.714 27.6023C324.158 27.0473 323.257 27.0473 322.7 27.6023C322.145 28.1588 322.145 29.0598 322.7 29.6163L325.721 32.6351C326.276 33.1902 327.178 33.1902 327.733 32.6351C328.288 32.08 328.288 31.1776 327.733 30.6226Z" fill="white"></path> <path fill-rule="evenodd" clip-rule="evenodd" d="M339.22 27.0432L339.22 22.7734C339.22 21.9877 338.582 21.3501 337.796 21.3501C337.011 21.3501 336.373 21.9877 336.373 22.7734L336.373 27.0432C336.373 27.8289 337.011 28.4665 337.796 28.4665C338.582 28.4665 339.22 27.8289 339.22 27.0432Z" fill="white"></path> <path fill-rule="evenodd" clip-rule="evenodd" d="M349.873 32.6351L352.893 29.6163C353.448 29.0598 353.448 28.1588 352.893 27.6023C352.337 27.0473 351.436 27.0473 350.879 27.6023L347.861 30.6226C347.305 31.1776 347.305 32.08 347.861 32.6351C348.416 33.1902 349.318 33.1902 349.873 32.6351Z" fill="white"></path> <path fill-rule="evenodd" clip-rule="evenodd" d="M357.722 41.2759L353.452 41.2759C352.667 41.2759 352.029 41.9135 352.029 42.6992C352.029 43.4848 352.667 44.1224 353.452 44.1224L357.722 44.1224C358.508 44.1224 359.146 43.4848 359.146 42.6992C359.146 41.9135 358.508 41.2759 357.722 41.2759Z" fill="white"></path> <path fill-rule="evenodd" clip-rule="evenodd" d="M352.893 55.7813L349.873 52.7625C349.318 52.2074 348.416 52.2074 347.861 52.7625C347.305 53.3176 347.305 54.2199 347.861 54.775L350.879 57.7952C351.436 58.3503 352.337 58.3503 352.893 57.7952C353.448 57.2387 353.448 56.3378 352.893 55.7813Z" fill="white"></path> <path fill-rule="evenodd" clip-rule="evenodd" d="M339.22 62.6253L339.22 58.3554C339.22 57.5698 338.582 56.9321 337.796 56.9321C337.011 56.9321 336.373 57.5698 336.373 58.3554L336.373 62.6253C336.373 63.4109 337.011 64.0485 337.796 64.0485C338.582 64.0485 339.22 63.4109 339.22 62.6253Z" fill="white"></path> <path fill-rule="evenodd" clip-rule="evenodd" d="M324.714 57.7952L327.733 54.775C328.288 54.2199 328.288 53.3176 327.733 52.7625C327.178 52.2074 326.276 52.2074 325.721 52.7625L322.7 55.7813C322.145 56.3378 322.145 57.2387 322.7 57.7952C323.257 58.3503 324.158 58.3503 324.714 57.7952Z" fill="white"></path> <path d="M386 193H445.565C469.554 193 489 212.446 489 236.435V236.435C489 260.423 469.554 279.869 445.565 279.869H386V193Z" fill="#012B54"></path> <path d="M438.346 217.795L448.339 235.572C453.136 244.152 447.14 254.839 437.496 254.839C427.903 254.839 421.857 244.152 426.654 235.572L436.647 217.795C437.047 217.127 437.946 217.127 438.346 217.795Z" fill="white"></path> <path d="M201.263 164.214C201.263 153.866 192.797 145.4 182.45 145.4C172.103 145.4 163.637 153.866 163.637 164.214C163.637 174.561 172.103 183.027 182.45 183.027C192.797 183.027 201.263 174.561 201.263 164.214ZM171.296 164.214C171.296 158.032 176.268 153.06 182.45 153.06C188.631 153.06 193.604 158.032 193.604 164.214C193.604 170.395 188.631 175.367 182.45 175.367C176.268 175.367 171.296 170.395 171.296 164.214Z" fill="white"></path> <path d="M230.424 219.444L212.417 190.686C211.745 189.611 210.536 188.94 209.192 188.94H206.101C212.148 181.28 216.314 173.486 216.314 163.407C216.314 144.728 200.995 129.678 182.316 129.678C163.637 129.678 148.318 144.863 148.318 163.542C148.318 173.62 152.484 181.414 158.531 189.074H155.44C154.096 189.074 152.887 189.746 152.215 190.821L134.477 219.444C133.805 220.653 133.67 222.132 134.342 223.341C135.014 224.55 136.223 225.222 137.702 225.222H227.199C228.543 225.222 229.887 224.416 230.559 223.341C231.23 221.997 231.096 220.653 230.424 219.444ZM155.977 163.407C155.977 148.894 167.803 137.203 182.45 137.203C196.963 137.203 208.923 149.029 208.923 163.407C208.923 173.217 203.951 180.474 196.426 188.94C194.679 190.821 192.932 192.837 191.051 194.852C190.513 195.39 190.11 195.927 189.573 196.465C187.288 199.018 184.869 201.706 182.585 204.393C180.3 201.571 177.881 199.018 175.597 196.465C175.059 195.927 174.656 195.39 174.119 194.852C172.237 192.837 170.356 190.821 168.744 188.94C161.084 180.339 155.977 173.083 155.977 163.407ZM144.421 217.697L157.724 196.465H165.115C166.19 197.674 167.265 198.749 168.34 199.959C172.103 203.99 175.866 208.156 179.494 212.725C180.166 213.666 181.241 214.203 182.45 214.203C183.66 214.203 184.735 213.666 185.407 212.725C189.035 208.156 192.798 203.99 196.56 199.959C197.635 198.749 198.71 197.674 199.785 196.465H207.176L220.48 217.697H144.421Z" fill="white"></path> </svg> 