<?xml version="1.0" encoding="UTF-8"?> <svg xmlns="http://www.w3.org/2000/svg" width="462" height="193" viewBox="0 0 462 193" fill="none"> <path d="M111.39 115.935H111.824L131.455 91.3145H158.678L131.78 120.599L148.049 153.787H119.416L109.438 127.323H109.112L103.798 153.787H79.8281L92.5179 91.3145H116.379L111.39 115.935Z" fill="#004990"></path> <path d="M226.249 91.3145L222.562 109.861H201.412L192.518 153.787H168.657L177.551 109.861H156.51L160.197 91.3145H226.249Z" fill="#004990"></path> <path d="M255.529 91.3145L248.263 126.998H248.588L271.69 91.3145H299.564L286.874 153.787H263.013L270.171 118.863H269.738L246.853 153.787H218.979L231.56 91.3145H255.529Z" fill="#004990"></path> <path d="M50.3269 125.696H36.9864L47.507 106.173H47.8324L49.5677 119.948H71.585L67.1382 91.3145H35.0341L0.435547 153.787H24.4051L31.2381 140.447H50.11L51.6285 153.787H76.6826L72.4527 125.696H50.3269Z" fill="#004990"></path> <path d="M331.778 116.043H326.138L328.633 104.004H334.815C341.865 104.004 342.082 107.909 342.082 109.21C342.082 112.681 338.828 116.043 331.778 116.043ZM350.216 122.334L350.325 122.008C359.218 120.382 365.726 113.44 365.726 105.414C365.726 98.9066 361.062 91.4229 347.179 91.4229H308.459L300.976 128.408H323.644H329.934C330.151 128.408 330.26 128.408 330.477 128.408H330.693C332.971 128.408 335.357 128.733 336.767 131.119C337.201 131.878 337.526 132.854 337.526 133.831C337.526 136.759 335.14 141.097 327.223 141.097H321.149L322.559 133.939H299.891L295.878 153.679H335.032C353.362 153.679 361.713 142.833 361.713 133.831C361.713 128.624 357.917 122.985 350.216 122.334Z" fill="#004990"></path> <path d="M10.846 186.65H14.0997C16.4858 186.65 17.8958 184.914 17.8958 183.288C17.8958 181.878 16.8112 181.01 15.0759 181.01H12.039L10.846 186.65ZM29.3925 165.175L28.091 171.899H13.9913L13.2321 175.695H19.9566C27.0064 175.695 28.6333 179.275 28.6333 182.311C28.6333 186.65 25.488 192.29 15.9436 192.29H0L5.42298 165.283H29.3925V165.175Z" fill="#FFAA00"></path> <path d="M58.6782 165.175L57.4852 171.574H44.2531L43.4939 175.478H56.0752L54.8822 181.552H42.1924L41.4332 185.782H54.8822L53.5806 192.181H30.0449L35.4679 165.175H58.6782Z" fill="#FFAA00"></path> <path d="M64.5356 175.697H69.4163C73.3208 175.697 73.7547 174.07 73.7547 173.202C73.7547 172.226 72.9954 171.141 69.5247 171.141C67.0302 171.141 63.9933 171.684 61.3903 172.551L62.8002 165.827C66.9217 164.851 70.1755 164.742 72.7785 164.742C76.4661 164.742 84.2752 165.176 84.2752 171.467C84.2752 174.287 82.2145 177.757 77.7677 178.408V178.517C80.3707 178.625 82.7568 180.469 82.7568 183.397C82.7568 185.783 81.5637 192.616 67.0302 192.616C64.2102 192.616 61.1733 192.508 56.835 191.315L58.2449 184.373C62.2579 186.109 65.8371 186.217 67.0302 186.217C70.8262 186.217 71.9108 184.482 71.9108 183.289C71.9108 181.12 69.1994 181.12 68.4401 181.12H63.451L64.5356 175.697Z" fill="#FFAA00"></path> <path d="M97.504 175.261C96.8532 176.996 96.2025 180.25 96.2025 182.311C96.2025 185.781 98.4801 186.107 99.2393 186.107C100.541 186.107 102.71 185.348 104.012 181.985C104.662 180.358 105.313 176.779 105.313 174.827C105.313 171.573 103.252 171.139 102.276 171.139C101.192 171.139 98.9139 171.682 97.504 175.261ZM116.159 175.152C116.159 180.575 112.797 192.614 97.6124 192.614C88.068 192.614 85.248 186.974 85.248 182.094C85.248 176.671 88.7188 164.632 103.578 164.632C113.773 164.74 116.159 170.814 116.159 175.152Z" fill="#FFAA00"></path> <path d="M148.808 165.175L143.386 192.181H133.082L137.095 172.55H130.37L126.357 192.181H116.054L121.477 165.175H148.808Z" fill="#FFAA00"></path> <path d="M164.967 171.574L160.52 180.034H166.268L165.183 171.574H164.967ZM173.426 165.175L177.548 192.181H166.702L166.051 186.433H157.917L154.988 192.181H144.685L159.544 165.175H173.426Z" fill="#FFAA00"></path> <path d="M201.735 191.53C198.589 192.397 195.986 192.614 193.817 192.614C186.659 192.614 180.477 189.252 180.477 181.66C180.477 173.526 186.659 164.632 199.349 164.632C202.494 164.632 204.988 165.066 206.29 165.391L206.832 165.5L205.422 172.658C203.687 171.899 201.735 171.573 200.216 171.573C194.685 171.573 191.214 175.803 191.214 180.142C191.214 183.721 193.926 185.348 197.505 185.348C198.372 185.348 200.216 185.239 203.145 184.263L201.735 191.53Z" fill="#FFAA00"></path> <path d="M227.982 165.175H238.285L232.862 192.181H222.559L224.511 182.203H217.678L215.617 192.181H205.313L210.845 165.175H221.149L219.196 174.502H226.138L227.982 165.175Z" fill="#FFAA00"></path> <path d="M250.328 175.261C249.677 176.996 249.027 180.25 249.027 182.311C249.027 185.781 251.304 186.107 252.063 186.107C253.365 186.107 255.534 185.348 256.836 181.985C257.486 180.358 258.137 176.779 258.137 174.827C258.137 171.573 256.076 171.139 255.1 171.139C254.016 171.139 251.738 171.682 250.328 175.261ZM269.092 175.152C269.092 180.575 265.729 192.614 250.545 192.614C241.001 192.614 238.181 186.974 238.181 182.094C238.181 176.671 241.651 164.632 256.51 164.632C266.597 164.74 269.092 170.814 269.092 175.152Z" fill="#FFAA00"></path> <path d="M291.647 191.53C288.501 192.397 285.898 192.614 283.729 192.614C276.571 192.614 270.389 189.252 270.389 181.66C270.389 173.526 276.571 164.632 289.261 164.632C292.406 164.632 294.901 165.066 296.202 165.391L296.744 165.5L295.334 172.658C293.599 171.899 291.647 171.573 290.128 171.573C284.597 171.573 281.126 175.803 281.126 180.142C281.126 183.721 283.838 185.348 287.417 185.348C288.284 185.348 290.128 185.239 293.057 184.263L291.647 191.53Z" fill="#FFAA00"></path> <path d="M327.658 165.175L326.031 173.201H317.029L313.124 192.181H302.82L306.725 173.201H297.614L299.241 165.175H327.658Z" fill="#FFAA00"></path> <path d="M337.852 185.891C342.624 185.891 343.275 183.071 343.275 181.878C343.275 180.251 342.082 179.166 339.805 179.166H337.093L335.792 185.891H337.852ZM329.935 165.175H340.238L338.611 172.984H345.228C351.518 172.984 353.796 176.672 353.796 180.251C353.796 184.047 351.301 192.181 340.564 192.181H324.512L329.935 165.175Z" fill="#FFAA00"></path> <path d="M448.914 39.4697C435.248 43.2658 401.843 53.1356 401.843 59.1009C401.843 66.5846 426.788 70.923 425.161 85.565C423.752 99.3394 377.765 117.018 363.882 122.116C375.595 131.552 390.78 136.541 406.832 135.131C439.695 132.094 463.882 103.027 460.845 70.1638C459.76 58.5586 455.53 48.038 448.914 39.4697Z" fill="#FFAA00"></path> <path d="M398.805 76.0204C400.866 68.1028 386.875 67.2351 386.875 58.7753C386.875 54.0031 392.514 51.1831 400.649 49.1224C415.291 45.3263 437.851 41.0964 448.588 39.1441C436.549 23.5259 416.918 14.3069 395.877 16.2592C363.013 19.296 338.827 48.3632 341.864 81.2264C341.972 82.311 342.081 83.3956 342.298 84.4802C352.493 84.2633 396.853 83.9379 398.805 76.0204Z" fill="#FFAA00"></path> <path d="M408.895 50.0996C408.895 50.0996 401.737 51.835 397.073 54.438L397.724 54.7634C401.737 52.0519 408.895 50.0996 408.895 50.0996Z" fill="#FFAA00"></path> <path d="M394.902 58.8845C394.685 58.0168 395.119 57.1492 395.879 56.2815L395.011 55.8477C393.818 56.8238 393.059 57.9084 393.059 58.993C393.167 60.403 394.685 62.0299 396.855 63.9821L398.265 63.3314C396.421 61.7045 395.119 60.186 394.902 58.8845Z" fill="#FFAA00"></path> <path d="M391.539 94.4576L388.285 91.6377C382.754 93.373 376.788 94.9999 371.148 96.4099L374.185 100.748C379.391 99.0129 386.441 96.4099 391.539 94.4576Z" fill="#FFAA00"></path> <path d="M400.432 65.0645L398.914 65.7152C401.409 67.7759 404.229 69.9451 406.398 72.3312L408.242 71.4636C405.747 69.1859 402.819 67.1252 400.432 65.0645Z" fill="#FFAA00"></path> <path d="M412.687 82.202C413.88 79.2736 412.687 76.4537 410.409 73.7422L408.349 74.7183C409.759 76.7791 410.301 78.8398 409.433 81.009C409.325 81.3344 409.108 81.6597 408.891 81.9851L412.145 83.1782C412.362 82.8528 412.579 82.5274 412.687 82.202Z" fill="#FFAA00"></path> <path d="M408.674 86.2147L405.529 84.6963C402.709 86.4316 398.588 88.167 393.924 89.7939L396.961 92.18C401.733 90.1193 405.746 88.167 408.674 86.2147Z" fill="#FFAA00"></path> <rect width="152" height="50" rx="25" fill="#FFAA00"></rect> <path d="M38.9063 33L40.9632 16.2694H44.224L42.5183 30.1907H49.1403L50.846 16.2694H54.1068L52.4012 30.1907H54.4078L53.6052 36.7625H50.5952L51.0467 33H38.9063ZM69.5689 16.2694L69.2178 19.0787H63.1978L62.7463 22.8162H68.5154L68.1643 25.6255H62.3951L61.8433 30.1907H67.8633L67.5121 33H58.2313L60.2881 16.2694H69.5689ZM77.9993 16.2694L77.1966 22.7409H84.2701L85.0728 16.2694H88.3336L86.2768 33H83.016L83.9441 25.5502H76.8705L75.9425 33H72.6816L74.7385 16.2694H77.9993ZM102.84 19.0787H99.0777L97.3721 33H94.1112L95.8169 19.0787H92.0544L92.4056 16.2694H103.191L102.84 19.0787ZM107.264 16.2694H112.131C114.012 16.2694 115.291 16.4701 116.395 17.5487C117.599 18.7527 117.749 20.3831 117.599 21.5871C117.524 22.2392 117.197 24.0452 115.768 25.3245C114.714 26.2526 113.259 26.8044 111.328 26.8044H109.221L108.468 33H105.208L107.264 16.2694ZM110.174 19.0787L109.572 23.9951H110.902C111.529 23.9951 112.331 23.9951 113.109 23.4683C113.761 22.9917 114.162 22.2392 114.238 21.5118C114.363 20.5837 113.987 19.9567 113.56 19.6055C112.933 19.1289 112.08 19.0787 111.303 19.0787H110.174Z" fill="white"></path> </svg> 