<?xml version="1.0" encoding="UTF-8"?> <svg xmlns="http://www.w3.org/2000/svg" width="495" height="361" viewBox="0 0 495 361" fill="none"> <path d="M67 191.427C67 130.44 116.44 81 177.427 81H287.854V191.427C287.854 252.414 238.414 301.854 177.427 301.854V301.854C116.44 301.854 67 252.414 67 191.427V191.427Z" fill="#004990"></path> <path d="M416.513 120.754C416.513 142.709 398.714 160.507 376.759 160.507L337.005 160.507L337.005 120.754C337.005 98.7981 354.804 80.9998 376.759 80.9998V80.9998C398.714 80.9998 416.513 98.7982 416.513 120.754V120.754Z" fill="#004990"></path> <path d="M284 240.014L284 211.671C284 182.601 307.566 159.034 336.637 159.034V159.034C365.708 159.034 389.274 182.601 389.274 211.671L389.274 240.014L284 240.014Z" fill="#004990"></path> <path d="M378.273 137.952L380.026 128.548L376.765 122.854L373.506 128.548L375.259 137.952C375.27 138.014 375.277 138.075 375.277 138.135C375.277 138.621 374.921 139.05 374.414 139.141C373.843 139.241 373.295 138.873 373.192 138.318L371.895 131.361L369.354 135.801C369.071 136.294 368.432 136.471 367.924 136.195C367.419 135.919 367.235 135.296 367.518 134.803L370.061 130.363L363.303 132.945C362.763 133.151 362.154 132.892 361.942 132.364C361.729 131.84 361.996 131.245 362.536 131.04L371.672 127.551L374.826 122.041H368.288L360.784 128.054C360.225 128.504 359.395 128.425 358.934 127.88C358.474 127.332 358.555 126.527 359.114 126.077L364.152 122.041H359.668C358.941 122.041 358.354 121.468 358.354 120.761C358.354 120.054 358.941 119.481 359.668 119.481H364.152L359.114 115.443C358.555 114.995 358.474 114.189 358.934 113.642C359.395 113.096 360.225 113.018 360.784 113.466L368.288 119.48H374.836L371.673 113.957L362.537 110.468C361.996 110.261 361.73 109.667 361.942 109.142C362.155 108.616 362.763 108.357 363.303 108.563L370.062 111.144L367.518 106.703C367.235 106.211 367.419 105.588 367.924 105.312C368.432 105.037 369.071 105.214 369.354 105.708L371.894 110.148L373.192 103.19C373.295 102.634 373.843 102.265 374.414 102.367C374.921 102.455 375.277 102.886 375.277 103.372C375.277 103.432 375.27 103.493 375.259 103.556L373.506 112.96L376.765 118.654L380.026 112.96L378.273 103.556C378.172 103 378.549 102.467 379.12 102.366C379.691 102.265 380.235 102.634 380.339 103.189L381.636 110.147L384.17 105.724C384.453 105.231 385.092 105.054 385.597 105.329C385.942 105.517 386.137 105.863 386.137 106.222C386.137 106.392 386.093 106.563 386.003 106.721L383.472 111.143L390.228 108.563C390.768 108.357 391.379 108.616 391.589 109.141C391.639 109.265 391.662 109.39 391.662 109.515C391.662 109.923 391.409 110.309 390.996 110.467L381.86 113.956L378.697 119.481H385.25L392.755 113.467C393.316 113.018 394.142 113.096 394.603 113.643C395.064 114.189 394.983 114.995 394.425 115.444L389.386 119.481H393.849C394.576 119.481 395.163 120.054 395.163 120.761C395.163 121.468 394.575 122.041 393.849 122.041H389.386L394.425 126.077C394.74 126.331 394.903 126.698 394.903 127.068C394.903 127.353 394.804 127.641 394.604 127.88C394.142 128.424 393.316 128.504 392.755 128.054L385.25 122.041H378.705L381.861 127.552L390.997 131.04C391.41 131.197 391.662 131.584 391.662 131.992C391.662 132.117 391.639 132.243 391.589 132.364C391.379 132.892 390.768 133.151 390.228 132.945L383.472 130.364L386.003 134.787C386.093 134.944 386.138 135.115 386.138 135.284C386.138 135.642 385.942 135.992 385.597 136.179C385.093 136.454 384.453 136.276 384.17 135.784L381.637 131.361L380.34 138.318C380.236 138.873 379.691 139.242 379.12 139.142C378.549 139.04 378.172 138.506 378.273 137.952Z" fill="white"></path> <path fill-rule="evenodd" clip-rule="evenodd" d="M311.239 196.565C311.239 203.658 316.997 209.417 324.09 209.417C324.89 209.417 345.977 209.417 356.802 209.417C358.971 209.417 361.051 208.556 362.585 207.022C364.119 205.488 364.98 203.408 364.98 201.239C364.98 199.069 364.119 196.99 362.585 195.456C361.051 193.922 358.971 193.061 356.802 193.061H356.705C356.2 190.06 353.788 187.704 350.76 187.286C349.686 181.274 344.427 176.705 338.109 176.705C333.026 176.705 328.628 179.663 326.545 183.949C325.75 183.795 324.93 183.714 324.09 183.714C316.997 183.714 311.239 189.473 311.239 196.565ZM362.643 201.239C362.643 199.689 362.028 198.203 360.933 197.108C359.837 196.013 358.351 195.397 356.802 195.397H355.634C354.989 195.397 354.465 194.874 354.465 194.229C354.465 191.649 352.372 189.556 349.792 189.556C349.777 189.556 349.762 189.556 349.748 189.556C349.143 189.563 348.632 189.106 348.571 188.503C348.044 183.193 343.557 179.041 338.109 179.041C333.654 179.041 329.843 181.818 328.312 185.734C328.094 186.292 327.488 186.594 326.91 186.434C326.013 186.184 325.067 186.051 324.09 186.051C318.287 186.051 313.575 190.763 313.575 196.565C313.575 202.368 318.287 207.08 324.09 207.08C324.89 207.08 345.977 207.08 356.802 207.08C358.351 207.08 359.837 206.464 360.933 205.37C362.028 204.274 362.643 202.788 362.643 201.239Z" fill="white"></path> <path d="M328.907 214.285L323.018 223.855" stroke="white" stroke-width="3" stroke-linecap="round"></path> <path d="M337.224 214.285L331.334 223.855" stroke="white" stroke-width="3" stroke-linecap="round"></path> <path d="M345.54 214.285L339.651 223.855" stroke="white" stroke-width="3" stroke-linecap="round"></path> <path d="M0 255H86.8694V273.405C86.8694 321.381 47.9766 360.274 0 360.274V360.274L0 255Z" fill="#004990"></path> <path d="M287 80.98L287 50.4285C287 22.5776 309.578 9.05658e-05 337.428 8.93484e-05V8.93484e-05C365.279 8.8131e-05 387.857 22.5777 387.857 50.4285L387.857 80.98L287 80.98Z" fill="#004990"></path> <path d="M326.41 42.6993C326.41 48.9877 331.508 54.0855 337.796 54.0855C344.085 54.0855 349.183 48.9877 349.183 42.6993C349.183 36.4108 344.085 31.313 337.796 31.313C331.508 31.313 326.41 36.4108 326.41 42.6993Z" fill="white"></path> <path fill-rule="evenodd" clip-rule="evenodd" d="M322.14 41.2759L317.871 41.2759C317.085 41.2759 316.447 41.9135 316.447 42.6992C316.447 43.4848 317.085 44.1224 317.871 44.1224L322.14 44.1224C322.926 44.1224 323.564 43.4848 323.564 42.6992C323.564 41.9135 322.926 41.2759 322.14 41.2759Z" fill="white"></path> <path fill-rule="evenodd" clip-rule="evenodd" d="M327.733 30.6226L324.714 27.6023C324.157 27.0473 323.256 27.0473 322.7 27.6023C322.145 28.1588 322.145 29.0598 322.7 29.6163L325.72 32.6351C326.275 33.1902 327.178 33.1902 327.733 32.6351C328.288 32.08 328.288 31.1776 327.733 30.6226Z" fill="white"></path> <path fill-rule="evenodd" clip-rule="evenodd" d="M339.22 27.0432L339.22 22.7734C339.22 21.9877 338.582 21.3501 337.796 21.3501C337.011 21.3501 336.373 21.9877 336.373 22.7734L336.373 27.0432C336.373 27.8289 337.011 28.4665 337.796 28.4665C338.582 28.4665 339.22 27.8289 339.22 27.0432Z" fill="white"></path> <path fill-rule="evenodd" clip-rule="evenodd" d="M349.873 32.6351L352.893 29.6163C353.448 29.0598 353.448 28.1588 352.893 27.6023C352.336 27.0473 351.436 27.0473 350.879 27.6023L347.86 30.6226C347.305 31.1776 347.305 32.08 347.86 32.6351C348.415 33.1902 349.318 33.1902 349.873 32.6351Z" fill="white"></path> <path fill-rule="evenodd" clip-rule="evenodd" d="M357.722 41.2759L353.452 41.2759C352.667 41.2759 352.029 41.9135 352.029 42.6992C352.029 43.4848 352.667 44.1224 353.452 44.1224L357.722 44.1224C358.508 44.1224 359.146 43.4848 359.146 42.6992C359.146 41.9135 358.508 41.2759 357.722 41.2759Z" fill="white"></path> <path fill-rule="evenodd" clip-rule="evenodd" d="M352.893 55.7813L349.873 52.7625C349.318 52.2074 348.415 52.2074 347.86 52.7625C347.305 53.3176 347.305 54.2199 347.86 54.775L350.879 57.7952C351.436 58.3503 352.336 58.3503 352.893 57.7952C353.448 57.2387 353.448 56.3378 352.893 55.7813Z" fill="white"></path> <path fill-rule="evenodd" clip-rule="evenodd" d="M339.22 62.6253L339.22 58.3554C339.22 57.5698 338.582 56.9321 337.796 56.9321C337.011 56.9321 336.373 57.5698 336.373 58.3554L336.373 62.6253C336.373 63.4109 337.011 64.0485 337.796 64.0485C338.582 64.0485 339.22 63.4109 339.22 62.6253Z" fill="white"></path> <path fill-rule="evenodd" clip-rule="evenodd" d="M324.714 57.7952L327.733 54.775C328.288 54.2199 328.288 53.3176 327.733 52.7625C327.178 52.2074 326.275 52.2074 325.72 52.7625L322.7 55.7813C322.145 56.3378 322.145 57.2387 322.7 57.7952C323.256 58.3503 324.157 58.3503 324.714 57.7952Z" fill="white"></path> <path d="M386 193H451.52C475.508 193 494.955 212.446 494.955 236.435V236.435C494.955 260.423 475.508 279.869 451.52 279.869H386V193Z" fill="#012B54"></path> <path d="M441.372 217.795L451.943 235.572C457.018 244.152 450.675 254.839 440.474 254.839C430.326 254.839 423.93 244.152 429.004 235.572L439.575 217.795C439.998 217.127 440.95 217.127 441.372 217.795Z" fill="white"></path> <path d="M217.63 155.086H214.331C212.845 155.09 211.397 154.616 210.202 153.733C209.006 152.849 208.128 151.605 207.695 150.183C206.702 146.937 204.691 144.097 201.959 142.083C199.228 140.07 195.92 138.988 192.526 139H166.314C162.92 138.988 159.612 140.07 156.881 142.083C154.149 144.097 152.138 146.937 151.145 150.183C150.712 151.605 149.833 152.849 148.638 153.733C147.443 154.616 145.995 155.09 144.509 155.086H141.21C137.011 155.103 132.99 156.782 130.025 159.756C127.061 162.73 125.395 166.757 125.391 170.956V219.177C125.388 223.38 127.051 227.414 130.016 230.393C132.981 233.373 137.007 235.055 141.21 235.072H158.583C158.774 235.085 158.965 235.085 159.156 235.072C164.976 239.64 172.169 242.107 179.568 242.073C186.967 242.038 194.136 239.504 199.913 234.881C200.358 235.044 200.828 235.13 201.301 235.136H217.63C219.716 235.127 221.781 234.708 223.706 233.901C225.63 233.095 227.377 231.916 228.846 230.434C230.315 228.952 231.478 227.195 232.268 225.264C233.057 223.332 233.459 221.264 233.449 219.177V170.956C233.445 166.757 231.779 162.73 228.815 159.756C225.85 156.782 221.829 155.103 217.63 155.086ZM179.42 233.072C174.667 233.072 170.02 231.663 166.067 229.022C162.115 226.381 159.035 222.628 157.216 218.236C155.396 213.844 154.921 209.012 155.848 204.35C156.775 199.688 159.064 195.405 162.425 192.044C165.787 188.683 170.069 186.394 174.731 185.466C179.393 184.539 184.226 185.015 188.617 186.834C193.009 188.653 196.763 191.734 199.403 195.686C202.044 199.638 203.454 204.285 203.454 209.039C203.447 215.411 200.913 221.52 196.407 226.026C191.901 230.531 185.792 233.066 179.42 233.072ZM224.533 219.177C224.536 221.016 223.813 222.782 222.519 224.089C221.226 225.396 219.469 226.14 217.63 226.156H207.581C210.616 221.16 212.267 215.446 212.365 209.601C212.463 203.755 211.003 197.989 208.137 192.894C205.271 187.799 201.1 183.558 196.054 180.607C191.007 177.655 185.266 176.1 179.42 176.1C173.574 176.1 167.833 177.655 162.786 180.607C157.74 183.558 153.569 187.799 150.703 192.894C147.836 197.989 146.377 203.755 146.475 209.601C146.573 215.446 148.224 221.16 151.259 226.156H141.21C139.368 226.153 137.603 225.419 136.301 224.115C135 222.811 134.269 221.044 134.269 219.202V170.956C134.269 169.114 135 167.347 136.301 166.043C137.603 164.74 139.368 164.005 141.21 164.002H144.471C147.863 164.013 151.169 162.931 153.899 160.917C156.628 158.903 158.637 156.064 159.627 152.819C160.062 151.396 160.943 150.151 162.141 149.268C163.338 148.385 164.788 147.911 166.276 147.916H192.526C194.014 147.911 195.464 148.385 196.661 149.268C197.858 150.151 198.74 151.396 199.174 152.819C200.165 156.064 202.173 158.903 204.903 160.917C207.633 162.931 210.939 164.013 214.331 164.002H217.63C219.473 164.005 221.24 164.739 222.543 166.043C223.847 167.346 224.58 169.113 224.584 170.956L224.533 219.177ZM183.878 197.181C183.878 198.363 183.408 199.497 182.572 200.333C181.736 201.169 180.602 201.639 179.42 201.639C177.46 201.642 175.581 202.423 174.196 203.81C172.811 205.198 172.033 207.078 172.033 209.039C172.033 210.221 171.563 211.355 170.727 212.191C169.891 213.027 168.757 213.496 167.575 213.496C166.393 213.496 165.259 213.027 164.423 212.191C163.587 211.355 163.117 210.221 163.117 209.039C163.121 204.715 164.839 200.569 167.895 197.51C170.951 194.451 175.096 192.73 179.42 192.723C180.602 192.723 181.736 193.193 182.572 194.029C183.408 194.865 183.878 195.998 183.878 197.181Z" fill="white"></path> </svg> 