<?xml version="1.0" encoding="UTF-8"?> <svg xmlns="http://www.w3.org/2000/svg" width="495" height="361" viewBox="0 0 495 361" fill="none"> <path d="M67 191.427C67 130.44 116.44 81 177.427 81H287.854V191.427C287.854 252.414 238.414 301.854 177.427 301.854C116.44 301.854 67 252.414 67 191.427Z" fill="#004990"></path> <path d="M416.513 120.754C416.513 142.709 398.714 160.507 376.759 160.507L337.005 160.507L337.005 120.754C337.005 98.7981 354.804 80.9998 376.759 80.9998C398.714 80.9998 416.513 98.7982 416.513 120.754Z" fill="#004990"></path> <path d="M284 240.014L284 211.671C284 182.601 307.566 159.034 336.637 159.034C365.708 159.034 389.274 182.601 389.274 211.671L389.274 240.014L284 240.014Z" fill="#004990"></path> <path d="M378.273 137.952L380.026 128.548L376.765 122.854L373.506 128.548L375.259 137.952C375.27 138.014 375.277 138.075 375.277 138.135C375.277 138.621 374.921 139.05 374.414 139.141C373.843 139.241 373.295 138.873 373.192 138.318L371.895 131.361L369.354 135.801C369.071 136.294 368.432 136.471 367.924 136.195C367.419 135.919 367.235 135.296 367.518 134.803L370.061 130.363L363.303 132.945C362.763 133.151 362.154 132.892 361.942 132.364C361.729 131.84 361.996 131.245 362.536 131.04L371.672 127.551L374.826 122.041H368.288L360.784 128.054C360.225 128.504 359.395 128.425 358.934 127.88C358.474 127.332 358.555 126.527 359.114 126.077L364.152 122.041H359.668C358.941 122.041 358.354 121.468 358.354 120.761C358.354 120.054 358.941 119.481 359.668 119.481H364.152L359.114 115.443C358.555 114.995 358.474 114.189 358.934 113.642C359.395 113.096 360.225 113.018 360.784 113.466L368.288 119.48H374.836L371.673 113.957L362.537 110.468C361.996 110.261 361.73 109.667 361.942 109.142C362.155 108.616 362.763 108.357 363.303 108.563L370.062 111.144L367.518 106.703C367.235 106.211 367.419 105.588 367.924 105.312C368.432 105.037 369.071 105.214 369.354 105.708L371.894 110.148L373.192 103.19C373.295 102.634 373.843 102.265 374.414 102.367C374.921 102.455 375.277 102.886 375.277 103.372C375.277 103.432 375.27 103.493 375.259 103.556L373.506 112.96L376.765 118.654L380.026 112.96L378.273 103.556C378.172 103 378.549 102.467 379.12 102.366C379.691 102.265 380.235 102.634 380.339 103.189L381.636 110.147L384.17 105.724C384.453 105.231 385.092 105.054 385.597 105.329C385.942 105.517 386.137 105.863 386.137 106.222C386.137 106.392 386.093 106.563 386.003 106.721L383.472 111.143L390.228 108.563C390.768 108.357 391.379 108.616 391.589 109.141C391.639 109.265 391.662 109.39 391.662 109.515C391.662 109.923 391.409 110.309 390.996 110.467L381.86 113.956L378.697 119.481H385.25L392.755 113.467C393.316 113.018 394.142 113.096 394.603 113.643C395.064 114.189 394.983 114.995 394.425 115.444L389.386 119.481H393.849C394.576 119.481 395.163 120.054 395.163 120.761C395.163 121.468 394.575 122.041 393.849 122.041H389.386L394.425 126.077C394.74 126.331 394.903 126.698 394.903 127.068C394.903 127.353 394.804 127.641 394.604 127.88C394.142 128.424 393.316 128.504 392.755 128.054L385.25 122.041H378.705L381.861 127.552L390.997 131.04C391.41 131.197 391.662 131.584 391.662 131.992C391.662 132.117 391.639 132.243 391.589 132.364C391.379 132.892 390.768 133.151 390.228 132.945L383.472 130.364L386.003 134.787C386.093 134.944 386.138 135.115 386.138 135.284C386.138 135.642 385.942 135.992 385.597 136.179C385.093 136.454 384.453 136.276 384.17 135.784L381.637 131.361L380.34 138.318C380.236 138.873 379.691 139.242 379.12 139.142C378.549 139.04 378.172 138.506 378.273 137.952Z" fill="white"></path> <path fill-rule="evenodd" clip-rule="evenodd" d="M311.239 196.565C311.239 203.658 316.997 209.417 324.09 209.417C324.89 209.417 345.977 209.417 356.802 209.417C358.971 209.417 361.051 208.556 362.585 207.022C364.119 205.488 364.98 203.408 364.98 201.239C364.98 199.069 364.119 196.99 362.585 195.456C361.051 193.922 358.971 193.061 356.802 193.061H356.705C356.2 190.06 353.788 187.704 350.76 187.286C349.686 181.274 344.427 176.705 338.109 176.705C333.026 176.705 328.628 179.663 326.545 183.949C325.75 183.795 324.93 183.714 324.09 183.714C316.997 183.714 311.239 189.473 311.239 196.565ZM362.643 201.239C362.643 199.689 362.028 198.203 360.933 197.108C359.837 196.013 358.351 195.397 356.802 195.397H355.634C354.989 195.397 354.465 194.874 354.465 194.229C354.465 191.649 352.372 189.556 349.792 189.556C349.777 189.556 349.762 189.556 349.748 189.556C349.143 189.563 348.632 189.106 348.571 188.503C348.044 183.193 343.557 179.041 338.109 179.041C333.654 179.041 329.843 181.818 328.312 185.734C328.094 186.292 327.488 186.594 326.91 186.434C326.013 186.184 325.067 186.051 324.09 186.051C318.287 186.051 313.575 190.763 313.575 196.565C313.575 202.368 318.287 207.08 324.09 207.08C324.89 207.08 345.977 207.08 356.802 207.08C358.351 207.08 359.837 206.464 360.933 205.37C362.028 204.274 362.643 202.788 362.643 201.239Z" fill="white"></path> <path d="M328.907 214.285L323.018 223.855" stroke="white" stroke-width="3" stroke-linecap="round"></path> <path d="M337.224 214.285L331.334 223.855" stroke="white" stroke-width="3" stroke-linecap="round"></path> <path d="M345.54 214.285L339.651 223.855" stroke="white" stroke-width="3" stroke-linecap="round"></path> <path d="M0 255H86.8694V273.405C86.8694 321.381 47.9766 360.274 0 360.274L0 255Z" fill="#004990"></path> <path d="M287 80.98L287 50.4285C287 22.5776 309.578 9.05658e-05 337.428 8.93484e-05C365.279 8.8131e-05 387.857 22.5777 387.857 50.4285L387.857 80.98L287 80.98Z" fill="#004990"></path> <path d="M326.41 42.6993C326.41 48.9877 331.508 54.0855 337.796 54.0855C344.085 54.0855 349.183 48.9877 349.183 42.6993C349.183 36.4108 344.085 31.313 337.796 31.313C331.508 31.313 326.41 36.4108 326.41 42.6993Z" fill="white"></path> <path fill-rule="evenodd" clip-rule="evenodd" d="M322.14 41.2759L317.871 41.2759C317.085 41.2759 316.447 41.9135 316.447 42.6992C316.447 43.4848 317.085 44.1224 317.871 44.1224L322.14 44.1224C322.926 44.1224 323.564 43.4848 323.564 42.6992C323.564 41.9135 322.926 41.2759 322.14 41.2759Z" fill="white"></path> <path fill-rule="evenodd" clip-rule="evenodd" d="M327.733 30.6226L324.714 27.6023C324.157 27.0473 323.256 27.0473 322.7 27.6023C322.145 28.1588 322.145 29.0598 322.7 29.6163L325.72 32.6351C326.275 33.1902 327.178 33.1902 327.733 32.6351C328.288 32.08 328.288 31.1776 327.733 30.6226Z" fill="white"></path> <path fill-rule="evenodd" clip-rule="evenodd" d="M339.22 27.0432L339.22 22.7734C339.22 21.9877 338.582 21.3501 337.796 21.3501C337.011 21.3501 336.373 21.9877 336.373 22.7734L336.373 27.0432C336.373 27.8289 337.011 28.4665 337.796 28.4665C338.582 28.4665 339.22 27.8289 339.22 27.0432Z" fill="white"></path> <path fill-rule="evenodd" clip-rule="evenodd" d="M349.873 32.6351L352.893 29.6163C353.448 29.0598 353.448 28.1588 352.893 27.6023C352.336 27.0473 351.436 27.0473 350.879 27.6023L347.86 30.6226C347.305 31.1776 347.305 32.08 347.86 32.6351C348.415 33.1902 349.318 33.1902 349.873 32.6351Z" fill="white"></path> <path fill-rule="evenodd" clip-rule="evenodd" d="M357.722 41.2759L353.452 41.2759C352.667 41.2759 352.029 41.9135 352.029 42.6992C352.029 43.4848 352.667 44.1224 353.452 44.1224L357.722 44.1224C358.508 44.1224 359.146 43.4848 359.146 42.6992C359.146 41.9135 358.508 41.2759 357.722 41.2759Z" fill="white"></path> <path fill-rule="evenodd" clip-rule="evenodd" d="M352.893 55.7813L349.873 52.7625C349.318 52.2074 348.415 52.2074 347.86 52.7625C347.305 53.3176 347.305 54.2199 347.86 54.775L350.879 57.7952C351.436 58.3503 352.336 58.3503 352.893 57.7952C353.448 57.2387 353.448 56.3378 352.893 55.7813Z" fill="white"></path> <path fill-rule="evenodd" clip-rule="evenodd" d="M339.22 62.6253L339.22 58.3554C339.22 57.5698 338.582 56.9321 337.796 56.9321C337.011 56.9321 336.373 57.5698 336.373 58.3554L336.373 62.6253C336.373 63.4109 337.011 64.0485 337.796 64.0485C338.582 64.0485 339.22 63.4109 339.22 62.6253Z" fill="white"></path> <path fill-rule="evenodd" clip-rule="evenodd" d="M324.714 57.7952L327.733 54.775C328.288 54.2199 328.288 53.3176 327.733 52.7625C327.178 52.2074 326.275 52.2074 325.72 52.7625L322.7 55.7813C322.145 56.3378 322.145 57.2387 322.7 57.7952C323.256 58.3503 324.157 58.3503 324.714 57.7952Z" fill="white"></path> <path d="M386 193H451.52C475.508 193 494.955 212.446 494.955 236.435C494.955 260.423 475.508 279.869 451.52 279.869H386V193Z" fill="#012B54"></path> <path d="M441.372 217.795L451.943 235.572C457.018 244.152 450.675 254.839 440.474 254.839C430.326 254.839 423.93 244.152 429.004 235.572L439.575 217.795C439.998 217.127 440.95 217.127 441.372 217.795Z" fill="white"></path> <path d="M143.622 244.67V253.697C143.622 254.863 144.216 255.95 145.197 256.581C146.179 257.211 147.414 257.299 148.474 256.815L161.918 250.672L175.566 256.953C176.025 257.164 176.514 257.267 177.001 257.267C177.646 257.267 178.289 257.085 178.851 256.726C179.835 256.095 180.429 255.007 180.429 253.839V244.67H214.37C223.54 244.67 231 237.209 231 228.039V213.831V197.563V197.307V181.04V144.631C231.001 135.46 223.541 128 214.372 128H139.631C130.46 128 123 135.46 123 144.631V228.039C123 237.209 130.46 244.67 139.631 244.67H143.622ZM173.572 248.486L163.357 243.785C162.452 243.368 161.407 243.365 160.499 243.78L150.478 248.359V228.531H173.572V248.486ZM224.145 228.039C224.145 233.428 219.759 237.813 214.372 237.813H180.429V228.531H216.301C219.185 228.531 221.871 227.684 224.143 226.242L224.145 228.039ZM145.74 134.857H214.37C219.758 134.857 224.143 139.242 224.143 144.631V181.038V197.306V197.562C224.143 201.886 220.624 205.405 216.301 205.405H145.74V134.857ZM129.857 144.631C129.857 139.495 133.843 135.279 138.883 134.894V205.407H137.699C134.815 205.407 132.129 206.254 129.857 207.696V144.631ZM129.857 228.039V220.107C129.857 215.783 133.376 212.264 137.699 212.264H216.301C219.185 212.264 221.871 211.416 224.143 209.974V213.829C224.143 218.154 220.624 221.673 216.301 221.673H142.504C140.609 221.673 139.075 223.207 139.075 225.101C139.075 226.996 140.609 228.53 142.504 228.53H143.622V237.811H139.632C134.242 237.813 129.857 233.429 129.857 228.039Z" fill="white"></path> <path d="M183.405 149.65C171.994 149.65 162.711 158.933 162.711 170.344C162.711 181.756 171.994 191.038 183.405 191.038C194.817 191.038 204.099 181.756 204.099 170.344C204.099 158.933 194.815 149.65 183.405 149.65ZM183.405 184.182C175.776 184.182 169.568 177.974 169.568 170.344C169.568 162.715 175.776 156.507 183.405 156.507C191.035 156.507 197.243 162.715 197.243 170.344C197.243 177.974 191.035 184.182 183.405 184.182Z" fill="white"></path> </svg> 