<?xml version="1.0" encoding="UTF-8"?> <svg xmlns="http://www.w3.org/2000/svg" width="295" height="113" viewBox="0 0 295 113" fill="none"> <path d="M71.2646 63.935H71.5421L84.1016 48.1836H101.518L84.3098 66.9187L94.7182 88.1519H76.3994L70.0156 71.2209H69.8074L66.4073 88.1519H51.0723L59.1908 48.1836H74.4565L71.2646 63.935Z" fill="white"></path> <path d="M144.747 48.1836L142.388 60.0492H128.857L123.167 88.1519H107.901L113.591 60.0492H100.13L102.489 48.1836H144.747Z" fill="white"></path> <path d="M163.481 48.1836L158.832 71.0127H159.04L173.82 48.1836H191.653L183.534 88.1519H168.269L172.848 65.8085H172.571L157.93 88.1519H140.097L148.146 48.1836H163.481Z" fill="white"></path> <path d="M32.1974 70.18H23.6625L30.3933 57.6899H30.6015L31.7117 66.5024H45.7977L42.9528 48.1836H22.4135L0.27832 88.1519H15.6134L19.9849 79.617H32.0586L33.0301 88.1519H49.059L46.3528 70.18H32.1974Z" fill="white"></path> <path d="M212.263 64.0053H208.655L210.25 56.3031H214.206C218.716 56.3031 218.855 58.8011 218.855 59.6338C218.855 61.8542 216.773 64.0053 212.263 64.0053ZM224.059 68.0299L224.128 67.8217C229.818 66.7809 233.982 62.3399 233.982 57.2051C233.982 53.0418 230.998 48.2539 222.116 48.2539H197.344L192.556 71.9157H207.059H211.083C211.222 71.9157 211.291 71.9157 211.43 71.9157H211.569C213.026 71.9157 214.553 72.1238 215.455 73.6504C215.732 74.1361 215.94 74.7606 215.94 75.3851C215.94 77.2587 214.414 80.0342 209.348 80.0342H205.463L206.365 75.4545H191.862L189.295 88.0834H214.344C226.071 88.0834 231.414 81.1445 231.414 75.3851C231.414 72.0544 228.986 68.4462 224.059 68.0299Z" fill="white"></path> <path d="M6.93893 109.179H9.02061C10.5472 109.179 11.4492 108.068 11.4492 107.027C11.4492 106.125 10.7553 105.57 9.64512 105.57H7.70222L6.93893 109.179ZM18.8045 95.4395L17.9718 99.7416H8.95123L8.4655 102.17H12.7676C17.2779 102.17 18.3188 104.46 18.3188 106.403C18.3188 109.179 16.3065 112.787 10.2002 112.787H0L3.46947 95.5088H18.8045V95.4395Z" fill="#FFAA00"></path> <path d="M37.5405 95.4395L36.7772 99.5334H28.3117L27.826 102.031H35.8751L35.1118 105.917H26.9933L26.5076 108.623H35.1118L34.2792 112.717H19.2217L22.6911 95.4395H37.5405Z" fill="#FFAA00"></path> <path d="M41.288 102.168H44.4105C46.9085 102.168 47.1861 101.128 47.1861 100.573C47.1861 99.948 46.7003 99.2541 44.4799 99.2541C42.8839 99.2541 40.941 99.6011 39.2757 100.156L40.1777 95.854C42.8145 95.2295 44.8962 95.1602 46.5616 95.1602C48.9208 95.1602 53.9168 95.4377 53.9168 99.4623C53.9168 101.266 52.5984 103.487 49.7535 103.903V103.973C51.4188 104.042 52.9454 105.222 52.9454 107.095C52.9454 108.622 52.1821 112.993 42.8839 112.993C41.0798 112.993 39.1369 112.924 36.3613 112.161L37.2634 107.72C39.8308 108.83 42.1206 108.899 42.8839 108.899C45.3126 108.899 46.0064 107.789 46.0064 107.026C46.0064 105.638 44.2717 105.638 43.786 105.638H40.5941L41.288 102.168Z" fill="#FFAA00"></path> <path d="M62.3801 101.892C61.9637 103.002 61.5474 105.084 61.5474 106.402C61.5474 108.623 63.0046 108.831 63.4903 108.831C64.323 108.831 65.7107 108.345 66.5434 106.194C66.9598 105.153 67.3761 102.863 67.3761 101.614C67.3761 99.5327 66.0577 99.2552 65.4332 99.2552C64.7393 99.2552 63.2821 99.6021 62.3801 101.892ZM74.315 101.823C74.315 105.292 72.164 112.994 62.4494 112.994C56.3432 112.994 54.5391 109.386 54.5391 106.263C54.5391 102.794 56.7595 95.0918 66.2659 95.0918C72.7885 95.1612 74.315 99.047 74.315 101.823Z" fill="#FFAA00"></path> <path d="M95.2036 95.4395L91.7342 112.717H85.1422L87.7096 100.158H83.4074L80.84 112.717H74.248L77.7175 95.4395H95.2036Z" fill="#FFAA00"></path> <path d="M105.541 99.5334L102.696 104.946H106.374L105.68 99.5334H105.541ZM110.954 95.4395L113.59 112.717H106.651L106.235 109.04H101.031L99.1574 112.717H92.5654L102.072 95.4395H110.954Z" fill="#FFAA00"></path> <path d="M129.064 112.3C127.052 112.855 125.387 112.994 123.999 112.994C119.419 112.994 115.464 110.843 115.464 105.986C115.464 100.782 119.419 95.0918 127.538 95.0918C129.55 95.0918 131.146 95.3694 131.979 95.5775L132.325 95.6469L131.423 100.227C130.313 99.7409 129.064 99.5327 128.093 99.5327C124.554 99.5327 122.333 102.239 122.333 105.014C122.333 107.304 124.068 108.345 126.358 108.345C126.913 108.345 128.093 108.276 129.966 107.651L129.064 112.3Z" fill="#FFAA00"></path> <path d="M145.856 95.4395H152.448L148.978 112.717H142.386L143.635 106.334H139.264L137.946 112.717H131.354L134.892 95.4395H141.484L140.235 101.407H144.676L145.856 95.4395Z" fill="#FFAA00"></path> <path d="M160.152 101.892C159.736 103.002 159.32 105.084 159.32 106.402C159.32 108.623 160.777 108.831 161.263 108.831C162.095 108.831 163.483 108.345 164.316 106.194C164.732 105.153 165.149 102.863 165.149 101.614C165.149 99.5327 163.83 99.2552 163.206 99.2552C162.512 99.2552 161.055 99.6021 160.152 101.892ZM172.157 101.823C172.157 105.292 170.006 112.994 160.291 112.994C154.185 112.994 152.381 109.386 152.381 106.263C152.381 102.794 154.601 95.0918 164.108 95.0918C170.561 95.1612 172.157 99.047 172.157 101.823Z" fill="#FFAA00"></path> <path d="M186.588 112.3C184.575 112.855 182.91 112.994 181.522 112.994C176.942 112.994 172.987 110.843 172.987 105.986C172.987 100.782 176.942 95.0918 185.061 95.0918C187.073 95.0918 188.669 95.3694 189.502 95.5775L189.849 95.6469L188.947 100.227C187.837 99.7409 186.588 99.5327 185.616 99.5327C182.077 99.5327 179.857 102.239 179.857 105.014C179.857 107.304 181.592 108.345 183.881 108.345C184.437 108.345 185.616 108.276 187.49 107.651L186.588 112.3Z" fill="#FFAA00"></path> <path d="M209.626 95.4395L208.585 100.574H202.826L200.328 112.717H193.736L196.234 100.574H190.405L191.446 95.4395H209.626Z" fill="#FFAA00"></path> <path d="M216.148 108.693C219.201 108.693 219.618 106.889 219.618 106.125C219.618 105.085 218.854 104.391 217.397 104.391H215.662L214.83 108.693H216.148ZM211.083 95.4395H217.675L216.634 100.435H220.867C224.891 100.435 226.348 102.795 226.348 105.085C226.348 107.513 224.752 112.717 217.883 112.717H207.613L211.083 95.4395Z" fill="#FFAA00"></path> <path d="M287.202 15.0156C278.459 17.4443 257.087 23.7587 257.087 27.5751C257.087 32.363 273.047 35.1385 272.006 44.5061C271.104 53.3185 241.683 64.629 232.801 67.8903C240.295 73.9272 250.009 77.1191 260.279 76.217C281.304 74.2741 296.778 55.6778 294.835 34.6528C294.141 27.2282 291.435 20.4974 287.202 15.0156Z" fill="#FFAA00"></path> <path d="M255.145 38.3993C256.463 33.3339 247.512 32.7788 247.512 27.3664C247.512 24.3133 251.12 22.5092 256.324 21.1908C265.692 18.7621 280.125 16.056 286.995 14.807C279.292 4.81489 266.733 -1.08321 253.271 0.165801C232.246 2.1087 216.773 20.705 218.715 41.73C218.785 42.4239 218.854 43.1178 218.993 43.8117C225.516 43.6729 253.896 43.4648 255.145 38.3993Z" fill="#FFAA00"></path> <path d="M261.6 21.8164C261.6 21.8164 257.02 22.9266 254.036 24.592L254.452 24.8001C257.02 23.0654 261.6 21.8164 261.6 21.8164Z" fill="#FFAA00"></path> <path d="M252.647 27.4351C252.509 26.88 252.786 26.3249 253.272 25.7697L252.717 25.4922C251.953 26.1167 251.468 26.8106 251.468 27.5045C251.537 28.4065 252.509 29.4474 253.896 30.6964L254.798 30.2801C253.619 29.2392 252.786 28.2678 252.647 27.4351Z" fill="#FFAA00"></path> <path d="M250.495 50.1947L248.414 48.3906C244.875 49.5009 241.058 50.5417 237.45 51.4438L239.393 54.2193C242.724 53.1091 247.234 51.4438 250.495 50.1947Z" fill="#FFAA00"></path> <path d="M256.185 31.3906L255.214 31.807C256.81 33.1254 258.614 34.5131 260.002 36.0397L261.181 35.4846C259.585 34.0274 257.712 32.709 256.185 31.3906Z" fill="#FFAA00"></path> <path d="M264.026 42.3538C264.789 40.4803 264.026 38.6761 262.568 36.9414L261.25 37.5659C262.152 38.8843 262.499 40.2027 261.944 41.5905C261.875 41.7987 261.736 42.0068 261.597 42.215L263.679 42.9783C263.817 42.7701 263.956 42.5619 264.026 42.3538Z" fill="#FFAA00"></path> <path d="M261.457 44.9226L259.445 43.9512C257.641 45.0614 255.004 46.1716 252.021 47.2125L253.963 48.739C257.017 47.4206 259.584 46.1716 261.457 44.9226Z" fill="#FFAA00"></path> </svg> 