<?xml version="1.0" encoding="UTF-8"?> <svg xmlns="http://www.w3.org/2000/svg" width="160" height="61" viewBox="0 0 160 61" fill="none"> <path d="M38.4722 34.5162H38.622L45.4023 26.0127H54.8048L45.5147 36.1269L51.1337 47.5897H41.2442L37.7979 38.4495H37.6855L35.85 47.5897H27.5713L31.9541 26.0127H40.1954L38.4722 34.5162Z" fill="#004990"></path> <path d="M78.1425 26.0127L76.8689 32.4184H69.5642L66.4924 47.5897H58.2512L61.3229 32.4184H54.0557L55.3293 26.0127H78.1425Z" fill="#004990"></path> <path d="M88.2559 26.0127L85.7461 38.3371H85.8585L93.8375 26.0127H103.465L99.0819 47.5897H90.8407L93.313 35.5276H93.1632L85.2591 47.5897H75.6318L79.9772 26.0127H88.2559Z" fill="#004990"></path> <path d="M17.3821 37.8876H12.7745L16.4081 31.1447H16.5205L17.1198 35.9022H24.7243L23.1884 26.0127H12.1002L0.150391 47.5897H8.42909L10.7891 42.9821H17.3071L17.8316 47.5897H26.4849L25.0239 37.8876H17.3821Z" fill="#004990"></path> <path d="M114.591 34.5533H112.643L113.504 30.3952H115.64C118.075 30.3952 118.149 31.7437 118.149 32.1933C118.149 33.392 117.026 34.5533 114.591 34.5533ZM120.959 36.726L120.996 36.6136C124.068 36.0517 126.316 33.6542 126.316 30.8822C126.316 28.6346 124.705 26.0498 119.91 26.0498H106.537L103.952 38.8237H111.781H113.954C114.029 38.8237 114.066 38.8237 114.141 38.8237H114.216C115.003 38.8237 115.827 38.9361 116.314 39.7602C116.464 40.0224 116.576 40.3596 116.576 40.6967C116.576 41.7082 115.752 43.2066 113.017 43.2066H110.92L111.407 40.7342H103.577L102.191 47.5519H115.715C122.045 47.5519 124.93 43.8059 124.93 40.6967C124.93 38.8986 123.619 36.9507 120.959 36.726Z" fill="#004990"></path> <path d="M3.74602 58.9396H4.86982C5.69394 58.9396 6.18093 58.3402 6.18093 57.7783C6.18093 57.2913 5.80633 56.9916 5.20696 56.9916H4.15808L3.74602 58.9396ZM10.1517 51.5225L9.70218 53.845H4.83236L4.57014 55.1561H6.89267C9.32758 55.1561 9.88948 56.3923 9.88948 57.4412C9.88948 58.9396 8.80314 60.8875 5.50664 60.8875H0L1.87301 51.5599H10.1517V51.5225Z" fill="#FFAA00"></path> <path d="M20.2664 51.5225L19.8544 53.7326H15.2842L15.022 55.0812H19.3674L18.9553 57.1789H14.5725L14.3103 58.6399H18.9553L18.5058 60.85H10.377L12.25 51.5225H20.2664Z" fill="#FFAA00"></path> <path d="M22.2896 55.1565H23.9753C25.3238 55.1565 25.4737 54.5946 25.4737 54.2949C25.4737 53.9578 25.2114 53.5832 24.0127 53.5832C23.1511 53.5832 22.1023 53.7705 21.2032 54.0702L21.6902 51.7476C23.1137 51.4105 24.2375 51.373 25.1365 51.373C26.4102 51.373 29.1073 51.5229 29.1073 53.6956C29.1073 54.6695 28.3956 55.8683 26.8597 56.093V56.1305C27.7587 56.168 28.5829 56.8048 28.5829 57.8162C28.5829 58.6403 28.1708 61.0003 23.1511 61.0003C22.1772 61.0003 21.1283 60.9628 19.6299 60.5508L20.1169 58.1533C21.5029 58.7527 22.7391 58.7902 23.1511 58.7902C24.4622 58.7902 24.8368 58.1908 24.8368 57.7787C24.8368 57.0295 23.9003 57.0295 23.6381 57.0295H21.915L22.2896 55.1565Z" fill="#FFAA00"></path> <path d="M33.6764 55.0061C33.4516 55.6054 33.2268 56.7292 33.2268 57.441C33.2268 58.6397 34.0135 58.7521 34.2757 58.7521C34.7252 58.7521 35.4744 58.4899 35.924 57.3286C36.1487 56.7667 36.3735 55.5305 36.3735 54.8562C36.3735 53.7324 35.6617 53.5826 35.3246 53.5826C34.95 53.5826 34.1633 53.7699 33.6764 55.0061ZM40.1195 54.9686C40.1195 56.8416 38.9582 60.9997 33.7138 60.9997C30.4173 60.9997 29.4434 59.0518 29.4434 57.366C29.4434 55.493 30.6421 51.335 35.7741 51.335C39.2954 51.3724 40.1195 53.4702 40.1195 54.9686Z" fill="#FFAA00"></path> <path d="M51.396 51.5225L49.523 60.85H45.9643L47.3503 54.0698H45.0277L43.6417 60.85H40.083L41.956 51.5225H51.396Z" fill="#FFAA00"></path> <path d="M56.9767 53.7326L55.4409 56.6545H57.4263L57.0517 53.7326H56.9767ZM59.8986 51.5225L61.3221 60.85H57.5761L57.3513 58.8646H54.5418L53.5304 60.85H49.9717L55.1037 51.5225H59.8986Z" fill="#FFAA00"></path> <path d="M69.6762 60.6251C68.5898 60.9248 67.6908 60.9997 66.9416 60.9997C64.4692 60.9997 62.334 59.8384 62.334 57.2162C62.334 54.4067 64.4692 51.335 68.8521 51.335C69.9384 51.335 70.8 51.4848 71.2495 51.5972L71.4368 51.6346L70.9498 54.107C70.3505 53.8448 69.6762 53.7324 69.1517 53.7324C67.2413 53.7324 66.0425 55.1934 66.0425 56.6918C66.0425 57.928 66.979 58.4898 68.2152 58.4898C68.5149 58.4898 69.1517 58.4524 70.1632 58.1152L69.6762 60.6251Z" fill="#FFAA00"></path> <path d="M78.7413 51.5225H82.3L80.427 60.85H76.8683L77.5426 57.4037H75.1826L74.4708 60.85H70.9121L72.8226 51.5225H76.3813L75.707 54.744H78.1045L78.7413 51.5225Z" fill="#FFAA00"></path> <path d="M86.4592 55.0061C86.2345 55.6054 86.0097 56.7292 86.0097 57.441C86.0097 58.6397 86.7964 58.7521 87.0586 58.7521C87.5081 58.7521 88.2573 58.4899 88.7068 57.3286C88.9316 56.7667 89.1563 55.5305 89.1563 54.8562C89.1563 53.7324 88.4446 53.5826 88.1075 53.5826C87.7329 53.5826 86.9462 53.7699 86.4592 55.0061ZM92.9398 54.9686C92.9398 56.8416 91.7786 60.9997 86.5341 60.9997C83.2376 60.9997 82.2637 59.0518 82.2637 57.366C82.2637 55.493 83.4624 51.335 88.5944 51.335C92.0782 51.3724 92.9398 53.4702 92.9398 54.9686Z" fill="#FFAA00"></path> <path d="M100.73 60.6251C99.6435 60.9248 98.7445 60.9997 97.9953 60.9997C95.5229 60.9997 93.3877 59.8384 93.3877 57.2162C93.3877 54.4067 95.5229 51.335 99.9058 51.335C100.992 51.335 101.854 51.4848 102.303 51.5972L102.491 51.6346L102.004 54.107C101.404 53.8448 100.73 53.7324 100.205 53.7324C98.295 53.7324 97.0962 55.1934 97.0962 56.6918C97.0962 57.928 98.0327 58.4898 99.2689 58.4898C99.5686 58.4898 100.205 58.4524 101.217 58.1152L100.73 60.6251Z" fill="#FFAA00"></path> <path d="M113.167 51.5225L112.606 54.2945H109.496L108.148 60.85H104.589L105.938 54.2945H102.791L103.353 51.5225H113.167Z" fill="#FFAA00"></path> <path d="M116.689 58.6773C118.337 58.6773 118.562 57.7034 118.562 57.2913C118.562 56.7294 118.15 56.3548 117.363 56.3548H116.426L115.977 58.6773H116.689ZM113.954 51.5225H117.513L116.951 54.2196H119.236C121.409 54.2196 122.195 55.4932 122.195 56.7294C122.195 58.0405 121.334 60.85 117.625 60.85H112.081L113.954 51.5225Z" fill="#FFAA00"></path> <path d="M155.047 8.10645C150.328 9.41755 138.79 12.8264 138.79 14.8867C138.79 17.4715 147.406 18.9699 146.844 24.027C146.357 28.7845 130.474 34.8905 125.679 36.6511C129.724 39.9101 134.969 41.6333 140.513 41.1463C151.863 40.0974 160.217 30.0581 159.168 18.7077C158.794 14.6994 157.333 11.0658 155.047 8.10645Z" fill="#FFAA00"></path> <path d="M137.741 20.7301C138.453 17.9955 133.62 17.6958 133.62 14.7739C133.62 13.1256 135.568 12.1517 138.378 11.4399C143.435 10.1288 151.226 8.66789 154.935 7.9936C150.777 2.59934 143.997 -0.584774 136.729 0.0895085C125.379 1.13839 117.025 11.1777 118.074 22.5281C118.112 22.9027 118.149 23.2773 118.224 23.6519C121.745 23.577 137.067 23.4646 137.741 20.7301Z" fill="#FFAA00"></path> <path d="M141.226 11.7773C141.226 11.7773 138.753 12.3767 137.143 13.2758L137.367 13.3881C138.753 12.4516 141.226 11.7773 141.226 11.7773Z" fill="#FFAA00"></path> <path d="M136.393 14.8116C136.318 14.5119 136.468 14.2122 136.73 13.9125L136.43 13.7627C136.018 14.0998 135.756 14.4744 135.756 14.849C135.793 15.336 136.318 15.8979 137.067 16.5722L137.554 16.3474C136.917 15.7855 136.468 15.2611 136.393 14.8116Z" fill="#FFAA00"></path> <path d="M135.231 27.098L134.107 26.124C132.197 26.7234 130.136 27.2853 128.188 27.7723L129.237 29.2707C131.035 28.6713 133.47 27.7723 135.231 27.098Z" fill="#FFAA00"></path> <path d="M138.303 16.9463L137.778 17.171C138.64 17.8828 139.614 18.632 140.363 19.4561L141 19.1564C140.138 18.3698 139.127 17.658 138.303 16.9463Z" fill="#FFAA00"></path> <path d="M142.536 22.8653C142.948 21.8538 142.536 20.8799 141.749 19.9434L141.037 20.2805C141.524 20.9922 141.711 21.704 141.412 22.4532C141.374 22.5656 141.299 22.678 141.224 22.7903L142.348 23.2024C142.423 23.09 142.498 22.9776 142.536 22.8653Z" fill="#FFAA00"></path> <path d="M141.149 24.251L140.063 23.7266C139.089 24.3259 137.665 24.9253 136.055 25.4872L137.104 26.3113C138.752 25.5996 140.138 24.9253 141.149 24.251Z" fill="#FFAA00"></path> </svg> 