<?xml version="1.0" encoding="UTF-8"?> <svg xmlns="http://www.w3.org/2000/svg" width="75" height="75" viewBox="0 0 75 75" fill="none"> <path d="M37.4432 0.290039C17.1962 0.290039 0.454102 16.6898 0.454102 37.2791C0.454102 57.9028 17.2369 74.2682 37.4432 74.2682C57.6386 74.2682 74.4322 57.9116 74.4322 37.2791C74.4322 16.6679 57.6625 0.290039 37.4432 0.290039ZM63.8448 54.0966C62.1035 53.3776 59.7171 52.5143 57.4582 51.8619C58.7853 48.1351 59.5672 44.1918 59.7515 40.1244H68.6104C68.1637 45.1182 66.5464 49.8736 63.8448 54.0966ZM11.0415 54.0966C8.33988 49.8733 6.72261 45.1182 6.2759 40.1244H15.1345C15.3186 44.1918 16.1008 48.1351 17.4278 51.8619C15.2591 52.4933 12.9601 53.3042 11.0415 54.0966ZM11.0412 20.4616C12.8705 21.2162 15.3143 22.094 17.8825 22.8246C16.492 26.5787 15.6097 30.4876 15.2608 34.4338H6.2759C6.72261 29.4397 8.33989 24.6843 11.0412 20.4616ZM40.2885 49.1256V40.1244H54.0549C53.8646 43.7243 53.1271 47.2107 51.8928 50.4956C48.6352 49.8099 44.4512 49.2829 40.2885 49.1256ZM22.9935 50.4956C21.7589 47.2104 21.0217 43.7243 20.8311 40.1244H34.5979V49.1256C30.5205 49.2798 26.5004 49.7763 22.9935 50.4956ZM34.5979 25.4329V34.4338H20.9796C21.3444 30.9102 22.2022 27.444 23.4841 24.1619C27.0231 24.8513 30.7698 25.2878 34.5979 25.4329ZM40.2885 34.4338V25.4329C44.2022 25.2847 47.9683 24.8323 51.402 24.1622C52.6838 27.4443 53.5419 30.9104 53.9067 34.4341H40.2885V34.4338ZM40.2885 19.7375V8.57047C43.692 11.3683 46.6011 14.8859 48.8603 18.8401C46.108 19.3112 43.3398 19.6123 40.2885 19.7375ZM34.5979 8.57047V19.7375C31.431 19.6077 28.6816 19.2936 26.0258 18.8403C28.2852 14.8859 31.1943 11.3683 34.5979 8.57047ZM34.5979 54.8204V66.093C30.8691 63.2067 27.8086 59.7124 25.5219 55.8024C28.3954 55.2885 31.3383 54.9573 34.5979 54.8204ZM40.2885 66.0936V54.8204C43.4923 54.955 46.4312 55.2771 49.3642 55.8024C47.0774 59.7127 44.0173 63.207 40.2885 66.0936ZM59.6249 34.4338C59.2761 30.4873 58.3941 26.5787 57.0035 22.8243C59.127 22.2206 61.1304 21.5474 63.2507 20.6972C63.4485 20.6181 63.6482 20.5424 63.8448 20.4613C66.5464 24.6843 68.164 29.4397 68.6101 34.4335H59.6249V34.4338ZM60.1974 15.7808C58.4666 16.4383 56.7953 16.996 54.6712 17.5691C52.7202 13.8306 50.364 10.5343 47.6507 7.66452C52.3964 9.28891 56.6894 12.05 60.1974 15.7808ZM27.2359 7.66452C24.5274 10.5289 22.1581 13.84 20.2151 17.5693C18.3602 17.0686 16.6801 16.5371 14.6889 15.7811C18.1966 12.05 22.4899 9.28862 27.2359 7.66452ZM14.6892 58.7774C16.5825 58.0581 17.9815 57.6128 19.7385 57.1229C21.5814 60.6181 23.9413 63.8501 26.7644 66.7261C22.2059 65.0829 18.08 62.3841 14.6892 58.7774ZM48.1222 66.7258C50.945 63.8498 53.3049 60.6178 55.1475 57.1226C56.9407 57.6236 58.3056 58.0593 60.1971 58.7771C56.8064 62.3841 52.6807 65.0826 48.1222 66.7258Z" fill="#004990"></path> </svg> 