<?xml version="1.0" encoding="UTF-8"?> <svg xmlns="http://www.w3.org/2000/svg" width="525" height="535" viewBox="0 0 525 535" fill="none"> <path d="M525 75.5C525 117.198 491.197 151 449.5 151L374 151L374 75.5C374 33.8025 407.803 5.01306e-06 449.5 8.65837e-06C491.198 1.23037e-05 525 33.8025 525 75.5Z" fill="#004990"></path> <path d="M0 535L1.96761e-06 370L35 370C126.127 370 200 443.873 200 535L0 535Z" fill="#004990"></path> <path d="M196 370H320.5C366.063 370 403 406.937 403 452.5C403 498.063 366.063 535 320.5 535H196V370Z" fill="#004990"></path> <path d="M273 370L215 370C161.981 370 119 327.019 119 274C119 220.981 161.981 178 215 178L273 178L273 370Z" fill="#FFAA00"></path> <path d="M273 298L273 244C273 188.772 317.772 144 373 144C428.228 144 473 188.772 473 244L473 298L273 298Z" fill="#004990"></path> <path d="M301.689 416.947L321.632 450.565C331.205 466.791 319.239 487 299.993 487C280.848 487 268.782 466.791 278.355 450.565L298.298 416.947C299.096 415.684 300.891 415.684 301.689 416.947Z" fill="white"></path> <path d="M452.794 109.477L456.528 89.4402L449.582 77.3073L442.636 89.4402L446.371 109.477C446.396 109.608 446.411 109.738 446.411 109.867C446.411 110.902 445.652 111.817 444.571 112.011C443.355 112.224 442.188 111.438 441.967 110.256L439.203 95.4322L433.789 104.893C433.186 105.944 431.825 106.321 430.744 105.732C429.668 105.144 429.276 103.818 429.879 102.767L435.298 93.306L420.897 98.807C419.747 99.247 418.45 98.6941 417.997 97.571C417.544 96.4526 418.112 95.1859 419.264 94.7483L438.73 87.314L445.45 75.5756H431.518L415.53 88.3869C414.338 89.3453 412.57 89.1767 411.589 88.0152C410.609 86.8489 410.78 85.1321 411.971 84.1753L422.707 75.5756H413.152C411.604 75.5756 410.353 74.3536 410.353 72.847C410.353 71.3412 411.604 70.1192 413.152 70.1192H422.707L411.971 61.5172C410.78 60.5619 410.609 58.8435 411.589 57.6796C412.57 56.5157 414.338 56.3503 415.53 57.3047L431.518 70.1185H445.471L438.731 58.3502L419.264 50.9159C418.113 50.4759 417.545 49.2093 417.998 48.0909C418.45 46.9694 419.747 46.4172 420.898 46.8572L435.298 52.3559L429.879 42.895C429.276 41.8448 429.668 40.5178 430.744 39.9296C431.825 39.3445 433.186 39.721 433.789 40.7743L439.203 50.2336L441.967 35.4089C442.188 34.2247 443.355 33.438 444.571 33.6545C445.652 33.8427 446.411 34.7603 446.411 35.7956C446.411 35.9234 446.395 36.0544 446.371 36.1877L442.636 56.2248L449.582 68.3577L456.528 56.2248L452.794 36.1877C452.578 35.0035 453.382 33.8678 454.598 33.6521C455.815 33.4388 456.975 34.2247 457.197 35.4058L459.96 50.2328L465.359 40.8088C465.962 39.7578 467.324 39.3814 468.399 39.9672C469.134 40.3664 469.551 41.1052 469.551 41.8699C469.551 42.2315 469.456 42.5962 469.264 42.9326L463.871 52.3543L478.266 46.858C479.417 46.418 480.719 46.9709 481.166 48.0893C481.272 48.3528 481.321 48.6195 481.321 48.8862C481.321 49.7552 480.783 50.5771 479.903 50.9143L460.437 58.3478L453.697 70.1192H467.661L483.65 57.3055C484.846 56.3503 486.605 56.5157 487.589 57.6804C488.57 58.8435 488.399 60.5627 487.208 61.5179L476.472 70.1192H485.982C487.531 70.1192 488.782 71.3412 488.782 72.847C488.782 74.3544 487.53 75.5756 485.982 75.5756H476.472L487.208 84.1753C487.881 84.7157 488.229 85.4976 488.229 86.2858C488.229 86.8936 488.017 87.5077 487.59 88.0152C486.605 89.1759 484.847 89.3445 483.651 88.3869L467.661 75.5756H453.714L460.438 87.3172L479.904 94.7483C480.784 95.0832 481.322 95.9075 481.322 96.7765C481.322 97.0431 481.273 97.3121 481.167 97.571C480.72 98.6948 479.418 99.247 478.267 98.807L463.872 93.3083L469.265 102.733C469.457 103.067 469.552 103.432 469.552 103.791C469.552 104.555 469.135 105.299 468.4 105.699C467.325 106.284 465.963 105.905 465.36 104.857L459.961 95.433L457.197 110.257C456.976 111.439 455.815 112.225 454.599 112.011C453.382 111.794 452.578 110.656 452.794 109.477Z" fill="white"></path> <path d="M200.274 294.766C212.237 294.766 221.935 285.068 221.935 273.105C221.935 261.141 212.237 251.443 200.274 251.443C188.31 251.443 178.612 261.141 178.612 273.105C178.612 285.068 188.31 294.766 200.274 294.766Z" fill="white"></path> <path fill-rule="evenodd" clip-rule="evenodd" d="M197.566 302.885V311.008C197.566 312.503 198.779 313.716 200.274 313.716C201.769 313.716 202.982 312.503 202.982 311.008V302.885C202.982 301.391 201.769 300.178 200.274 300.178C198.779 300.178 197.566 301.391 197.566 302.885Z" fill="white"></path> <path fill-rule="evenodd" clip-rule="evenodd" d="M177.299 292.251L171.554 297.994C170.498 299.053 170.498 300.767 171.554 301.825C172.612 302.881 174.326 302.881 175.385 301.825L181.128 296.08C182.184 295.024 182.184 293.307 181.128 292.251C180.072 291.195 178.355 291.195 177.299 292.251Z" fill="white"></path> <path fill-rule="evenodd" clip-rule="evenodd" d="M170.49 270.395H162.367C160.872 270.395 159.659 271.608 159.659 273.102C159.659 274.597 160.872 275.81 162.367 275.81H170.49C171.985 275.81 173.198 274.597 173.198 273.102C173.198 271.608 171.985 270.395 170.49 270.395Z" fill="white"></path> <path fill-rule="evenodd" clip-rule="evenodd" d="M181.128 250.129L175.385 244.384C174.326 243.328 172.612 243.328 171.554 244.384C170.498 245.442 170.498 247.156 171.554 248.215L177.299 253.958C178.355 255.014 180.072 255.014 181.128 253.958C182.184 252.902 182.184 251.185 181.128 250.129Z" fill="white"></path> <path fill-rule="evenodd" clip-rule="evenodd" d="M197.566 235.196V243.319C197.566 244.814 198.779 246.027 200.274 246.027C201.769 246.027 202.982 244.814 202.982 243.319V235.196C202.982 233.701 201.769 232.488 200.274 232.488C198.779 232.488 197.566 233.701 197.566 235.196Z" fill="white"></path> <path fill-rule="evenodd" clip-rule="evenodd" d="M225.162 244.384L219.419 250.129C218.363 251.185 218.363 252.902 219.419 253.958C220.475 255.014 222.192 255.014 223.248 253.958L228.993 248.215C230.049 247.156 230.049 245.442 228.993 244.384C227.935 243.328 226.221 243.328 225.162 244.384Z" fill="white"></path> <path fill-rule="evenodd" clip-rule="evenodd" d="M238.181 270.395H230.058C228.564 270.395 227.351 271.608 227.351 273.102C227.351 274.597 228.564 275.81 230.058 275.81H238.181C239.676 275.81 240.889 274.597 240.889 273.102C240.889 271.608 239.676 270.395 238.181 270.395Z" fill="white"></path> <path fill-rule="evenodd" clip-rule="evenodd" d="M228.993 297.994L223.248 292.251C222.192 291.195 220.475 291.195 219.419 292.251C218.363 293.307 218.363 295.024 219.419 296.08L225.162 301.825C226.221 302.881 227.935 302.881 228.993 301.825C230.049 300.767 230.049 299.053 228.993 297.994Z" fill="white"></path> <path fill-rule="evenodd" clip-rule="evenodd" d="M312.316 234.62C312.316 250.885 325.522 264.091 341.788 264.091C343.624 264.091 391.981 264.091 416.807 264.091C421.783 264.091 426.552 262.117 430.07 258.599C433.588 255.081 435.562 250.312 435.562 245.337C435.562 240.361 433.588 235.592 430.07 232.074C426.552 228.556 421.783 226.582 416.807 226.582H416.585C415.428 219.702 409.895 214.297 402.95 213.338C400.488 199.551 388.429 189.072 373.939 189.072C362.282 189.072 352.195 195.856 347.417 205.686C345.596 205.333 343.715 205.148 341.788 205.148C325.522 205.148 312.316 218.354 312.316 234.62ZM430.204 245.337C430.204 241.784 428.792 238.376 426.281 235.863C423.768 233.352 420.36 231.94 416.807 231.94H414.128C412.649 231.94 411.449 230.74 411.449 229.261C411.449 223.345 406.648 218.544 400.732 218.544C400.697 218.544 400.662 218.544 400.63 218.544C399.242 218.56 398.071 217.513 397.932 216.13C396.724 203.953 386.433 194.431 373.939 194.431C363.721 194.431 354.981 200.799 351.471 209.78C350.97 211.058 349.582 211.752 348.256 211.385C346.198 210.812 344.028 210.506 341.788 210.506C328.48 210.506 317.675 221.312 317.675 234.62C317.675 247.928 328.48 258.733 341.788 258.733C343.624 258.733 391.981 258.733 416.807 258.733C420.36 258.733 423.768 257.321 426.281 254.811C428.792 252.297 430.204 248.889 430.204 245.337Z" fill="white"></path> </svg> 