<?xml version="1.0" encoding="UTF-8"?> <svg xmlns="http://www.w3.org/2000/svg" width="103" height="138" viewBox="0 0 103 138" fill="none"> <path d="M99.9737 54.9371C99.4675 54.0925 99.2002 53.1263 99.2002 52.1416C99.2002 51.1569 99.4675 50.1906 99.9737 49.346L100.985 47.6285C102.266 45.4917 102.672 42.9423 102.117 40.5134C101.562 38.0844 100.09 35.9639 98.0082 34.5952L96.348 33.5075C95.545 32.9651 94.8986 32.2213 94.4733 31.3506C94.048 30.4799 93.8587 29.5128 93.9245 28.546L94.1153 26.5233C94.339 24.044 93.5964 21.5741 92.0425 19.6292C90.4887 17.6842 88.2438 16.4146 85.7763 16.0852L83.7536 15.818C82.7882 15.6684 81.8793 15.2668 81.1188 14.6536C80.3582 14.0405 79.7729 13.2376 79.4218 12.3259L78.7158 10.4177C77.818 8.09849 76.0648 6.21201 73.8176 5.14694C71.5703 4.08188 69.0001 3.91938 66.6366 4.69293L64.7283 5.32265C63.7993 5.62911 62.8039 5.67369 61.8512 5.45152C60.8986 5.22935 60.0255 4.749 59.328 4.06321L57.8586 2.72743C56.0751 0.979221 53.6772 0 51.1797 0C48.6823 0 46.2844 0.979221 44.5009 2.72743L43.0315 4.06321C42.3339 4.749 41.4609 5.22935 40.5083 5.45152C39.5556 5.67369 38.5601 5.62911 37.6312 5.32265L35.7229 4.69293C33.3594 3.91938 30.7892 4.08188 28.5419 5.14694C26.2946 6.21201 24.5415 8.09849 23.6437 10.4177L22.9376 12.3259C22.5866 13.2376 22.0013 14.0405 21.2407 14.6536C20.4802 15.2668 19.5713 15.6684 18.6059 15.818L16.5832 16.0852C14.13 16.4144 11.8969 17.6731 10.3451 19.6013C8.79323 21.5296 8.04114 23.9802 8.24412 26.447L8.43495 28.546C8.51456 29.5253 8.33203 30.5081 7.90611 31.3935C7.4802 32.2788 6.82626 33.0348 6.01147 33.5838L4.35129 34.6715C2.2898 36.0388 0.831715 38.1452 0.277809 40.5561C-0.276096 42.967 0.116431 45.4986 1.37442 47.6285L2.38579 49.346C2.89197 50.1906 3.15932 51.1569 3.15932 52.1416C3.15932 53.1263 2.89197 54.0925 2.38579 54.9371L1.37442 56.6546C0.0932513 58.7914 -0.312335 61.3408 0.242446 63.7697C0.797227 66.1987 2.26943 68.3192 4.35129 69.6879L6.01147 70.7756C6.8277 71.3232 7.48276 72.0789 7.90885 72.9647C8.33494 73.8504 8.51657 74.8339 8.43495 75.8134L8.24412 77.8361C8.02052 80.3155 8.76312 82.7853 10.3169 84.7303C11.8707 86.6752 14.1157 87.9449 16.5832 88.2743L18.167 88.446L5.83973 122.794C5.7147 123.144 5.6819 123.519 5.74449 123.885C5.80708 124.251 5.96295 124.594 6.19703 124.882C6.43111 125.17 6.73547 125.392 7.08071 125.528C7.42595 125.664 7.80037 125.708 8.16779 125.657L26.3725 122.814L38.509 136.687C38.7164 136.903 38.9652 137.075 39.2406 137.193C39.516 137.311 39.8123 137.372 40.1119 137.374H40.4935C40.8625 137.293 41.2064 137.125 41.4956 136.882C41.7848 136.639 42.0107 136.33 42.1537 135.981L51.1797 110.715L60.2058 135.981C60.3446 136.322 60.5622 136.627 60.8407 136.869C61.1192 137.111 61.4508 137.284 61.8087 137.374H62.2476C62.8503 137.359 63.4243 137.113 63.8505 136.687L75.987 122.814L94.1917 125.733C94.5486 125.782 94.9122 125.738 95.2467 125.604C95.5812 125.47 95.8752 125.252 96.0999 124.97C96.3401 124.683 96.5016 124.339 96.5686 123.971C96.6355 123.603 96.6055 123.224 96.4816 122.871L84.1352 88.5223L85.719 88.3506C88.1865 88.0212 90.4315 86.7515 91.9853 84.8066C93.5391 82.8617 94.2817 80.3918 94.0581 77.9125L93.8673 75.8897C93.7857 74.9102 93.9673 73.9267 94.3934 73.041C94.8195 72.1553 95.4745 71.3995 96.2908 70.8519L97.9509 69.7642C100.033 68.3955 101.505 66.275 102.06 63.8461C102.615 61.4171 102.209 58.8678 100.928 56.7309L99.9737 54.9371ZM39.3486 131.153L28.7769 119.131C28.574 118.912 28.3291 118.737 28.057 118.616C27.7848 118.495 27.491 118.43 27.193 118.425H26.8114L11.1065 120.963L22.0408 90.4306C22.4231 90.9239 22.7436 91.4622 22.9949 92.0335L23.7009 93.9418C24.5838 96.2613 26.3226 98.1538 28.5592 99.2295C30.7958 100.305 33.3598 100.482 35.7229 99.7238L37.6312 99.094C38.5563 98.7909 39.546 98.7426 40.4963 98.9541C41.4466 99.1656 42.3223 99.6293 43.0315 100.296L44.5009 101.689C45.6852 102.85 47.1626 103.668 48.7753 104.055L48.8898 104.418L39.3486 131.153ZM75.6053 118.425C75.2542 118.384 74.8984 118.427 74.5669 118.55C74.2354 118.672 73.9374 118.871 73.6971 119.131L63.1254 131.153L53.5841 104.437V104.075C55.2038 103.676 56.6908 102.86 57.8968 101.708L59.3661 100.315C60.0744 99.6599 60.9453 99.2062 61.8884 99.0015C62.8314 98.7968 63.812 98.8485 64.7283 99.1513L66.6366 99.781C69.0168 100.552 71.6031 100.373 73.8544 99.2812C76.1057 98.1893 77.8476 96.2693 78.7158 93.9227L79.4218 92.0144C79.6799 91.4466 79.9999 90.9091 80.376 90.4115L91.3102 120.943L75.6053 118.425ZM96.348 57.1698L97.3594 58.8872C98.0738 60.0888 98.2999 61.5188 97.991 62.8822C97.6821 64.2456 96.8618 65.4385 95.6992 66.2149L93.9818 67.3598C92.5162 68.3002 91.3417 69.6304 90.59 71.2012C89.8383 72.7719 89.5393 74.521 89.7264 76.2523L89.8599 78.1605C89.9811 79.5474 89.5659 80.928 88.6997 82.0178C87.8334 83.1077 86.5823 83.8239 85.2038 84.0189L83.1811 84.2669C81.4556 84.5192 79.8278 85.2242 78.4635 86.3103C77.0992 87.3964 76.0471 88.8247 75.4145 90.4497L74.7275 92.3579C74.2441 93.6706 73.2684 94.7434 72.0074 95.349C70.7464 95.9546 69.2991 96.0453 67.9723 95.6019L66.0641 94.9722C64.3971 94.4382 62.6162 94.3674 60.9121 94.7674C59.208 95.1674 57.6446 96.0231 56.3893 97.243L54.939 98.6361C53.9161 99.5829 52.5736 100.109 51.1797 100.109C49.7859 100.109 48.4434 99.5829 47.4205 98.6361L45.9702 97.243C44.1668 95.5322 41.7771 94.5764 39.2913 94.5715C38.2754 94.5527 37.2633 94.7009 36.2954 95.0104L34.3871 95.6401C33.0604 96.0835 31.6131 95.9928 30.3521 95.3872C29.091 94.7816 28.1154 93.7088 27.6319 92.3961L26.945 90.4878C26.3157 88.8606 25.2646 87.4303 23.8997 86.3437C22.5348 85.2572 20.9052 84.5535 19.1784 84.3051L17.1556 84.057C15.77 83.8619 14.5129 83.1402 13.6457 82.042C12.7785 80.9438 12.368 79.5536 12.4995 78.1605L12.6331 76.2523C12.8006 74.5231 12.4928 72.781 11.7428 71.2139C10.9929 69.6468 9.82937 68.3142 8.3777 67.3598L6.66027 66.2149C5.49771 65.4385 4.67739 64.2456 4.36849 62.8822C4.0596 61.5188 4.28567 60.0888 5.00009 58.8872L6.01147 57.1698C6.91782 55.6771 7.3971 53.9642 7.3971 52.2179C7.3971 50.4715 6.91782 48.7587 6.01147 47.266L5.00009 45.5486C4.23971 44.3365 3.98758 42.8737 4.29834 41.4771C4.6091 40.0804 5.45772 38.8625 6.66027 38.0873L8.3777 36.9423C9.82039 35.9791 10.9769 34.6449 11.7257 33.0801C12.4746 31.5153 12.788 29.7777 12.6331 28.0499L12.4995 25.989C12.3835 24.6052 12.8011 23.2295 13.6668 22.1438C14.5325 21.0581 15.7808 20.3447 17.1556 20.1498L19.0639 19.9017C20.801 19.6628 22.4425 18.9635 23.8182 17.8764C25.194 16.7892 26.2538 15.3538 26.8877 13.719L27.5747 11.8107C28.0582 10.498 29.0338 9.42518 30.2948 8.81961C31.5558 8.21403 33.0031 8.12331 34.3299 8.56668L36.2381 9.17732C37.9001 9.71858 39.6779 9.79855 41.3817 9.40871C43.0856 9.01887 44.6517 8.17384 45.913 6.96375L47.3632 5.64706C47.8633 5.14394 48.458 4.74468 49.113 4.47223C49.768 4.19978 50.4703 4.05951 51.1797 4.05951C51.8891 4.05951 52.5915 4.19978 53.2465 4.47223C53.9015 4.74468 54.4961 5.14394 54.9962 5.64706L56.4465 7.04008C57.7078 8.25017 59.2739 9.0952 60.9777 9.48504C62.6816 9.87488 64.4594 9.79491 66.1213 9.25365L68.0296 8.64301C69.3564 8.19964 70.8036 8.29036 72.0647 8.89594C73.3257 9.50151 74.3013 10.5743 74.7848 11.887L75.4717 13.7953C76.1044 15.4203 77.1564 16.8486 78.5207 17.9347C79.885 19.0207 81.5129 19.7258 83.2383 19.978L85.2611 20.2261C86.6359 20.421 87.8842 21.1344 88.7499 22.2201C89.6156 23.3058 90.0333 24.6816 89.9172 26.0653L89.7836 28.1262C89.6032 29.8568 89.9052 31.6035 90.6563 33.173C91.4073 34.7425 92.5781 36.0736 94.039 37.0187L95.7564 38.1636C96.9227 38.9369 97.7461 40.1299 98.0553 41.4947C98.3645 42.8595 98.1358 44.2909 97.4166 45.4913L96.4052 47.2087C95.4791 48.7027 94.9836 50.4235 94.9735 52.1812C94.9634 53.9389 95.4391 55.6653 96.348 57.1698Z" fill="white"></path> <path d="M27.842 31.0264C28.1162 31.0288 28.3876 30.972 28.6379 30.8601C28.8881 30.7481 29.1113 30.5836 29.2923 30.3776C32.1628 27.512 35.5575 25.2251 39.2915 23.6415C39.5788 23.5592 39.8453 23.4165 40.073 23.2229C40.3008 23.0294 40.4845 22.7894 40.6121 22.5191C40.7396 22.2488 40.8079 21.9543 40.8125 21.6555C40.817 21.3566 40.7577 21.0603 40.6385 20.7862C40.5192 20.5121 40.3429 20.2667 40.1211 20.0662C39.8994 19.8658 39.6374 19.7151 39.3527 19.6241C39.068 19.5331 38.7672 19.5039 38.4703 19.5386C38.1735 19.5732 37.8874 19.6708 37.6313 19.825C33.3817 21.5774 29.532 24.1741 26.3154 27.458C26.1176 27.6558 25.9618 27.8915 25.8573 28.151C25.7527 28.4105 25.7016 28.6884 25.7069 28.9681C25.7123 29.2478 25.774 29.5236 25.8884 29.7788C26.0028 30.0341 26.1675 30.2637 26.3726 30.4539C26.5668 30.6429 26.7968 30.7909 27.0492 30.8892C27.3016 30.9876 27.5712 31.0342 27.842 31.0264Z" fill="white"></path> <path d="M20.3238 52.1317C20.2964 48.1055 21.0548 44.1126 22.5564 40.3769C22.6696 39.8939 22.6081 39.3864 22.3828 38.9445C22.1575 38.5025 21.7829 38.1547 21.3256 37.9626C20.8682 37.7705 20.3576 37.7466 19.8843 37.8951C19.411 38.0436 19.0056 38.355 18.7399 38.7739C16.97 43.0046 16.0618 47.5458 16.0684 52.1317C16.0682 52.4114 16.1244 52.6882 16.2337 52.9457C16.343 53.2032 16.503 53.4359 16.7043 53.6301C16.9056 53.8243 17.144 53.9759 17.4053 54.0758C17.6665 54.1757 17.9452 54.2219 18.2247 54.2117C18.7737 54.1974 19.2965 53.9743 19.6866 53.5878C20.0766 53.2013 20.3045 52.6805 20.3238 52.1317Z" fill="white"></path> <path d="M51.18 21.2941C55.1982 21.279 59.1799 22.0572 62.8967 23.584C63.1512 23.7119 63.4324 23.7773 63.7172 23.7749C64.2125 23.7697 64.6909 23.5942 65.072 23.2779C65.4531 22.9615 65.7137 22.5236 65.8099 22.0378C65.9062 21.552 65.8323 21.0478 65.6006 20.61C65.369 20.1723 64.9936 19.8276 64.5378 19.634C60.2891 17.9392 55.7542 17.0776 51.18 17.096H51.0465C50.7699 17.1033 50.4977 17.1657 50.2456 17.2795C49.9935 17.3934 49.7666 17.5563 49.5782 17.7589C49.3899 17.9615 49.2438 18.1996 49.1486 18.4593C49.0534 18.719 49.0109 18.9951 49.0237 19.2714C49.0532 19.8215 49.2939 20.3389 49.6957 20.7158C50.0974 21.0927 50.6292 21.2999 51.18 21.2941Z" fill="white"></path> <path d="M73.0106 73.9611C70.1513 76.8258 66.7528 79.0958 63.0114 80.6399C62.4901 80.863 62.0776 81.2825 61.8633 81.8075C61.649 82.3326 61.6501 82.9209 61.8665 83.4451C62.0398 83.8088 62.3091 84.1183 62.6454 84.3402C62.9817 84.5622 63.3721 84.6881 63.7747 84.7045C64.053 84.7179 64.3313 84.679 64.5953 84.59C68.8372 82.8233 72.6842 80.2284 75.9112 76.957C76.1338 76.7679 76.3148 76.5349 76.443 76.2724C76.5712 76.01 76.6437 75.7239 76.6561 75.4321C76.6684 75.1403 76.6202 74.8491 76.5146 74.5768C76.409 74.3045 76.2482 74.057 76.0423 73.8498C75.8365 73.6426 75.59 73.4802 75.3184 73.3729C75.0468 73.2655 74.7559 73.2155 74.464 73.226C74.1721 73.2364 73.8856 73.3071 73.6223 73.4336C73.3591 73.5601 73.1248 73.7397 72.9343 73.9611H73.0106Z" fill="white"></path> <path d="M81.5783 41.5211C81.8619 41.5046 82.1432 41.4598 82.4179 41.3875C82.6828 41.2845 82.9244 41.1298 83.1288 40.9323C83.3331 40.7348 83.496 40.4986 83.608 40.2373C83.7199 39.9761 83.7787 39.6952 83.7807 39.4111C83.7828 39.1269 83.7282 38.8452 83.6201 38.5824C81.864 34.2954 79.2688 30.4027 75.9871 27.1329C75.5838 26.7545 75.0516 26.5439 74.4987 26.5439C73.9457 26.5439 73.4135 26.7545 73.0102 27.1329C72.8088 27.3269 72.6486 27.5596 72.5391 27.817C72.4297 28.0743 72.3733 28.3512 72.3733 28.6308C72.3733 28.9105 72.4297 29.1873 72.5391 29.4447C72.6486 29.7021 72.8088 29.9348 73.0102 30.1288C75.8868 32.971 78.1587 36.3658 79.6891 40.109C79.8426 40.496 80.1005 40.8329 80.434 41.0822C80.7675 41.3314 81.1636 41.4834 81.5783 41.5211Z" fill="white"></path> <path d="M22.6897 63.9803C22.4721 63.4565 22.0553 63.0405 21.531 62.824C21.0067 62.6075 20.4179 62.6082 19.8941 62.8258C19.3703 63.0434 18.9544 63.4602 18.7379 63.9845C18.5213 64.5087 18.522 65.0976 18.7396 65.6214C20.5297 69.8901 23.1207 73.7766 26.3726 77.0709C26.5729 77.2717 26.8108 77.4309 27.0728 77.5396C27.3348 77.6483 27.6156 77.7043 27.8992 77.7043C28.1828 77.7043 28.4636 77.6483 28.7256 77.5396C28.9876 77.4309 29.2255 77.2717 29.4258 77.0709C29.6248 76.8755 29.783 76.6424 29.8909 76.3852C29.9988 76.1279 30.0544 75.8518 30.0544 75.5729C30.0544 75.294 29.9988 75.0178 29.8909 74.7606C29.783 74.5034 29.6248 74.2703 29.4258 74.0749C26.5493 71.1768 24.2618 67.7487 22.6897 63.9803Z" fill="white"></path> <path d="M51.1796 82.9874C47.1432 83.0059 43.1447 82.2075 39.4248 80.6402C39.1613 80.51 38.8738 80.4355 38.5803 80.4214C38.2867 80.4073 37.9934 80.4539 37.7187 80.5583C37.4439 80.6627 37.1937 80.8226 36.9836 81.0281C36.7734 81.2336 36.6079 81.4802 36.4974 81.7525C36.3869 82.0249 36.3338 82.3171 36.3413 82.6109C36.3488 82.9047 36.4168 83.1938 36.5411 83.4601C36.6654 83.7264 36.8433 83.9642 37.0637 84.1587C37.2841 84.3532 37.5422 84.5001 37.8219 84.5903C42.0542 86.3548 46.5943 87.2628 51.1796 87.2618C51.7465 87.2618 52.2901 87.0367 52.6909 86.6359C53.0917 86.235 53.3169 85.6914 53.3169 85.1246C53.3169 84.5578 53.0917 84.0141 52.6909 83.6133C52.2901 83.2125 51.7465 82.9874 51.1796 82.9874Z" fill="white"></path> <path d="M84.1349 49.918C83.5646 49.9379 83.025 50.1811 82.6324 50.5952C82.2397 51.0092 82.0255 51.561 82.0359 52.1315C82.0617 56.1749 81.2631 60.1811 79.6887 63.9054C79.5784 64.1635 79.5201 64.4408 79.517 64.7215C79.5139 65.0022 79.5661 65.2807 79.6706 65.5412C79.7752 65.8017 79.93 66.039 80.1263 66.2397C80.3226 66.4403 80.5565 66.6003 80.8146 66.7106C81.0794 66.828 81.3646 66.8929 81.6542 66.9014C82.068 66.8896 82.4693 66.7568 82.8084 66.5194C83.1476 66.282 83.4097 65.9504 83.5625 65.5656C85.326 61.333 86.234 56.7932 86.234 52.2079V52.017C86.234 51.7414 86.1797 51.4684 86.0742 51.2138C85.9687 50.9591 85.8141 50.7277 85.6192 50.5328C85.4243 50.3379 85.1929 50.1832 84.9382 50.0778C84.6835 49.9723 84.4106 49.918 84.1349 49.918Z" fill="white"></path> <path d="M66.0641 65.508L64.7284 57.6078C64.7053 57.4798 64.718 57.3479 64.7652 57.2267C64.8123 57.1055 64.892 56.9996 64.9955 56.9209L70.7203 51.3106C71.4034 50.6426 71.8858 49.7965 72.1127 48.8684C72.3396 47.9402 72.3019 46.967 72.0039 46.0592C71.7059 45.1513 71.1595 44.3451 70.4268 43.7319C69.694 43.1188 68.8041 42.7231 67.8579 42.5899L59.9768 41.4449C59.8426 41.4117 59.7171 41.3503 59.6085 41.2647C59.4999 41.1792 59.4108 41.0715 59.3471 40.9488L55.7596 33.812C55.343 32.9522 54.6921 32.2275 53.882 31.7211C53.0718 31.2148 52.1352 30.9473 51.1798 30.9496C50.2225 30.9381 49.282 31.2018 48.4701 31.7092C47.6583 32.2166 47.0092 32.9464 46.6 33.812L43.0316 40.9488C42.9679 41.0715 42.8787 41.1792 42.7702 41.2647C42.6616 41.3503 42.536 41.4117 42.4018 41.4449L34.5208 42.5899C33.571 42.7051 32.6748 43.0924 31.9401 43.7052C31.2054 44.318 30.6636 45.1302 30.3799 46.0438C30.0759 46.9531 30.0346 47.9297 30.2607 48.8613C30.4869 49.793 30.9714 50.6419 31.6584 51.3106L37.3831 56.9209C37.4816 57.0032 37.5564 57.1101 37.6 57.2308C37.6436 57.3515 37.6543 57.4816 37.6312 57.6078L36.2954 65.508C36.1293 66.4519 36.2328 67.4235 36.5939 68.3112C36.9551 69.199 37.5594 69.9669 38.3373 70.5267C39.1169 71.0771 40.0323 71.4036 40.9842 71.4709C41.9361 71.5381 42.8883 71.3436 43.7376 70.9083L50.7981 67.2254C50.8479 67.1746 50.9073 67.1343 50.9728 67.1068C51.0383 67.0792 51.1087 67.065 51.1798 67.065C51.2509 67.065 51.3212 67.0792 51.3868 67.1068C51.4523 67.1343 51.5117 67.1746 51.5614 67.2254L58.622 70.9083C59.3739 71.286 60.204 71.4821 61.0454 71.4808C61.7899 71.4841 62.5259 71.3237 63.2014 71.0108C63.8769 70.6979 64.4753 70.2402 64.9542 69.6703C65.4332 69.1003 65.7808 68.432 65.9726 67.7127C66.1644 66.9934 66.1957 66.2407 66.0641 65.508ZM60.5302 58.3711L61.866 66.1949C61.9093 66.3597 61.9014 66.5337 61.8435 66.6939C61.7855 66.8541 61.6803 66.9929 61.5416 67.0918C61.4008 67.1778 61.239 67.2233 61.0741 67.2233C60.9091 67.2233 60.7473 67.1778 60.6065 67.0918L53.6033 63.2753C52.838 62.9548 52.0066 62.8239 51.1798 62.8937C50.3434 62.8835 49.5174 63.0801 48.7754 63.4661L41.753 67.2826C41.6123 67.3686 41.4505 67.4141 41.2855 67.4141C41.1205 67.4141 40.9588 67.3686 40.818 67.2826C40.6793 67.1837 40.574 67.0449 40.5161 66.8847C40.4581 66.7245 40.4503 66.5505 40.4936 66.3858L41.8294 58.5619C41.9626 57.7368 41.8989 56.8918 41.6435 56.096C41.3882 55.3001 40.9484 54.5758 40.36 53.9822L34.6353 48.4482C34.5256 48.3288 34.4446 48.186 34.3983 48.0306C34.352 47.8752 34.3417 47.7113 34.3681 47.5513C34.4305 47.395 34.5347 47.2589 34.6693 47.1579C34.804 47.0569 34.9639 46.995 35.1314 46.9789L43.0125 45.8339C43.8237 45.7047 44.5927 45.3847 45.2561 44.9004C45.9196 44.416 46.4587 43.7811 46.829 43.0479L50.3974 35.8538C50.474 35.7189 50.585 35.6067 50.7191 35.5286C50.8532 35.4506 51.0056 35.4095 51.1607 35.4095C51.3159 35.4095 51.4682 35.4506 51.6023 35.5286C51.7364 35.6067 51.8474 35.7189 51.924 35.8538L55.4924 43.0479C55.8563 43.7859 56.3935 44.4249 57.0582 44.9101C57.7228 45.3953 58.4951 45.7123 59.3089 45.8339L67.19 46.9789C67.351 46.9941 67.5039 47.0566 67.6295 47.1584C67.7552 47.2603 67.8479 47.397 67.896 47.5513C67.9479 47.7042 67.9575 47.8682 67.9239 48.026C67.8903 48.1839 67.8148 48.3297 67.7052 48.4482L61.9805 53.9822C61.4099 54.5476 60.981 55.2399 60.729 56.0027C60.4769 56.7655 60.4088 57.577 60.5302 58.3711Z" fill="#FFAA00"></path> </svg> 