<?xml version="1.0" encoding="UTF-8"?> <svg xmlns="http://www.w3.org/2000/svg" width="311" height="319" viewBox="0 0 311 319" fill="none"> <path fill-rule="evenodd" clip-rule="evenodd" d="M310.57 27.1427V113.999C310.57 195.932 221.629 227.157 220.022 227.711C218.899 228.096 217.672 228.096 216.548 227.711C214.941 227.157 126 195.932 126 113.999V27.1427C126 24.651 127.694 22.4796 130.109 21.877L216.966 0.162856C217.835 -0.0542854 218.736 -0.0542854 219.604 0.162856L306.461 21.877C308.877 22.4796 310.57 24.651 310.57 27.1427Z" fill="#004990"></path> <path d="M218 56C193.187 56 173 76.187 173 101C173 125.813 193.187 146 218 146C242.813 146 263 125.813 263 101C263 76.187 242.813 56 218 56ZM218 64.609C234.548 64.609 248.542 75.715 252.943 90.862C240.598 87.683 229.118 86.13 218 86.13C206.882 86.13 195.403 87.682 183.056 90.861C187.458 75.715 201.452 64.609 218 64.609ZM218 112.348C213.029 112.348 209 108.319 209 103.348C209 98.377 213.029 94.348 218 94.348C222.971 94.348 227 98.377 227 103.348C227 108.319 222.971 112.348 218 112.348ZM182.3 108.051C197.076 108.212 208.609 120.179 208.609 135.434C208.609 135.662 208.604 135.9 208.596 136.152C195.301 132.592 184.987 121.677 182.3 108.051ZM227.404 136.152C227.395 135.901 227.391 135.661 227.391 135.434C227.391 120.179 238.922 108.212 253.699 108.051C251.014 121.677 240.698 132.592 227.404 136.152Z" fill="white"></path> <path d="M105 213H191.869V231.405C191.869 279.381 152.977 318.274 105 318.274L105 213Z" fill="#004990"></path> <path d="M25.0002 136.979L25.0002 106.428C25.0002 78.5772 47.5778 55.9996 75.4286 55.9996C103.279 55.9996 125.857 78.5772 125.857 106.428L125.857 136.979L25.0002 136.979Z" fill="#004990"></path> <path d="M64.4103 98.6988C64.4103 104.987 69.5081 110.085 75.7966 110.085C82.0851 110.085 87.1829 104.987 87.1829 98.6988C87.1829 92.4103 82.0851 87.3125 75.7966 87.3125C69.5081 87.3125 64.4103 92.4103 64.4103 98.6988Z" fill="white"></path> <path fill-rule="evenodd" clip-rule="evenodd" d="M60.1407 97.2754L55.8708 97.2754C55.0852 97.2754 54.4475 97.913 54.4475 98.6987C54.4475 99.4843 55.0852 100.122 55.8708 100.122L60.1407 100.122C60.9263 100.122 61.564 99.4843 61.564 98.6987C61.564 97.913 60.9263 97.2754 60.1407 97.2754Z" fill="white"></path> <path fill-rule="evenodd" clip-rule="evenodd" d="M65.7329 86.6221L62.7141 83.6019C62.1576 83.0468 61.2566 83.0468 60.7001 83.6019C60.145 84.1584 60.145 85.0593 60.7001 85.6158L63.7203 88.6346C64.2754 89.1897 65.1778 89.1897 65.7329 88.6346C66.2879 88.0795 66.2879 87.1771 65.7329 86.6221Z" fill="white"></path> <path fill-rule="evenodd" clip-rule="evenodd" d="M77.22 83.0427L77.22 78.7729C77.22 77.9872 76.5823 77.3496 75.7967 77.3496C75.011 77.3496 74.3734 77.9872 74.3734 78.7729L74.3734 83.0427C74.3734 83.8284 75.011 84.466 75.7967 84.466C76.5823 84.466 77.22 83.8284 77.22 83.0427Z" fill="white"></path> <path fill-rule="evenodd" clip-rule="evenodd" d="M87.8731 88.6346L90.8933 85.6158C91.4483 85.0593 91.4483 84.1584 90.8933 83.6019C90.3368 83.0468 89.4358 83.0468 88.8793 83.6019L85.8605 86.6221C85.3055 87.1771 85.3055 88.0795 85.8605 88.6346C86.4156 89.1897 87.318 89.1897 87.8731 88.6346Z" fill="white"></path> <path fill-rule="evenodd" clip-rule="evenodd" d="M95.7225 97.2754L91.4526 97.2754C90.667 97.2754 90.0293 97.913 90.0293 98.6987C90.0293 99.4843 90.667 100.122 91.4526 100.122L95.7225 100.122C96.5081 100.122 97.1458 99.4843 97.1458 98.6987C97.1458 97.913 96.5081 97.2754 95.7225 97.2754Z" fill="white"></path> <path fill-rule="evenodd" clip-rule="evenodd" d="M90.8933 111.781L87.8731 108.762C87.318 108.207 86.4156 108.207 85.8605 108.762C85.3055 109.317 85.3055 110.219 85.8605 110.775L88.8793 113.795C89.4358 114.35 90.3368 114.35 90.8933 113.795C91.4483 113.238 91.4483 112.337 90.8933 111.781Z" fill="white"></path> <path fill-rule="evenodd" clip-rule="evenodd" d="M77.22 118.625L77.22 114.355C77.22 113.569 76.5823 112.932 75.7967 112.932C75.011 112.932 74.3734 113.569 74.3734 114.355L74.3734 118.625C74.3734 119.41 75.011 120.048 75.7967 120.048C76.5823 120.048 77.22 119.41 77.22 118.625Z" fill="white"></path> <path fill-rule="evenodd" clip-rule="evenodd" d="M62.7141 113.795L65.7329 110.775C66.2879 110.219 66.2879 109.317 65.7329 108.762C65.1778 108.207 64.2754 108.207 63.7203 108.762L60.7001 111.781C60.145 112.337 60.145 113.238 60.7001 113.795C61.2566 114.35 62.1576 114.35 62.7141 113.795Z" fill="white"></path> <path d="M132.513 172.754C132.513 194.709 114.714 212.508 92.7589 212.508L53.0051 212.508L53.0052 172.754C53.0052 150.799 70.8035 133 92.7589 133C114.714 133 132.513 150.799 132.513 172.754Z" fill="#004990"></path> <path d="M0 292.015L3.37986e-07 263.672C6.8465e-07 234.601 23.5663 211.035 52.6369 211.035C81.7075 211.035 105.274 234.601 105.274 263.672L105.274 292.015L0 292.015Z" fill="#004990"></path> <path d="M94.2728 189.953L96.0256 180.549L92.7655 174.855L89.5057 180.549L91.2585 189.953C91.2703 190.014 91.2773 190.075 91.2773 190.136C91.2773 190.622 90.921 191.051 90.4138 191.142C89.8428 191.242 89.2955 190.873 89.1917 190.318L87.8945 183.361L85.3536 187.801C85.0706 188.295 84.4316 188.471 83.9243 188.195C83.4193 187.919 83.2353 187.297 83.5183 186.804L86.0615 182.363L79.303 184.945C78.763 185.152 78.1542 184.892 77.9418 184.365C77.7294 183.84 77.9959 183.246 78.5362 183.04L87.6722 179.551L90.826 174.042H84.2876L76.7838 180.055C76.2246 180.504 75.3946 180.425 74.9345 179.88C74.4744 179.333 74.5546 178.527 75.1137 178.078L80.1522 174.042H75.6681C74.9415 174.042 74.354 173.468 74.354 172.761C74.354 172.055 74.9415 171.481 75.6677 171.481H80.1522L75.1137 167.444C74.5546 166.996 74.4744 166.189 74.9345 165.643C75.3946 165.097 76.2246 165.019 76.7838 165.467L84.2876 171.481H90.836L87.6726 165.958L78.5366 162.468C77.9963 162.262 77.7298 161.667 77.9421 161.143C78.1545 160.616 78.763 160.357 79.3033 160.564L86.0618 163.144L83.5183 158.704C83.2353 158.211 83.4193 157.588 83.9243 157.312C84.4316 157.038 85.0706 157.214 85.3536 157.709L87.8942 162.148L89.1917 155.191C89.2955 154.635 89.8428 154.266 90.4138 154.367C90.921 154.455 91.2773 154.886 91.2773 155.372C91.2773 155.432 91.2699 155.493 91.2585 155.556L89.5057 164.96L92.7655 170.654L96.0256 164.96L94.2728 155.556C94.1716 155 94.5489 154.467 95.1198 154.366C95.6907 154.266 96.2355 154.635 96.3393 155.189L97.6364 162.148L100.17 157.725C100.453 157.232 101.092 157.055 101.597 157.33C101.942 157.517 102.137 157.864 102.137 158.223C102.137 158.393 102.093 158.564 102.003 158.722L99.4717 163.143L106.228 160.564C106.768 160.357 107.379 160.617 107.589 161.142C107.639 161.265 107.662 161.391 107.662 161.516C107.662 161.924 107.409 162.309 106.996 162.468L97.8602 165.956L94.6968 171.481H101.25L108.755 165.467C109.316 165.019 110.142 165.097 110.603 165.643C111.064 166.189 110.983 166.996 110.425 167.444L105.386 171.481H109.849C110.576 171.481 111.163 172.055 111.163 172.761C111.163 173.469 110.575 174.042 109.849 174.042H105.386L110.425 178.078C110.74 178.332 110.903 178.699 110.903 179.068C110.903 179.354 110.804 179.642 110.604 179.88C110.142 180.425 109.316 180.504 108.755 180.055L101.25 174.042H94.7046L97.8606 179.553L106.997 183.04C107.41 183.197 107.662 183.584 107.662 183.992C107.662 184.117 107.639 184.243 107.589 184.365C107.379 184.892 106.768 185.152 106.228 184.945L99.4721 182.364L102.003 186.788C102.093 186.945 102.138 187.116 102.138 187.284C102.138 187.643 101.942 187.992 101.597 188.179C101.093 188.454 100.453 188.276 100.17 187.784L97.6368 183.362L96.3396 190.319C96.2358 190.873 95.6907 191.243 95.1201 191.142C94.5489 191.04 94.1716 190.506 94.2728 189.953Z" fill="white"></path> <path fill-rule="evenodd" clip-rule="evenodd" d="M27.2388 248.566C27.2388 255.659 32.9973 261.417 40.0899 261.417C40.8902 261.417 61.9766 261.417 72.802 261.417C74.9715 261.417 77.051 260.556 78.585 259.022C80.119 257.488 80.98 255.409 80.98 253.239C80.98 251.07 80.119 248.99 78.585 247.456C77.051 245.922 74.9715 245.061 72.802 245.061H72.705C72.2003 242.061 69.7878 239.705 66.7596 239.286C65.6859 233.274 60.4275 228.705 54.1094 228.705C49.0262 228.705 44.6276 231.663 42.5445 235.95C41.7501 235.795 40.9299 235.715 40.0899 235.715C32.9973 235.715 27.2388 241.473 27.2388 248.566ZM78.6434 253.239C78.6434 251.69 78.0277 250.204 76.933 249.108C75.8372 248.013 74.3511 247.398 72.802 247.398H71.6337C70.9888 247.398 70.4654 246.874 70.4654 246.229C70.4654 243.65 68.3718 241.556 65.7922 241.556C65.7771 241.556 65.7619 241.556 65.7479 241.556C65.1427 241.563 64.6321 241.106 64.5714 240.504C64.0445 235.194 59.5571 231.042 54.1094 231.042C49.6535 231.042 45.8426 233.819 44.3121 237.735C44.0937 238.292 43.4885 238.595 42.9102 238.435C42.0129 238.185 41.0666 238.051 40.0899 238.051C34.287 238.051 29.5753 242.763 29.5753 248.566C29.5753 254.369 34.287 259.081 40.0899 259.081C40.8902 259.081 61.9766 259.081 72.802 259.081C74.3511 259.081 75.8372 258.465 76.933 257.37C78.0277 256.274 78.6434 254.788 78.6434 253.239Z" fill="white"></path> <path d="M44.907 266.285L39.0175 275.856" stroke="white" stroke-width="3" stroke-linecap="round"></path> <path d="M53.2236 266.285L47.3342 275.856" stroke="white" stroke-width="3" stroke-linecap="round"></path> <path d="M61.54 266.285L55.6506 275.856" stroke="white" stroke-width="3" stroke-linecap="round"></path> </svg> 